<svg width="1012" height="90" viewBox="0 0 1012 90" fill="none" xmlns="http://www.w3.org/2000/svg">
<path d="M111.374 88H92.432L83.945 31.789L58.238 87.877H53.687L27.98 31.789L19.493 88H0.428L13.958 1.89999H32.654L55.901 54.667L79.271 1.89999H97.967L111.374 88ZM144.413 70.657H178.73V88H125.717V1.89999H177.377V19.12H144.413V36.094H174.179V52.945H144.413V70.657ZM253.833 1.89999V19.243H229.848V88H211.152V19.243H187.29V1.89999H253.833ZM315.161 88L309.134 71.641H274.817L268.913 88H249.233L282.935 1.89999H300.524L335.333 88H315.161ZM291.914 24.655L280.721 55.405H303.23L291.914 24.655ZM362.365 1.89999H419.56V88H400.987V19.243H378.601L374.542 56.512C373.394 67.172 370.319 75.126 365.317 80.374C360.397 85.622 353.427 88.246 344.407 88.246H339.61V70.042H344.53C351.172 70.042 354.985 65.819 355.969 57.373L362.365 1.89999ZM455.336 1.89999H512.531V88H493.958V19.243H471.572L467.513 56.512C466.365 67.172 463.29 75.126 458.288 80.374C453.368 85.622 446.398 88.246 437.378 88.246H432.581V70.042H437.501C444.143 70.042 447.956 65.819 448.94 57.373L455.336 1.89999ZM590.127 1.89999H603.657V88H584.961V36.217L545.109 88H532.194V1.89999H550.89V53.068L590.127 1.89999ZM674.407 1.89999H692.98V88H674.407V52.453H642.058V88H623.362V1.89999H642.058V35.11H674.407V1.89999ZM764.513 42.613C768.285 44.581 771.196 47.369 773.246 50.977C775.378 54.503 776.444 58.562 776.444 63.154C776.444 70.042 773.779 75.905 768.449 80.743C763.201 85.581 756.846 88 749.384 88H712.73V1.89999H748.4C755.78 1.89999 761.93 4.032 766.85 8.296C771.77 12.478 774.23 17.726 774.23 24.04C774.23 27.73 773.369 31.215 771.647 34.495C769.925 37.775 767.547 40.481 764.513 42.613ZM756.149 26.992C756.149 25.598 755.903 24.368 755.411 23.302C755.001 22.154 754.386 21.17 753.566 20.35C752.746 19.53 751.721 18.915 750.491 18.505C749.343 18.013 748.031 17.767 746.555 17.767H731.057V36.094H746.555C749.507 36.094 751.844 35.274 753.566 33.634C755.288 31.912 756.149 29.698 756.149 26.992ZM747.539 70.903C750.573 70.903 753.033 70.001 754.919 68.197C756.805 66.393 757.748 64.056 757.748 61.186C757.748 58.398 756.805 56.102 754.919 54.298C753.033 52.494 750.573 51.592 747.539 51.592H731.057V70.903H747.539ZM810.343 70.657H844.66V88H791.647V1.89999H843.307V19.12H810.343V36.094H840.109V52.945H810.343V70.657ZM898.515 89.845C890.233 89.845 882.689 87.918 875.883 84.064C869.077 80.128 863.747 74.757 859.893 67.951C856.039 61.063 854.112 53.437 854.112 45.073C854.112 32.281 858.335 21.58 866.781 12.97C875.309 4.36 885.887 0.0549959 898.515 0.0549959C909.011 0.0549959 918.072 3.212 925.698 9.526C933.324 15.84 938.162 24.122 940.212 34.372H921.516C920.368 31.01 918.687 28.099 916.473 25.639C914.259 23.097 911.594 21.17 908.478 19.858C905.444 18.464 902.123 17.767 898.515 17.767C891.217 17.767 885.108 20.391 880.188 25.639C875.35 30.805 872.931 37.283 872.931 45.073C872.931 52.781 875.35 59.218 880.188 64.384C885.108 69.55 891.217 72.133 898.515 72.133C904.173 72.133 909.052 70.534 913.152 67.336C917.252 64.138 920.081 59.792 921.639 54.298H940.458C938.49 64.958 933.652 73.568 925.944 80.128C918.318 86.606 909.175 89.845 898.515 89.845ZM1011.89 1.89999V19.243H987.908V88H969.212V19.243H945.35V1.89999H1011.89Z" fill="#14141F"/>
</svg>
