<svg width="554" height="48" viewBox="0 0 554 48" fill="none" xmlns="http://www.w3.org/2000/svg">
<path opacity="0.1" d="M28.5556 0.747488H38.6726V47.6475H28.5556V28.2845H10.9346V47.6475H0.750625V0.747488H10.9346V18.8375H28.5556V0.747488ZM80.5853 47.6475L77.3023 38.7365H58.6093L55.3933 47.6475H44.6733L63.0313 0.747488H72.6123L91.5733 47.6475H80.5853ZM67.9223 13.1425L61.8253 29.8925H74.0863L67.9223 13.1425ZM97.5211 0.747488H134.036V47.6475H123.919V10.1945H107.705V47.6475H97.5211V0.747488ZM176.318 0.747488H183.688V47.6475H173.504V19.4405L151.796 47.6475H144.761V0.747488H154.945V28.6195L176.318 0.747488ZM238.777 0.747488H248.961V47.6475H194.423V0.747488H204.607V38.2005H216.734V0.747488H226.65V38.2005H238.777V0.747488ZM291.213 0.747488H298.583V47.6475H288.399V19.4405L266.691 47.6475H259.656V0.747488H269.84V28.6195L291.213 0.747488ZM341.678 0.747488V10.1945H328.613V47.6475H318.429V10.1945H305.431V0.747488H341.678ZM358.628 38.2005H377.321V47.6475H348.444V0.747488H376.584V10.1275H358.628V19.3735H374.842V28.5525H358.628V38.2005ZM429.705 0.747488H439.822V47.6475H429.705V28.2845H412.084V47.6475H401.9V0.747488H412.084V18.8375H429.705V0.747488ZM481.735 47.6475L478.452 38.7365H459.759L456.543 47.6475H445.823L464.181 0.747488H473.762L492.723 47.6475H481.735ZM469.072 13.1425L462.975 29.8925H475.236L469.072 13.1425ZM556.157 47.6475H545.839L541.216 17.0285L527.213 47.5805H524.734L510.731 17.0285L506.108 47.6475H495.723L503.093 0.747488H513.277L525.94 29.4905L538.67 0.747488H548.854L556.157 47.6475Z" fill="#4C6DBB"/>
</svg>
