<svg width="1060" height="83" viewBox="0 0 1060 83" fill="none" xmlns="http://www.w3.org/2000/svg">
<g opacity="0.5">
<path d="M35.897 71.455C29.3657 71.455 23.4163 69.9353 18.049 66.896C12.6817 63.792 8.47833 59.5563 5.439 54.189C2.39967 48.757 0.88 42.743 0.88 36.147C0.88 26.059 4.21033 17.62 10.871 10.83C17.5963 4.04 25.9383 0.644997 35.897 0.644997C44.1743 0.644997 51.32 3.13466 57.334 8.114C63.348 13.0933 67.1633 19.6247 68.78 27.708H54.036C53.1307 25.0567 51.805 22.761 50.059 20.821C48.313 18.8163 46.2113 17.2967 43.754 16.262C41.3613 15.1627 38.7423 14.613 35.897 14.613C30.1417 14.613 25.324 16.6823 21.444 20.821C17.6287 24.895 15.721 30.0037 15.721 36.147C15.721 42.2257 17.6287 47.302 21.444 51.376C25.324 55.45 30.1417 57.487 35.897 57.487C40.359 57.487 44.2067 56.226 47.44 53.704C50.6733 51.182 52.9043 47.7547 54.133 43.422H68.974C67.422 51.8287 63.6067 58.6187 57.528 63.792C51.514 68.9007 44.3037 71.455 35.897 71.455ZM136.242 70H118.297L94.338 36.826V70H79.594V2.1H94.338V33.431L116.551 2.1H133.72L110.537 34.595L136.242 70ZM155.957 2.1H201.062V70H186.415V15.777H168.761L165.56 45.168C164.655 53.5747 162.23 59.8473 158.285 63.986C154.405 68.1247 148.909 70.194 141.795 70.194H138.012V55.838H141.892C147.13 55.838 150.137 52.5077 150.913 45.847L155.957 2.1ZM261.674 70L256.921 57.099H229.858L225.202 70H209.682L236.26 2.1H250.131L277.582 70H261.674ZM243.341 20.045L234.514 44.295H252.265L243.341 20.045ZM341.774 56.323H348.37V82.028H334.79V70H294.632V82.028H281.052V56.323H286.484C287.454 55.547 288.262 54.7063 288.909 53.801C289.62 52.8957 290.267 51.473 290.849 49.533C291.495 47.5283 292.013 45.4913 292.401 43.422C292.789 41.288 293.209 38.0223 293.662 33.625C294.179 29.2277 294.632 24.8627 295.02 20.53C295.408 16.1327 295.925 9.98933 296.572 2.1H341.774V56.323ZM309.279 15.777C308.503 28.3223 307.565 37.5373 306.466 43.422C305.366 49.242 303.75 53.5423 301.616 56.323H327.127V15.777H309.279ZM386.653 22.664C391.373 22.664 395.577 23.6663 399.263 25.671C403.013 27.6757 405.923 30.4887 407.993 34.11C410.127 37.6667 411.194 41.7407 411.194 46.332C411.194 53.2513 408.898 58.942 404.307 63.404C399.715 67.8013 393.831 70 386.653 70H360.269V2.1H375.013V22.664H386.653ZM418.081 2.1H432.825V70H418.081V2.1ZM385.586 56.226C388.69 56.226 391.212 55.3207 393.152 53.51C395.156 51.6347 396.159 49.242 396.159 46.332C396.159 44.392 395.706 42.6783 394.801 41.191C393.96 39.7037 392.731 38.5397 391.115 37.699C389.498 36.8583 387.655 36.438 385.586 36.438H375.013V56.226H385.586ZM482.049 64.762L466.723 44.974V43.228L482.049 23.44H498.733L483.019 44.101L498.733 64.762H482.049ZM509.015 64.762L493.592 44.974V43.228L509.015 23.44H525.699L509.985 44.101L525.699 64.762H509.015ZM620.16 70H605.222L598.529 25.671L578.256 69.903H574.667L554.394 25.671L547.701 70H532.666L543.336 2.1H558.08L576.413 43.713L594.843 2.1H609.587L620.16 70ZM646.215 56.323H673.278V70H631.471V2.1H672.211V15.68H646.215V29.066H669.689V42.355H646.215V56.323ZM732.506 2.1V15.777H713.591V70H698.847V15.777H680.029V2.1H732.506ZM780.87 70L776.117 57.099H749.054L744.398 70H728.878L755.456 2.1H769.327L796.778 70H780.87ZM762.537 20.045L753.71 44.295H771.461L762.537 20.045ZM818.096 2.1H863.201V70H848.554V15.777H830.9L827.699 45.168C826.794 53.5747 824.369 59.8473 820.424 63.986C816.544 68.1247 811.047 70.194 803.934 70.194H800.151V55.838H804.031C809.269 55.838 812.276 52.5077 813.052 45.847L818.096 2.1ZM891.414 2.1H936.519V70H921.872V15.777H904.218L901.017 45.168C900.112 53.5747 897.687 59.8473 893.742 63.986C889.862 68.1247 884.366 70.194 877.252 70.194H873.469V55.838H877.349C882.587 55.838 885.594 52.5077 886.37 45.847L891.414 2.1ZM997.713 2.1H1008.38V70H993.639V29.163L962.211 70H952.026V2.1H966.77V42.452L997.713 2.1ZM1064.18 2.1H1078.83V70H1064.18V41.967H1038.67V70H1023.92V2.1H1038.67V28.29H1064.18V2.1ZM1135.24 34.207C1138.21 35.759 1140.51 37.9577 1142.12 40.803C1143.8 43.5837 1144.65 46.7847 1144.65 50.406C1144.65 55.838 1142.54 60.4617 1138.34 64.277C1134.2 68.0923 1129.19 70 1123.31 70H1094.4V2.1H1122.53C1128.35 2.1 1133.2 3.78133 1137.08 7.144C1140.96 10.442 1142.9 14.5807 1142.9 19.56C1142.9 22.47 1142.22 25.2183 1140.86 27.805C1139.5 30.3917 1137.63 32.5257 1135.24 34.207ZM1128.64 21.888C1128.64 20.7887 1128.45 19.8187 1128.06 18.978C1127.74 18.0727 1127.25 17.2967 1126.6 16.65C1125.96 16.0033 1125.15 15.5183 1124.18 15.195C1123.27 14.807 1122.24 14.613 1121.07 14.613H1108.85V29.066H1121.07C1123.4 29.066 1125.25 28.4193 1126.6 27.126C1127.96 25.768 1128.64 24.022 1128.64 21.888ZM1121.85 56.517C1124.24 56.517 1126.18 55.8057 1127.67 54.383C1129.16 52.9603 1129.9 51.1173 1129.9 48.854C1129.9 46.6553 1129.16 44.8447 1127.67 43.422C1126.18 41.9993 1124.24 41.288 1121.85 41.288H1108.85V56.517H1121.85ZM1171.38 56.323H1198.44V70H1156.64V2.1H1197.38V15.68H1171.38V29.066H1194.85V42.355H1171.38V56.323ZM1240.91 71.455C1234.38 71.455 1228.43 69.9353 1223.07 66.896C1217.7 63.792 1213.49 59.5563 1210.46 54.189C1207.42 48.757 1205.9 42.743 1205.9 36.147C1205.9 26.059 1209.23 17.62 1215.89 10.83C1222.61 4.04 1230.95 0.644997 1240.91 0.644997C1249.19 0.644997 1256.34 3.13466 1262.35 8.114C1268.36 13.0933 1272.18 19.6247 1273.8 27.708H1259.05C1258.15 25.0567 1256.82 22.761 1255.08 20.821C1253.33 18.8163 1251.23 17.2967 1248.77 16.262C1246.38 15.1627 1243.76 14.613 1240.91 14.613C1235.16 14.613 1230.34 16.6823 1226.46 20.821C1222.65 24.895 1220.74 30.0037 1220.74 36.147C1220.74 42.2257 1222.65 47.302 1226.46 51.376C1230.34 55.45 1235.16 57.487 1240.91 57.487C1245.38 57.487 1249.22 56.226 1252.46 53.704C1255.69 51.182 1257.92 47.7547 1259.15 43.422H1273.99C1272.44 51.8287 1268.62 58.6187 1262.54 63.792C1256.53 68.9007 1249.32 71.455 1240.91 71.455ZM1330.32 2.1V15.777H1311.41V70H1296.67V15.777H1277.85V2.1H1330.32ZM1347.42 64.762H1330.74L1346.45 44.101L1330.74 23.44H1347.42L1362.84 43.228V44.974L1347.42 64.762ZM1374.29 64.762H1357.61L1373.32 44.101L1357.61 23.44H1374.29L1389.71 43.228V44.974L1374.29 64.762Z" fill="#EDECF2"/>
<path d="M18.049 66.896L17.0478 68.6273L17.0556 68.6319L17.0635 68.6363L18.049 66.896ZM5.439 54.189L3.69361 55.1656L3.69866 55.1745L5.439 54.189ZM10.871 10.83L9.45002 9.42255L9.44325 9.42945L10.871 10.83ZM57.334 8.114L56.0585 9.65451L57.334 8.114ZM68.78 27.708V29.708H71.2196L70.7412 27.3158L68.78 27.708ZM54.036 27.708L52.1433 28.3543L52.6055 29.708H54.036V27.708ZM50.059 20.821L48.5508 22.1346L48.5615 22.1468L48.5724 22.1589L50.059 20.821ZM43.754 16.262L42.919 18.0793L42.9482 18.0928L42.9779 18.1053L43.754 16.262ZM21.444 20.821L19.9849 19.4531L19.9842 19.4539L21.444 20.821ZM21.444 51.376L19.9842 52.7431L19.9899 52.7492L19.9957 52.7553L21.444 51.376ZM54.133 43.422V41.422H52.6213L52.2089 42.8764L54.133 43.422ZM68.974 43.422L70.9408 43.7851L71.377 41.422H68.974V43.422ZM57.528 63.792L58.8228 65.3163L58.8242 65.3151L57.528 63.792ZM35.897 69.455C29.69 69.455 24.0834 68.0147 19.0345 65.1557L17.0635 68.6363C22.7492 71.856 29.0413 73.455 35.897 73.455V69.455ZM19.0503 65.1647C13.9896 62.238 10.0422 58.2591 7.17934 53.2035L3.69866 55.1745C6.91449 60.8535 11.3737 65.346 17.0478 68.6273L19.0503 65.1647ZM7.18437 53.2124C4.32202 48.0967 2.88 42.4222 2.88 36.147H-1.12C-1.12 43.0638 0.477316 49.4173 3.69363 55.1656L7.18437 53.2124ZM2.88 36.147C2.88 26.5476 6.02875 18.6223 12.2987 12.2305L9.44325 9.42945C2.39192 16.6177 -1.12 25.5704 -1.12 36.147H2.88ZM12.292 12.2374C18.6244 5.84409 26.447 2.645 35.897 2.645V-1.355C25.4296 -1.355 16.5683 2.2359 9.45004 9.42257L12.292 12.2374ZM35.897 2.645C43.7389 2.645 50.4258 4.99089 56.0585 9.65451L58.6095 6.57349C52.2142 1.27844 44.6098 -1.355 35.897 -1.355V2.645ZM56.0585 9.65451C61.6983 14.324 65.2868 20.4399 66.8188 28.1002L70.7412 27.3158C69.0399 18.8094 64.9977 11.8627 58.6095 6.57349L56.0585 9.65451ZM68.78 25.708H54.036V29.708H68.78V25.708ZM55.9287 27.0617C54.9426 24.1738 53.4852 21.6382 51.5456 19.4831L48.5724 22.1589C50.1248 23.8838 51.3188 25.9396 52.1433 28.3543L55.9287 27.0617ZM51.5672 19.5074C49.6201 17.272 47.2678 15.5714 44.5301 14.4187L42.9779 18.1053C45.1549 19.0219 47.0059 20.3607 48.5508 22.1346L51.5672 19.5074ZM44.589 14.4446C41.9138 13.2155 39.007 12.613 35.897 12.613V16.613C38.4777 16.613 40.8089 17.1098 42.919 18.0793L44.589 14.4446ZM35.897 12.613C29.598 12.613 24.2492 14.9046 19.9849 19.4531L22.9031 22.1889C26.3988 18.4601 30.6854 16.613 35.897 16.613V12.613ZM19.9842 19.4539C15.7856 23.9372 13.721 29.5515 13.721 36.147H17.721C17.721 30.4558 19.4718 25.8528 22.9038 22.1881L19.9842 19.4539ZM13.721 36.147C13.721 42.6841 15.7895 48.264 19.9842 52.7431L22.9038 50.0089C19.4678 46.34 17.721 41.7672 17.721 36.147H13.721ZM19.9957 52.7553C24.2629 57.2358 29.6085 59.487 35.897 59.487V55.487C30.6748 55.487 26.3851 53.6642 22.8923 49.9967L19.9957 52.7553ZM35.897 59.487C40.7629 59.487 45.0537 58.1018 48.6701 55.281L46.2099 52.127C43.3596 54.3502 39.9551 55.487 35.897 55.487V59.487ZM48.6701 55.281C52.2715 52.4719 54.7245 48.6668 56.0571 43.9676L52.2089 42.8764C51.0841 46.8425 49.0752 49.8921 46.2099 52.127L48.6701 55.281ZM54.133 45.422H68.974V41.422H54.133V45.422ZM67.0072 43.0589C65.5324 51.0478 61.9344 57.4156 56.2318 62.2689L58.8242 65.3151C65.2789 59.8217 69.3116 52.6095 70.9408 43.7851L67.0072 43.0589ZM56.2332 62.2677C50.6055 67.0482 43.8629 69.455 35.897 69.455V73.455C44.7445 73.455 52.4225 70.7531 58.8228 65.3163L56.2332 62.2677ZM136.242 70V72H140.166L137.86 68.825L136.242 70ZM118.297 70L116.676 71.171L117.274 72H118.297V70ZM94.338 36.826L95.9593 35.655L92.338 30.6408V36.826H94.338ZM94.338 70V72H96.338V70H94.338ZM79.594 70H77.594V72H79.594V70ZM79.594 2.09999V0.0999947H77.594V2.09999H79.594ZM94.338 2.09999H96.338V0.0999947H94.338V2.09999ZM94.338 33.431H92.338V39.71L95.9695 34.5877L94.338 33.431ZM116.551 2.09999V0.0999947H115.517L114.919 0.94326L116.551 2.09999ZM133.72 2.09999L135.348 3.26155L137.604 0.0999947H133.72V2.09999ZM110.537 34.595L108.909 33.4334L108.073 34.6052L108.919 35.77L110.537 34.595ZM136.242 68H118.297V72H136.242V68ZM119.918 68.829L95.9593 35.655L92.7166 37.997L116.676 71.171L119.918 68.829ZM92.338 36.826V70H96.338V36.826H92.338ZM94.338 68H79.594V72H94.338V68ZM81.594 70V2.09999H77.594V70H81.594ZM79.594 4.09999H94.338V0.0999947H79.594V4.09999ZM92.338 2.09999V33.431H96.338V2.09999H92.338ZM95.9695 34.5877L118.183 3.25673L114.919 0.94326L92.7064 32.2743L95.9695 34.5877ZM116.551 4.09999H133.72V0.0999947H116.551V4.09999ZM132.092 0.938438L108.909 33.4334L112.165 35.7566L135.348 3.26155L132.092 0.938438ZM108.919 35.77L134.624 71.175L137.86 68.825L112.155 33.42L108.919 35.77ZM155.957 2.09999V0.0999947H154.175L153.97 1.87091L155.957 2.09999ZM201.062 2.09999H203.062V0.0999947H201.062V2.09999ZM201.062 70V72H203.062V70H201.062ZM186.415 70H184.415V72H186.415V70ZM186.415 15.777H188.415V13.777H186.415V15.777ZM168.761 15.777V13.777H166.967L166.773 15.5605L168.761 15.777ZM165.56 45.168L163.572 44.9515L163.572 44.9539L165.56 45.168ZM158.285 63.986L156.837 62.6061L156.832 62.6121L156.826 62.6181L158.285 63.986ZM138.012 70.194H136.012V72.194H138.012V70.194ZM138.012 55.838V53.838H136.012V55.838H138.012ZM150.913 45.847L152.9 46.0784L152.9 46.0761L150.913 45.847ZM155.957 4.09999H201.062V0.0999947H155.957V4.09999ZM199.062 2.09999V70H203.062V2.09999H199.062ZM201.062 68H186.415V72H201.062V68ZM188.415 70V15.777H184.415V70H188.415ZM186.415 13.777H168.761V17.777H186.415V13.777ZM166.773 15.5605L163.572 44.9515L167.548 45.3845L170.749 15.9935L166.773 15.5605ZM163.572 44.9539C162.692 53.1238 160.364 58.9064 156.837 62.6061L159.733 65.3659C164.096 60.7883 166.618 54.0255 167.549 45.3821L163.572 44.9539ZM156.826 62.6181C153.416 66.256 148.505 68.194 141.795 68.194V72.194C149.312 72.194 155.395 69.9934 159.744 65.3539L156.826 62.6181ZM141.795 68.194H138.012V72.194H141.795V68.194ZM140.012 70.194V55.838H136.012V70.194H140.012ZM138.012 57.838H141.892V53.838H138.012V57.838ZM141.892 57.838C144.973 57.838 147.613 56.8371 149.56 54.6806C151.449 52.5886 152.486 49.6285 152.9 46.0784L148.927 45.6156C148.564 48.7262 147.71 50.7616 146.592 51.9999C145.532 53.1737 144.049 53.838 141.892 53.838V57.838ZM152.9 46.0761L157.944 2.32908L153.97 1.87091L148.926 45.6179L152.9 46.0761ZM261.674 70L259.797 70.6914L260.279 72H261.674V70ZM256.921 57.099L258.797 56.4076L258.315 55.099H256.921V57.099ZM229.858 57.099V55.099H228.453L227.976 56.4201L229.858 57.099ZM225.202 70V72H226.606L227.083 70.6789L225.202 70ZM209.682 70L207.819 69.271L206.751 72H209.682V70ZM236.26 2.09999V0.0999947H234.895L234.397 1.371L236.26 2.09999ZM250.131 2.09999L251.985 1.35037L251.479 0.0999947H250.131V2.09999ZM277.582 70V72H280.547L279.436 69.2504L277.582 70ZM243.341 20.045L245.218 19.3543L243.33 14.226L241.461 19.3609L243.341 20.045ZM234.514 44.295L232.634 43.6109L231.657 46.295H234.514V44.295ZM252.265 44.295V46.295H255.132L254.142 43.6043L252.265 44.295ZM263.55 69.3086L258.797 56.4076L255.044 57.7904L259.797 70.6914L263.55 69.3086ZM256.921 55.099H229.858V59.099H256.921V55.099ZM227.976 56.4201L223.32 69.3211L227.083 70.6789L231.739 57.7779L227.976 56.4201ZM225.202 68H209.682V72H225.202V68ZM211.544 70.729L238.122 2.82899L234.397 1.371L207.819 69.271L211.544 70.729ZM236.26 4.09999H250.131V0.0999947H236.26V4.09999ZM248.276 2.84962L275.727 70.7496L279.436 69.2504L251.985 1.35037L248.276 2.84962ZM277.582 68H261.674V72H277.582V68ZM241.461 19.3609L232.634 43.6109L236.393 44.9791L245.22 20.7291L241.461 19.3609ZM234.514 46.295H252.265V42.295H234.514V46.295ZM254.142 43.6043L245.218 19.3543L241.464 20.7357L250.388 44.9857L254.142 43.6043ZM341.774 56.323H339.774V58.323H341.774V56.323ZM348.37 56.323H350.37V54.323H348.37V56.323ZM348.37 82.028V84.028H350.37V82.028H348.37ZM334.79 82.028H332.79V84.028H334.79V82.028ZM334.79 70H336.79V68H334.79V70ZM294.632 70V68H292.632V70H294.632ZM294.632 82.028V84.028H296.632V82.028H294.632ZM281.052 82.028H279.052V84.028H281.052V82.028ZM281.052 56.323V54.323H279.052V56.323H281.052ZM286.484 56.323V58.323H287.185L287.733 57.8847L286.484 56.323ZM288.909 53.801L287.336 52.5654L287.308 52.6013L287.281 52.6385L288.909 53.801ZM290.849 49.533L288.945 48.919L288.939 48.9386L288.933 48.9583L290.849 49.533ZM292.401 43.422L294.366 43.7906L294.368 43.7798L292.401 43.422ZM293.662 33.625L291.675 33.3913L291.674 33.4057L291.672 33.4202L293.662 33.625ZM295.02 20.53L297.012 20.7084L297.012 20.7058L295.02 20.53ZM296.572 2.09999V0.0999947H294.729L294.578 1.93661L296.572 2.09999ZM341.774 2.09999H343.774V0.0999947H341.774V2.09999ZM309.279 15.777V13.777H307.398L307.282 15.6535L309.279 15.777ZM306.466 43.422L308.431 43.7932L308.432 43.7893L306.466 43.422ZM301.616 56.323L300.029 55.1054L297.56 58.323H301.616V56.323ZM327.127 56.323V58.323H329.127V56.323H327.127ZM327.127 15.777H329.127V13.777H327.127V15.777ZM341.774 58.323H348.37V54.323H341.774V58.323ZM346.37 56.323V82.028H350.37V56.323H346.37ZM348.37 80.028H334.79V84.028H348.37V80.028ZM336.79 82.028V70H332.79V82.028H336.79ZM334.79 68H294.632V72H334.79V68ZM292.632 70V82.028H296.632V70H292.632ZM294.632 80.028H281.052V84.028H294.632V80.028ZM283.052 82.028V56.323H279.052V82.028H283.052ZM281.052 58.323H286.484V54.323H281.052V58.323ZM287.733 57.8847C288.83 57.0069 289.771 56.0349 290.536 54.9635L287.281 52.6385C286.753 53.3777 286.077 54.0871 285.234 54.7613L287.733 57.8847ZM290.481 55.0366C291.423 53.8386 292.156 52.1336 292.764 50.1077L288.933 48.9583C288.377 50.8124 287.817 51.9528 287.336 52.5654L290.481 55.0366ZM292.752 50.147C293.425 48.062 293.963 45.943 294.366 43.7906L290.435 43.0534C290.062 45.0397 289.566 46.9947 288.945 48.919L292.752 50.147ZM294.368 43.7798C294.771 41.5663 295.197 38.2373 295.651 33.8298L291.672 33.4202C291.221 37.8073 290.806 41.0097 290.433 43.0642L294.368 43.7798ZM295.648 33.8587C296.167 29.4433 296.622 25.0598 297.012 20.7084L293.028 20.3516C292.641 24.6655 292.191 29.0121 291.675 33.3913L295.648 33.8587ZM297.012 20.7058C297.4 16.3023 297.918 10.1542 298.565 2.26338L294.578 1.93661C293.932 9.82449 293.415 15.963 293.027 20.3542L297.012 20.7058ZM296.572 4.09999H341.774V0.0999947H296.572V4.09999ZM339.774 2.09999V56.323H343.774V2.09999H339.774ZM307.282 15.6535C306.507 28.1856 305.575 37.2978 304.5 43.0547L308.432 43.7893C309.555 37.7769 310.498 28.4591 311.275 15.9005L307.282 15.6535ZM304.5 43.0508C303.424 48.7482 301.883 52.6889 300.029 55.1054L303.202 57.5406C305.616 54.3957 307.308 49.7358 308.431 43.7932L304.5 43.0508ZM301.616 58.323H327.127V54.323H301.616V58.323ZM329.127 56.323V15.777H325.127V56.323H329.127ZM327.127 13.777H309.279V17.777H327.127V13.777ZM399.263 25.671L398.307 27.428L398.314 27.4314L398.32 27.4349L399.263 25.671ZM407.993 34.11L406.256 35.1023L406.267 35.1208L406.278 35.139L407.993 34.11ZM404.307 63.404L405.69 64.8484L405.695 64.8434L405.701 64.8383L404.307 63.404ZM360.269 70H358.269V72H360.269V70ZM360.269 2.09999V0.0999947H358.269V2.09999H360.269ZM375.013 2.09999H377.013V0.0999947H375.013V2.09999ZM375.013 22.664H373.013V24.664H375.013V22.664ZM418.081 2.09999V0.0999947H416.081V2.09999H418.081ZM432.825 2.09999H434.825V0.0999947H432.825V2.09999ZM432.825 70V72H434.825V70H432.825ZM418.081 70H416.081V72H418.081V70ZM393.152 53.51L394.516 54.9721L394.518 54.9705L393.152 53.51ZM394.801 41.191L393.06 42.1751L393.076 42.2033L393.092 42.2309L394.801 41.191ZM391.115 37.699L390.192 39.4734L391.115 37.699ZM375.013 36.438V34.438H373.013V36.438H375.013ZM375.013 56.226H373.013V58.226H375.013V56.226ZM386.653 24.664C391.082 24.664 394.95 25.6019 398.307 27.428L400.218 23.914C396.204 21.7308 391.665 20.664 386.653 20.664V24.664ZM398.32 27.4349C401.746 29.2658 404.378 31.8144 406.256 35.1023L409.729 33.1177C407.469 29.1629 404.281 26.0855 400.206 23.9071L398.32 27.4349ZM406.278 35.139C408.206 38.3523 409.194 42.0633 409.194 46.332H413.194C413.194 41.4181 412.048 36.981 409.708 33.081L406.278 35.139ZM409.194 46.332C409.194 52.7594 407.083 57.9168 402.913 61.9697L405.701 64.8383C410.713 59.9672 413.194 53.7433 413.194 46.332H409.194ZM402.923 61.9596C398.753 65.9535 393.387 68 386.653 68V72C394.274 72 400.678 69.6492 405.69 64.8484L402.923 61.9596ZM386.653 68H360.269V72H386.653V68ZM362.269 70V2.09999H358.269V70H362.269ZM360.269 4.09999H375.013V0.0999947H360.269V4.09999ZM373.013 2.09999V22.664H377.013V2.09999H373.013ZM375.013 24.664H386.653V20.664H375.013V24.664ZM418.081 4.09999H432.825V0.0999947H418.081V4.09999ZM430.825 2.09999V70H434.825V2.09999H430.825ZM432.825 68H418.081V72H432.825V68ZM420.081 70V2.09999H416.081V70H420.081ZM385.586 58.226C389.105 58.226 392.144 57.1863 394.516 54.9721L391.787 52.0479C390.28 53.455 388.275 54.226 385.586 54.226V58.226ZM394.518 54.9705C396.953 52.6923 398.159 49.7583 398.159 46.332H394.159C394.159 48.7257 393.359 50.577 391.785 52.0495L394.518 54.9705ZM398.159 46.332C398.159 44.0683 397.626 41.9866 396.509 40.1511L393.092 42.2309C393.786 43.37 394.159 44.7157 394.159 46.332H398.159ZM396.542 40.2069C395.498 38.3597 393.974 36.9314 392.038 35.9246L390.192 39.4734C391.489 40.1479 392.422 41.0477 393.06 42.1751L396.542 40.2069ZM392.038 35.9246C390.099 34.9167 387.932 34.438 385.586 34.438V38.438C387.378 38.438 388.897 38.8 390.192 39.4734L392.038 35.9246ZM385.586 34.438H375.013V38.438H385.586V34.438ZM373.013 36.438V56.226H377.013V36.438H373.013ZM375.013 58.226H385.586V54.226H375.013V58.226ZM482.048 64.762L480.467 65.9867L481.068 66.762H482.048V64.762ZM466.723 44.974H464.723V45.6579L465.141 46.1987L466.723 44.974ZM466.723 43.228L465.141 42.0033L464.723 42.5441V43.228H466.723ZM482.048 23.44V21.44H481.068L480.467 22.2153L482.048 23.44ZM498.733 23.44L500.324 24.6507L502.766 21.44H498.733V23.44ZM483.018 44.101L481.427 42.8903L480.506 44.101L481.427 45.3117L483.018 44.101ZM498.733 64.762V66.762H502.766L500.324 63.5513L498.733 64.762ZM509.015 64.762L507.437 65.9915L508.038 66.762H509.015V64.762ZM493.591 44.974H491.591V45.6614L492.014 46.2035L493.591 44.974ZM493.591 43.228L492.014 41.9985L491.591 42.5406V43.228H493.591ZM509.015 23.44V21.44H508.038L507.437 22.2105L509.015 23.44ZM525.698 23.44L527.29 24.6507L529.732 21.44H525.698V23.44ZM509.984 44.101L508.393 42.8903L507.472 44.101L508.393 45.3117L509.984 44.101ZM525.698 64.762V66.762H529.732L527.29 63.5513L525.698 64.762ZM483.63 63.5373L468.304 43.7493L465.141 46.1987L480.467 65.9867L483.63 63.5373ZM468.723 44.974V43.228H464.723V44.974H468.723ZM468.304 44.4527L483.63 24.6647L480.467 22.2153L465.141 42.0033L468.304 44.4527ZM482.048 25.44H498.733V21.44H482.048V25.44ZM497.141 22.2293L481.427 42.8903L484.61 45.3117L500.324 24.6507L497.141 22.2293ZM481.427 45.3117L497.141 65.9727L500.324 63.5513L484.61 42.8903L481.427 45.3117ZM498.733 62.762H482.048V66.762H498.733V62.762ZM510.592 63.5325L495.169 43.7445L492.014 46.2035L507.437 65.9915L510.592 63.5325ZM495.591 44.974V43.228H491.591V44.974H495.591ZM495.169 44.4575L510.592 24.6695L507.437 22.2105L492.014 41.9985L495.169 44.4575ZM509.015 25.44H525.698V21.44H509.015V25.44ZM524.107 22.2293L508.393 42.8903L511.576 45.3117L527.29 24.6507L524.107 22.2293ZM508.393 45.3117L524.107 65.9727L527.29 63.5513L511.576 42.8903L508.393 45.3117ZM525.698 62.762H509.015V66.762H525.698V62.762ZM620.16 70V72H622.495L622.136 69.6923L620.16 70ZM605.222 70L603.244 70.2986L603.501 72H605.222V70ZM598.529 25.671L600.506 25.3724L599.505 18.7407L596.711 24.8377L598.529 25.671ZM578.256 69.903V71.903H579.539L580.074 70.7363L578.256 69.903ZM574.667 69.903L572.849 70.7363L573.383 71.903H574.667V69.903ZM554.394 25.671L556.212 24.8377L553.418 18.7407L552.416 25.3724L554.394 25.671ZM547.701 70V72H549.422L549.678 70.2986L547.701 70ZM532.666 70L530.69 69.6895L530.327 72H532.666V70ZM543.336 2.09999V0.0999947H541.626L541.36 1.78952L543.336 2.09999ZM558.08 2.09999L559.91 1.29366L559.384 0.0999947H558.08V2.09999ZM576.413 43.713L574.583 44.5193L576.408 48.6628L578.242 44.5229L576.413 43.713ZM594.843 2.09999V0.0999947H593.541L593.014 1.29009L594.843 2.09999ZM609.587 2.09999L611.563 1.79227L611.299 0.0999947H609.587V2.09999ZM620.16 68H605.222V72H620.16V68ZM607.199 69.7014L600.506 25.3724L596.551 25.9696L603.244 70.2986L607.199 69.7014ZM596.711 24.8377L576.438 69.0697L580.074 70.7363L600.347 26.5043L596.711 24.8377ZM578.256 67.903H574.667V71.903H578.256V67.903ZM576.485 69.0697L556.212 24.8377L552.576 26.5043L572.849 70.7363L576.485 69.0697ZM552.416 25.3724L545.723 69.7014L549.678 70.2986L556.371 25.9696L552.416 25.3724ZM547.701 68H532.666V72H547.701V68ZM534.642 70.3105L545.312 2.41047L541.36 1.78952L530.69 69.6895L534.642 70.3105ZM543.336 4.09999H558.08V0.0999947H543.336V4.09999ZM556.25 2.90633L574.583 44.5193L578.243 42.9067L559.91 1.29366L556.25 2.90633ZM578.242 44.5229L596.672 2.9099L593.014 1.29009L574.584 42.9031L578.242 44.5229ZM594.843 4.09999H609.587V0.0999947H594.843V4.09999ZM607.611 2.40771L618.184 70.3077L622.136 69.6923L611.563 1.79227L607.611 2.40771ZM646.215 56.323H644.215V58.323H646.215V56.323ZM673.278 56.323H675.278V54.323H673.278V56.323ZM673.278 70V72H675.278V70H673.278ZM631.471 70H629.471V72H631.471V70ZM631.471 2.09999V0.0999947H629.471V2.09999H631.471ZM672.211 2.09999H674.211V0.0999947H672.211V2.09999ZM672.211 15.68V17.68H674.211V15.68H672.211ZM646.215 15.68V13.68H644.215V15.68H646.215ZM646.215 29.066H644.215V31.066H646.215V29.066ZM669.689 29.066H671.689V27.066H669.689V29.066ZM669.689 42.355V44.355H671.689V42.355H669.689ZM646.215 42.355V40.355H644.215V42.355H646.215ZM646.215 58.323H673.278V54.323H646.215V58.323ZM671.278 56.323V70H675.278V56.323H671.278ZM673.278 68H631.471V72H673.278V68ZM633.471 70V2.09999H629.471V70H633.471ZM631.471 4.09999H672.211V0.0999947H631.471V4.09999ZM670.211 2.09999V15.68H674.211V2.09999H670.211ZM672.211 13.68H646.215V17.68H672.211V13.68ZM644.215 15.68V29.066H648.215V15.68H644.215ZM646.215 31.066H669.689V27.066H646.215V31.066ZM667.689 29.066V42.355H671.689V29.066H667.689ZM669.689 40.355H646.215V44.355H669.689V40.355ZM644.215 42.355V56.323H648.215V42.355H644.215ZM732.506 2.09999H734.506V0.0999947H732.506V2.09999ZM732.506 15.777V17.777H734.506V15.777H732.506ZM713.591 15.777V13.777H711.591V15.777H713.591ZM713.591 70V72H715.591V70H713.591ZM698.847 70H696.847V72H698.847V70ZM698.847 15.777H700.847V13.777H698.847V15.777ZM680.029 15.777H678.029V17.777H680.029V15.777ZM680.029 2.09999V0.0999947H678.029V2.09999H680.029ZM730.506 2.09999V15.777H734.506V2.09999H730.506ZM732.506 13.777H713.591V17.777H732.506V13.777ZM711.591 15.777V70H715.591V15.777H711.591ZM713.591 68H698.847V72H713.591V68ZM700.847 70V15.777H696.847V70H700.847ZM698.847 13.777H680.029V17.777H698.847V13.777ZM682.029 15.777V2.09999H678.029V15.777H682.029ZM680.029 4.09999H732.506V0.0999947H680.029V4.09999ZM780.87 70L778.993 70.6914L779.475 72H780.87V70ZM776.117 57.099L777.994 56.4076L777.511 55.099H776.117V57.099ZM749.054 57.099V55.099H747.649L747.173 56.4201L749.054 57.099ZM744.398 70V72H745.802L746.279 70.6789L744.398 70ZM728.878 70L727.016 69.271L725.947 72H728.878V70ZM755.456 2.09999V0.0999947H754.091L753.594 1.371L755.456 2.09999ZM769.327 2.09999L771.181 1.35037L770.676 0.0999947H769.327V2.09999ZM796.778 70V72H799.744L798.632 69.2504L796.778 70ZM762.537 20.045L764.414 19.3543L762.527 14.226L760.658 19.3609L762.537 20.045ZM753.71 44.295L751.831 43.6109L750.854 46.295H753.71V44.295ZM771.461 44.295V46.295H774.328L773.338 43.6043L771.461 44.295ZM782.747 69.3086L777.994 56.4076L774.24 57.7904L778.993 70.6914L782.747 69.3086ZM776.117 55.099H749.054V59.099H776.117V55.099ZM747.173 56.4201L742.517 69.3211L746.279 70.6789L750.935 57.7779L747.173 56.4201ZM744.398 68H728.878V72H744.398V68ZM730.74 70.729L757.318 2.82899L753.594 1.371L727.016 69.271L730.74 70.729ZM755.456 4.09999H769.327V0.0999947H755.456V4.09999ZM767.473 2.84962L794.924 70.7496L798.632 69.2504L771.181 1.35037L767.473 2.84962ZM796.778 68H780.87V72H796.778V68ZM760.658 19.3609L751.831 43.6109L755.589 44.9791L764.416 20.7291L760.658 19.3609ZM753.71 46.295H771.461V42.295H753.71V46.295ZM773.338 43.6043L764.414 19.3543L760.66 20.7357L769.584 44.9857L773.338 43.6043ZM818.096 2.09999V0.0999947H816.313L816.109 1.87091L818.096 2.09999ZM863.201 2.09999H865.201V0.0999947H863.201V2.09999ZM863.201 70V72H865.201V70H863.201ZM848.554 70H846.554V72H848.554V70ZM848.554 15.777H850.554V13.777H848.554V15.777ZM830.9 15.777V13.777H829.106L828.912 15.5605L830.9 15.777ZM827.699 45.168L825.711 44.9515L825.71 44.9539L827.699 45.168ZM820.424 63.986L818.976 62.6061L818.97 62.6121L818.965 62.6181L820.424 63.986ZM800.151 70.194H798.151V72.194H800.151V70.194ZM800.151 55.838V53.838H798.151V55.838H800.151ZM813.052 45.847L815.038 46.0784L815.039 46.0761L813.052 45.847ZM818.096 4.09999H863.201V0.0999947H818.096V4.09999ZM861.201 2.09999V70H865.201V2.09999H861.201ZM863.201 68H848.554V72H863.201V68ZM850.554 70V15.777H846.554V70H850.554ZM848.554 13.777H830.9V17.777H848.554V13.777ZM828.912 15.5605L825.711 44.9515L829.687 45.3845L832.888 15.9935L828.912 15.5605ZM825.71 44.9539C824.831 53.1238 822.502 58.9064 818.976 62.6061L821.872 65.3659C826.235 60.7883 828.757 54.0255 829.687 45.3821L825.71 44.9539ZM818.965 62.6181C815.554 66.256 810.644 68.194 803.934 68.194V72.194C811.45 72.194 817.533 69.9934 821.883 65.3539L818.965 62.6181ZM803.934 68.194H800.151V72.194H803.934V68.194ZM802.151 70.194V55.838H798.151V70.194H802.151ZM800.151 57.838H804.031V53.838H800.151V57.838ZM804.031 57.838C807.112 57.838 809.752 56.8371 811.699 54.6806C813.588 52.5886 814.625 49.6285 815.038 46.0784L811.065 45.6156C810.703 48.7262 809.848 50.7616 808.73 51.9999C807.67 53.1737 806.188 53.838 804.031 53.838V57.838ZM815.039 46.0761L820.083 2.32908L816.109 1.87091L811.065 45.6179L815.039 46.0761ZM891.414 2.09999V0.0999947H889.632L889.427 1.87091L891.414 2.09999ZM936.519 2.09999H938.519V0.0999947H936.519V2.09999ZM936.519 70V72H938.519V70H936.519ZM921.872 70H919.872V72H921.872V70ZM921.872 15.777H923.872V13.777H921.872V15.777ZM904.218 15.777V13.777H902.424L902.23 15.5605L904.218 15.777ZM901.017 45.168L899.029 44.9515L899.029 44.9539L901.017 45.168ZM893.742 63.986L892.295 62.6061L892.289 62.6121L892.283 62.6181L893.742 63.986ZM873.469 70.194H871.469V72.194H873.469V70.194ZM873.469 55.838V53.838H871.469V55.838H873.469ZM886.37 45.847L888.357 46.0784L888.357 46.0761L886.37 45.847ZM891.414 4.09999H936.519V0.0999947H891.414V4.09999ZM934.519 2.09999V70H938.519V2.09999H934.519ZM936.519 68H921.872V72H936.519V68ZM923.872 70V15.777H919.872V70H923.872ZM921.872 13.777H904.218V17.777H921.872V13.777ZM902.23 15.5605L899.029 44.9515L903.005 45.3845L906.206 15.9935L902.23 15.5605ZM899.029 44.9539C898.149 53.1238 895.821 58.9064 892.295 62.6061L895.19 65.3659C899.553 60.7883 902.075 54.0255 903.006 45.3821L899.029 44.9539ZM892.283 62.6181C888.873 66.256 883.962 68.194 877.252 68.194V72.194C884.769 72.194 890.852 69.9934 895.201 65.3539L892.283 62.6181ZM877.252 68.194H873.469V72.194H877.252V68.194ZM875.469 70.194V55.838H871.469V70.194H875.469ZM873.469 57.838H877.349V53.838H873.469V57.838ZM877.349 57.838C880.43 57.838 883.07 56.8371 885.017 54.6806C886.906 52.5886 887.943 49.6285 888.357 46.0784L884.384 45.6156C884.021 48.7262 883.167 50.7616 882.049 51.9999C880.989 53.1737 879.506 53.838 877.349 53.838V57.838ZM888.357 46.0761L893.401 2.32908L889.427 1.87091L884.383 45.6179L888.357 46.0761ZM997.713 2.09999V0.0999947H996.726L996.126 0.882973L997.713 2.09999ZM1008.38 2.09999H1010.38V0.0999947H1008.38V2.09999ZM1008.38 70V72H1010.38V70H1008.38ZM993.639 70H991.639V72H993.639V70ZM993.639 29.163H995.639V23.285L992.054 27.9432L993.639 29.163ZM962.211 70V72H963.195L963.796 71.2198L962.211 70ZM952.026 70H950.026V72H952.026V70ZM952.026 2.09999V0.0999947H950.026V2.09999H952.026ZM966.77 2.09999H968.77V0.0999947H966.77V2.09999ZM966.77 42.452H964.77V48.3469L968.357 43.669L966.77 42.452ZM997.713 4.09999H1008.38V0.0999947H997.713V4.09999ZM1006.38 2.09999V70H1010.38V2.09999H1006.38ZM1008.38 68H993.639V72H1008.38V68ZM995.639 70V29.163H991.639V70H995.639ZM992.054 27.9432L960.626 68.7802L963.796 71.2198L995.224 30.3828L992.054 27.9432ZM962.211 68H952.026V72H962.211V68ZM954.026 70V2.09999H950.026V70H954.026ZM952.026 4.09999H966.77V0.0999947H952.026V4.09999ZM964.77 2.09999V42.452H968.77V2.09999H964.77ZM968.357 43.669L999.3 3.31702L996.126 0.882973L965.183 41.235L968.357 43.669ZM1064.18 2.09999V0.0999947H1062.18V2.09999H1064.18ZM1078.83 2.09999H1080.83V0.0999947H1078.83V2.09999ZM1078.83 70V72H1080.83V70H1078.83ZM1064.18 70H1062.18V72H1064.18V70ZM1064.18 41.967H1066.18V39.967H1064.18V41.967ZM1038.67 41.967V39.967H1036.67V41.967H1038.67ZM1038.67 70V72H1040.67V70H1038.67ZM1023.92 70H1021.92V72H1023.92V70ZM1023.92 2.09999V0.0999947H1021.92V2.09999H1023.92ZM1038.67 2.09999H1040.67V0.0999947H1038.67V2.09999ZM1038.67 28.29H1036.67V30.29H1038.67V28.29ZM1064.18 28.29V30.29H1066.18V28.29H1064.18ZM1064.18 4.09999H1078.83V0.0999947H1064.18V4.09999ZM1076.83 2.09999V70H1080.83V2.09999H1076.83ZM1078.83 68H1064.18V72H1078.83V68ZM1066.18 70V41.967H1062.18V70H1066.18ZM1064.18 39.967H1038.67V43.967H1064.18V39.967ZM1036.67 41.967V70H1040.67V41.967H1036.67ZM1038.67 68H1023.92V72H1038.67V68ZM1025.92 70V2.09999H1021.92V70H1025.92ZM1023.92 4.09999H1038.67V0.0999947H1023.92V4.09999ZM1036.67 2.09999V28.29H1040.67V2.09999H1036.67ZM1038.67 30.29H1064.18V26.29H1038.67V30.29ZM1066.18 28.29V2.09999H1062.18V28.29H1066.18ZM1135.24 34.207L1134.09 32.5706L1131.4 34.46L1134.31 35.9802L1135.24 34.207ZM1142.12 40.803L1140.38 41.791L1140.4 41.8146L1140.41 41.8378L1142.12 40.803ZM1138.34 64.277L1137 62.7961L1136.99 62.8013L1136.99 62.8065L1138.34 64.277ZM1094.4 70H1092.4V72H1094.4V70ZM1094.4 2.09999V0.0999947H1092.4V2.09999H1094.4ZM1137.08 7.144L1135.77 8.65538L1135.78 8.66166L1135.78 8.66788L1137.08 7.144ZM1140.86 27.805L1139.09 26.8753V26.8753L1140.86 27.805ZM1128.06 18.978L1126.18 19.6507L1126.21 19.7349L1126.24 19.8161L1128.06 18.978ZM1126.6 16.65L1128.02 15.2358V15.2358L1126.6 16.65ZM1124.18 15.195L1123.39 17.0333L1123.47 17.0661L1123.55 17.0924L1124.18 15.195ZM1108.85 14.613V12.613H1106.85V14.613H1108.85ZM1108.85 29.066H1106.85V31.066H1108.85V29.066ZM1126.6 27.126L1127.98 28.5743L1128 28.5575L1128.02 28.5402L1126.6 27.126ZM1127.67 54.383L1129.05 55.8283L1127.67 54.383ZM1127.67 43.422L1129.05 41.9767L1127.67 43.422ZM1108.85 41.288V39.288H1106.85V41.288H1108.85ZM1108.85 56.517H1106.85V58.517H1108.85V56.517ZM1134.31 35.9802C1136.95 37.3589 1138.96 39.2891 1140.38 41.791L1143.86 39.815C1142.05 36.6263 1139.47 34.1591 1136.16 32.4338L1134.31 35.9802ZM1140.41 41.8378C1141.88 44.2715 1142.65 47.1066 1142.65 50.406H1146.65C1146.65 46.4628 1145.73 42.8958 1143.84 39.7682L1140.41 41.8378ZM1142.65 50.406C1142.65 55.2458 1140.8 59.3405 1137 62.7961L1139.68 65.7579C1144.28 61.5828 1146.65 56.4302 1146.65 50.406H1142.65ZM1136.99 62.8065C1133.23 66.2647 1128.71 68 1123.31 68V72C1129.67 72 1135.17 69.9199 1139.7 65.7475L1136.99 62.8065ZM1123.31 68H1094.4V72H1123.31V68ZM1096.4 70V2.09999H1092.4V70H1096.4ZM1094.4 4.09999H1122.53V0.0999947H1094.4V4.09999ZM1122.53 4.09999C1127.94 4.09999 1132.3 5.65 1135.77 8.65538L1138.39 5.63262C1134.1 1.91266 1128.76 0.0999947 1122.53 0.0999947V4.09999ZM1135.78 8.66788C1139.23 11.5958 1140.9 15.1826 1140.9 19.56H1144.9C1144.9 13.9788 1142.69 9.2882 1138.38 5.62012L1135.78 8.66788ZM1140.9 19.56C1140.9 22.1448 1140.3 24.5742 1139.09 26.8753L1142.63 28.7347C1144.14 25.8624 1144.9 22.7952 1144.9 19.56H1140.9ZM1139.09 26.8753C1137.88 29.1801 1136.22 31.0719 1134.09 32.5706L1136.39 35.8434C1139.04 33.9794 1141.13 31.6032 1142.63 28.7347L1139.09 26.8753ZM1130.64 21.888C1130.64 20.5528 1130.4 19.2879 1129.87 18.1399L1126.24 19.8161C1126.49 20.3494 1126.64 21.0245 1126.64 21.888H1130.64ZM1129.94 18.3053C1129.52 17.1357 1128.88 16.1026 1128.02 15.2358L1125.19 18.0642C1125.62 18.4908 1125.95 19.0096 1126.18 19.6507L1129.94 18.3053ZM1128.02 15.2358C1127.13 14.3448 1126.04 13.7074 1124.81 13.2976L1123.55 17.0924C1124.26 17.3292 1124.79 17.6619 1125.19 18.0642L1128.02 15.2358ZM1124.97 13.3567C1123.77 12.8444 1122.46 12.613 1121.07 12.613V16.613C1122.02 16.613 1122.78 16.7696 1123.39 17.0333L1124.97 13.3567ZM1121.07 12.613H1108.85V16.613H1121.07V12.613ZM1106.85 14.613V29.066H1110.85V14.613H1106.85ZM1108.85 31.066H1121.07V27.066H1108.85V31.066ZM1121.07 31.066C1123.79 31.066 1126.17 30.3024 1127.98 28.5743L1125.22 25.6777C1124.32 26.5362 1123.02 27.066 1121.07 27.066V31.066ZM1128.02 28.5402C1129.79 26.7638 1130.64 24.4878 1130.64 21.888H1126.64C1126.64 23.5562 1126.13 24.7722 1125.19 25.7118L1128.02 28.5402ZM1121.85 58.517C1124.67 58.517 1127.13 57.6646 1129.05 55.8283L1126.29 52.9377C1125.23 53.9468 1123.82 54.517 1121.85 54.517V58.517ZM1129.05 55.8283C1130.98 53.9886 1131.9 51.603 1131.9 48.854H1127.9C1127.9 50.6317 1127.34 51.932 1126.29 52.9377L1129.05 55.8283ZM1131.9 48.854C1131.9 46.151 1130.96 43.8045 1129.05 41.9767L1126.29 44.8673C1127.35 45.8848 1127.9 47.1596 1127.9 48.854H1131.9ZM1129.05 41.9767C1127.13 40.1404 1124.67 39.288 1121.85 39.288V43.288C1123.82 43.288 1125.23 43.8582 1126.29 44.8673L1129.05 41.9767ZM1121.85 39.288H1108.85V43.288H1121.85V39.288ZM1106.85 41.288V56.517H1110.85V41.288H1106.85ZM1108.85 58.517H1121.85V54.517H1108.85V58.517ZM1171.38 56.323H1169.38V58.323H1171.38V56.323ZM1198.44 56.323H1200.44V54.323H1198.44V56.323ZM1198.44 70V72H1200.44V70H1198.44ZM1156.64 70H1154.64V72H1156.64V70ZM1156.64 2.09999V0.0999947H1154.64V2.09999H1156.64ZM1197.38 2.09999H1199.38V0.0999947H1197.38V2.09999ZM1197.38 15.68V17.68H1199.38V15.68H1197.38ZM1171.38 15.68V13.68H1169.38V15.68H1171.38ZM1171.38 29.066H1169.38V31.066H1171.38V29.066ZM1194.85 29.066H1196.85V27.066H1194.85V29.066ZM1194.85 42.355V44.355H1196.85V42.355H1194.85ZM1171.38 42.355V40.355H1169.38V42.355H1171.38ZM1171.38 58.323H1198.44V54.323H1171.38V58.323ZM1196.44 56.323V70H1200.44V56.323H1196.44ZM1198.44 68H1156.64V72H1198.44V68ZM1158.64 70V2.09999H1154.64V70H1158.64ZM1156.64 4.09999H1197.38V0.0999947H1156.64V4.09999ZM1195.38 2.09999V15.68H1199.38V2.09999H1195.38ZM1197.38 13.68H1171.38V17.68H1197.38V13.68ZM1169.38 15.68V29.066H1173.38V15.68H1169.38ZM1171.38 31.066H1194.85V27.066H1171.38V31.066ZM1192.85 29.066V42.355H1196.85V29.066H1192.85ZM1194.85 40.355H1171.38V44.355H1194.85V40.355ZM1169.38 42.355V56.323H1173.38V42.355H1169.38ZM1223.07 66.896L1222.06 68.6273L1222.07 68.6319L1222.08 68.6363L1223.07 66.896ZM1210.46 54.189L1208.71 55.1656L1208.72 55.1745L1210.46 54.189ZM1215.89 10.83L1214.47 9.42255L1214.46 9.42945L1215.89 10.83ZM1262.35 8.114L1261.08 9.65451L1262.35 8.114ZM1273.8 27.708V29.708H1276.24L1275.76 27.3158L1273.8 27.708ZM1259.05 27.708L1257.16 28.3543L1257.62 29.708H1259.05V27.708ZM1255.08 20.821L1253.57 22.1346L1253.58 22.1468L1253.59 22.1589L1255.08 20.821ZM1248.77 16.262L1247.94 18.0793L1247.96 18.0928L1247.99 18.1053L1248.77 16.262ZM1226.46 20.821L1225 19.4531L1225 19.4539L1226.46 20.821ZM1226.46 51.376L1225 52.7431L1225.01 52.7492L1225.01 52.7553L1226.46 51.376ZM1259.15 43.422V41.422H1257.64L1257.23 42.8764L1259.15 43.422ZM1273.99 43.422L1275.96 43.7851L1276.39 41.422H1273.99V43.422ZM1262.54 63.792L1263.84 65.3163L1263.84 65.3151L1262.54 63.792ZM1240.91 69.455C1234.71 69.455 1229.1 68.0147 1224.05 65.1557L1222.08 68.6363C1227.77 71.856 1234.06 73.455 1240.91 73.455V69.455ZM1224.07 65.1647C1219.01 62.238 1215.06 58.2591 1212.2 53.2035L1208.72 55.1745C1211.93 60.8535 1216.39 65.346 1222.06 68.6273L1224.07 65.1647ZM1212.2 53.2124C1209.34 48.0967 1207.9 42.4222 1207.9 36.147H1203.9C1203.9 43.0638 1205.49 49.4173 1208.71 55.1656L1212.2 53.2124ZM1207.9 36.147C1207.9 26.5476 1211.05 18.6223 1217.32 12.2305L1214.46 9.42945C1207.41 16.6177 1203.9 25.5704 1203.9 36.147H1207.9ZM1217.31 12.2374C1223.64 5.84409 1231.46 2.645 1240.91 2.645V-1.355C1230.45 -1.355 1221.58 2.2359 1214.47 9.42257L1217.31 12.2374ZM1240.91 2.645C1248.76 2.645 1255.44 4.99089 1261.08 9.65451L1263.63 6.57349C1257.23 1.27844 1249.63 -1.355 1240.91 -1.355V2.645ZM1261.08 9.65451C1266.71 14.324 1270.3 20.4399 1271.84 28.1002L1275.76 27.3158C1274.06 18.8094 1270.01 11.8627 1263.63 6.57349L1261.08 9.65451ZM1273.8 25.708H1259.05V29.708H1273.8V25.708ZM1260.95 27.0617C1259.96 24.1738 1258.5 21.6382 1256.56 19.4831L1253.59 22.1589C1255.14 23.8838 1256.34 25.9396 1257.16 28.3543L1260.95 27.0617ZM1256.58 19.5074C1254.64 17.272 1252.28 15.5714 1249.55 14.4187L1247.99 18.1053C1250.17 19.0219 1252.02 20.3607 1253.57 22.1346L1256.58 19.5074ZM1249.61 14.4446C1246.93 13.2155 1244.02 12.613 1240.91 12.613V16.613C1243.49 16.613 1245.83 17.1098 1247.94 18.0793L1249.61 14.4446ZM1240.91 12.613C1234.61 12.613 1229.27 14.9046 1225 19.4531L1227.92 22.1889C1231.42 18.4601 1235.7 16.613 1240.91 16.613V12.613ZM1225 19.4539C1220.8 23.9372 1218.74 29.5515 1218.74 36.147H1222.74C1222.74 30.4558 1224.49 25.8528 1227.92 22.1881L1225 19.4539ZM1218.74 36.147C1218.74 42.6841 1220.81 48.264 1225 52.7431L1227.92 50.0089C1224.48 46.34 1222.74 41.7672 1222.74 36.147H1218.74ZM1225.01 52.7553C1229.28 57.2358 1234.63 59.487 1240.91 59.487V55.487C1235.69 55.487 1231.4 53.6642 1227.91 49.9967L1225.01 52.7553ZM1240.91 59.487C1245.78 59.487 1250.07 58.1018 1253.69 55.281L1251.23 52.127C1248.38 54.3502 1244.97 55.487 1240.91 55.487V59.487ZM1253.69 55.281C1257.29 52.4719 1259.74 48.6668 1261.07 43.9676L1257.23 42.8764C1256.1 46.8425 1254.09 49.8921 1251.23 52.127L1253.69 55.281ZM1259.15 45.422H1273.99V41.422H1259.15V45.422ZM1272.02 43.0589C1270.55 51.0478 1266.95 57.4156 1261.25 62.2689L1263.84 65.3151C1270.3 59.8217 1274.33 52.6095 1275.96 43.7851L1272.02 43.0589ZM1261.25 62.2677C1255.62 67.0482 1248.88 69.455 1240.91 69.455V73.455C1249.76 73.455 1257.44 70.7531 1263.84 65.3163L1261.25 62.2677ZM1330.32 2.09999H1332.32V0.0999947H1330.32V2.09999ZM1330.32 15.777V17.777H1332.32V15.777H1330.32ZM1311.41 15.777V13.777H1309.41V15.777H1311.41ZM1311.41 70V72H1313.41V70H1311.41ZM1296.67 70H1294.67V72H1296.67V70ZM1296.67 15.777H1298.67V13.777H1296.67V15.777ZM1277.85 15.777H1275.85V17.777H1277.85V15.777ZM1277.85 2.09999V0.0999947H1275.85V2.09999H1277.85ZM1328.32 2.09999V15.777H1332.32V2.09999H1328.32ZM1330.32 13.777H1311.41V17.777H1330.32V13.777ZM1309.41 15.777V70H1313.41V15.777H1309.41ZM1311.41 68H1296.67V72H1311.41V68ZM1298.67 70V15.777H1294.67V70H1298.67ZM1296.67 13.777H1277.85V17.777H1296.67V13.777ZM1279.85 15.777V2.09999H1275.85V15.777H1279.85ZM1277.85 4.09999H1330.32V0.0999947H1277.85V4.09999ZM1347.42 64.762V66.762H1348.4L1349 65.9915L1347.42 64.762ZM1330.74 64.762L1329.15 63.5513L1326.7 66.762H1330.74V64.762ZM1346.45 44.101L1348.04 45.3117L1348.96 44.101L1348.04 42.8903L1346.45 44.101ZM1330.74 23.44V21.44H1326.7L1329.15 24.6507L1330.74 23.44ZM1347.42 23.44L1349 22.2105L1348.4 21.44H1347.42V23.44ZM1362.84 43.228H1364.84V42.5406L1364.42 41.9985L1362.84 43.228ZM1362.84 44.974L1364.42 46.2035L1364.84 45.6614V44.974H1362.84ZM1374.29 64.762V66.762H1375.27L1375.87 65.9915L1374.29 64.762ZM1357.61 64.762L1356.01 63.5513L1353.57 66.762H1357.61V64.762ZM1373.32 44.101L1374.91 45.3117L1375.83 44.101L1374.91 42.8903L1373.32 44.101ZM1357.61 23.44V21.44H1353.57L1356.01 24.6507L1357.61 23.44ZM1374.29 23.44L1375.87 22.2105L1375.27 21.44H1374.29V23.44ZM1389.71 43.228H1391.71V42.5406L1391.29 41.9985L1389.71 43.228ZM1389.71 44.974L1391.29 46.2035L1391.71 45.6614V44.974H1389.71ZM1347.42 62.762H1330.74V66.762H1347.42V62.762ZM1332.33 65.9727L1348.04 45.3117L1344.86 42.8903L1329.15 63.5513L1332.33 65.9727ZM1348.04 42.8903L1332.33 22.2293L1329.15 24.6507L1344.86 45.3117L1348.04 42.8903ZM1330.74 25.44H1347.42V21.44H1330.74V25.44ZM1345.84 24.6695L1361.27 44.4575L1364.42 41.9985L1349 22.2105L1345.84 24.6695ZM1360.84 43.228V44.974H1364.84V43.228H1360.84ZM1361.27 43.7445L1345.84 63.5325L1349 65.9915L1364.42 46.2035L1361.27 43.7445ZM1374.29 62.762H1357.61V66.762H1374.29V62.762ZM1359.2 65.9727L1374.91 45.3117L1371.73 42.8903L1356.01 63.5513L1359.2 65.9727ZM1374.91 42.8903L1359.2 22.2293L1356.01 24.6507L1371.73 45.3117L1374.91 42.8903ZM1357.61 25.44H1374.29V21.44H1357.61V25.44ZM1372.71 24.6695L1388.14 44.4575L1391.29 41.9985L1375.87 22.2105L1372.71 24.6695ZM1387.71 43.228V44.974H1391.71V43.228H1387.71ZM1388.14 43.7445L1372.71 63.5325L1375.87 65.9915L1391.29 46.2035L1388.14 43.7445Z" fill="#EDECF2"/>
</g>
</svg>
