<svg width="1132" height="62" viewBox="0 0 1132 62" fill="none" xmlns="http://www.w3.org/2000/svg">
<path opacity="0.2" d="M46.4776 42.2406H51.4217V61.5079H41.2427V52.4922H11.1421V61.5079H0.963086V42.2406H5.03467C5.76174 41.6589 6.36763 41.0288 6.85234 40.3502C7.38553 39.6716 7.87024 38.6052 8.30648 37.1511C8.79119 35.6485 9.17896 34.1216 9.46979 32.5706C9.76062 30.971 10.0757 28.5232 10.415 25.2272C10.8028 21.9311 11.1421 18.6593 11.4329 15.4117C11.7237 12.1157 12.1115 7.51092 12.5962 1.59742H46.4776V42.2406ZM22.1208 11.8491C21.5391 21.2525 20.8363 28.1597 20.0123 32.5706C19.1883 36.933 17.9765 40.1563 16.3769 42.2406H35.4989V11.8491H22.1208ZM83.6984 53.5829C75.943 53.5829 69.4721 51.0623 64.2857 46.0213C59.1477 40.9319 56.5787 34.6064 56.5787 27.0448C56.5787 19.4833 59.1477 13.1821 64.2857 8.14105C69.4721 3.05156 75.943 0.506822 83.6984 0.506822C88.7879 0.506822 93.3927 1.67013 97.5127 3.99675C101.681 6.2749 104.929 9.44977 107.255 13.5214C109.582 17.5445 110.745 22.0523 110.745 27.0448C110.745 34.6548 108.176 40.9803 103.038 46.0213C97.9005 51.0623 91.4538 53.5829 83.6984 53.5829ZM83.6984 43.1858C86.7036 43.1858 89.418 42.5072 91.8416 41.15C94.2651 39.7443 96.1555 37.8055 97.5127 35.3334C98.9184 32.8614 99.6212 30.0985 99.6212 27.0448C99.6212 22.4401 98.0944 18.6108 95.0407 15.5571C92.0355 12.455 88.2547 10.9039 83.6984 10.9039C79.1906 10.9039 75.3856 12.455 72.2834 15.5571C69.2297 18.6108 67.7029 22.4401 67.7029 27.0448C67.7029 31.6496 69.2297 35.5031 72.2834 38.6052C75.3856 41.6589 79.1906 43.1858 83.6984 43.1858ZM142.754 53.5829C137.858 53.5829 133.399 52.4438 129.376 50.1656C125.353 47.839 122.202 44.6641 119.924 40.641C117.646 36.5694 116.507 32.0616 116.507 27.1175C116.507 19.556 119.003 13.2305 123.996 8.14105C129.037 3.05156 135.289 0.506822 142.754 0.506822C148.958 0.506822 154.314 2.37297 158.822 6.10525C163.33 9.83754 166.19 14.7331 167.402 20.792H156.35C155.672 18.8047 154.678 17.084 153.369 15.6299C152.06 14.1272 150.485 12.9882 148.643 12.2126C146.85 11.3886 144.887 10.9766 142.754 10.9766C138.44 10.9766 134.829 12.5277 131.921 15.6299C129.061 18.6835 127.631 22.5128 127.631 27.1175C127.631 31.6738 129.061 35.4788 131.921 38.5325C134.829 41.5862 138.44 43.1131 142.754 43.1131C146.099 43.1131 148.983 42.1679 151.406 40.2775C153.83 38.3871 155.502 35.8181 156.423 32.5706H167.547C166.384 38.8718 163.524 43.9613 158.968 47.839C154.46 51.6682 149.055 53.5829 142.754 53.5829ZM209.773 1.59742V11.8491H195.595V52.4922H184.543V11.8491H170.438V1.59742H209.773ZM246.024 52.4922L242.462 42.8222H222.177L218.687 52.4922H207.054L226.975 1.59742H237.372L257.948 52.4922H246.024ZM232.283 15.0482L225.667 33.2249H238.972L232.283 15.0482ZM295.012 25.6634C297.242 26.8267 298.963 28.4747 300.175 30.6075C301.435 32.6917 302.065 35.0911 302.065 37.8055C302.065 41.877 300.49 45.3427 297.339 48.2025C294.237 51.0623 290.48 52.4922 286.07 52.4922H264.403V1.59742H285.488C289.85 1.59742 293.486 2.85768 296.394 5.37819C299.302 7.85022 300.756 10.9524 300.756 14.6847C300.756 16.8659 300.247 18.9259 299.229 20.8648C298.212 22.8036 296.806 24.4032 295.012 25.6634ZM290.068 16.4296C290.068 15.6056 289.923 14.8786 289.632 14.2484C289.39 13.5698 289.026 12.9882 288.542 12.5035C288.057 12.0187 287.451 11.6552 286.724 11.4129C286.045 11.122 285.27 10.9766 284.397 10.9766H275.236V21.8099H284.397C286.142 21.8099 287.524 21.3252 288.542 20.3558C289.559 19.3379 290.068 18.0292 290.068 16.4296ZM284.979 42.386C286.772 42.386 288.226 41.8528 289.341 40.7864C290.456 39.7201 291.014 38.3386 291.014 36.6421C291.014 34.9941 290.456 33.6369 289.341 32.5706C288.226 31.5042 286.772 30.971 284.979 30.971H275.236V42.386H284.979ZM353.513 52.4922H340.062L322.103 27.6265V52.4922H311.052V1.59742H322.103V25.0818L338.753 1.59742H351.622L334.245 25.9542L353.513 52.4922ZM392.574 52.4922L389.012 42.8222H368.726L365.237 52.4922H353.603L373.525 1.59742H383.922L404.498 52.4922H392.574ZM378.833 15.0482L372.216 33.2249H385.522L378.833 15.0482ZM488.672 52.4922H477.475L472.458 19.2652L457.262 52.4195H454.572L439.377 19.2652L434.36 52.4922H423.09L431.088 1.59742H442.139L455.881 32.7887L469.695 1.59742H480.747L488.672 52.4922ZM508.202 42.2406H528.487V52.4922H497.15V1.59742H527.687V11.7764H508.202V21.8099H525.797V31.7708H508.202V42.2406ZM572.881 1.59742V11.8491H558.703V52.4922H547.652V11.8491H533.547V1.59742H572.881ZM609.133 52.4922L605.57 42.8222H585.285L581.795 52.4922H570.162L590.084 1.59742H600.481L621.057 52.4922H609.133ZM595.391 15.0482L588.775 33.2249H602.08L595.391 15.0482ZM637.036 1.59742H670.845V52.4922H659.866V11.8491H646.633L644.234 33.8793C643.555 40.1805 641.738 44.8823 638.781 47.9844C635.873 51.0866 631.752 52.6377 626.421 52.6377H623.585V41.877H626.493C630.42 41.877 632.673 39.3808 633.255 34.3882L637.036 1.59742ZM691.992 1.59742H725.801V52.4922H714.822V11.8491H701.589L699.19 33.8793C698.511 40.1805 696.694 44.8823 693.737 47.9844C690.829 51.0866 686.709 52.6377 681.377 52.6377H678.541V41.877H681.45C685.376 41.877 687.63 39.3808 688.211 34.3882L691.992 1.59742ZM761.562 53.5829C753.807 53.5829 747.336 51.0623 742.15 46.0213C737.012 40.9319 734.443 34.6064 734.443 27.0448C734.443 19.4833 737.012 13.1821 742.15 8.14105C747.336 3.05156 753.807 0.506822 761.562 0.506822C766.652 0.506822 771.257 1.67013 775.377 3.99675C779.545 6.2749 782.793 9.44977 785.119 13.5214C787.446 17.5445 788.609 22.0523 788.609 27.0448C788.609 34.6548 786.04 40.9803 780.902 46.0213C775.764 51.0623 769.318 53.5829 761.562 53.5829ZM761.562 43.1858C764.568 43.1858 767.282 42.5072 769.705 41.15C772.129 39.7443 774.019 37.8055 775.377 35.3334C776.782 32.8614 777.485 30.0985 777.485 27.0448C777.485 22.4401 775.958 18.6108 772.905 15.5571C769.899 12.455 766.119 10.9039 761.562 10.9039C757.054 10.9039 753.249 12.455 750.147 15.5571C747.094 18.6108 745.567 22.4401 745.567 27.0448C745.567 31.6496 747.094 35.5031 750.147 38.6052C753.249 41.6589 757.054 43.1858 761.562 43.1858ZM797.279 1.59742H836.904V52.4922H825.926V11.8491H808.33V52.4922H797.279V1.59742ZM868.101 1.59742C873.239 1.59742 877.529 3.26968 880.97 6.6142C884.412 9.91025 886.133 14.0788 886.133 19.1198C886.133 24.1123 884.412 28.2809 880.97 31.6254C877.529 34.9214 873.239 36.5694 868.101 36.5694H859.594V52.4922H848.543V1.59742H868.101ZM867.665 26.3905C869.846 26.3905 871.591 25.7119 872.9 24.3547C874.257 22.9975 874.936 21.2525 874.936 19.1198C874.936 16.9871 874.257 15.2421 872.9 13.8849C871.591 12.4792 869.846 11.7764 867.665 11.7764H859.594V26.3905H867.665ZM917.911 53.5829C910.155 53.5829 903.684 51.0623 898.498 46.0213C893.36 40.9319 890.791 34.6064 890.791 27.0448C890.791 19.4833 893.36 13.1821 898.498 8.14105C903.684 3.05156 910.155 0.506822 917.911 0.506822C923 0.506822 927.605 1.67013 931.725 3.99675C935.893 6.2749 939.141 9.44977 941.468 13.5214C943.794 17.5445 944.957 22.0523 944.957 27.0448C944.957 34.6548 942.388 40.9803 937.251 46.0213C932.113 51.0623 925.666 53.5829 917.911 53.5829ZM917.911 43.1858C920.916 43.1858 923.63 42.5072 926.054 41.15C928.477 39.7443 930.368 37.8055 931.725 35.3334C933.13 32.8614 933.833 30.0985 933.833 27.0448C933.833 22.4401 932.306 18.6108 929.253 15.5571C926.248 12.455 922.467 10.9039 917.911 10.9039C913.403 10.9039 909.598 12.455 906.496 15.5571C903.442 18.6108 901.915 22.4401 901.915 27.0448C901.915 31.6496 903.442 35.5031 906.496 38.6052C909.598 41.6589 913.403 43.1858 917.911 43.1858ZM996.088 52.4922H982.637L964.679 27.6265V52.4922H953.627V1.59742H964.679V25.0818L981.329 1.59742H994.198L976.821 25.9542L996.088 52.4922ZM1035.15 52.4922L1031.59 42.8222H1011.3L1007.81 52.4922H996.179L1016.1 1.59742H1026.5L1047.07 52.4922H1035.15ZM1021.41 15.0482L1014.79 33.2249H1028.1L1021.41 15.0482ZM1083.75 1.59742V11.8491H1069.57V52.4922H1058.52V11.8491H1044.41V1.59742H1083.75ZM1120 52.4922L1116.44 42.8222H1096.15L1092.66 52.4922H1081.03L1100.95 1.59742H1111.35L1131.92 52.4922H1120ZM1106.26 15.0482L1099.64 33.2249H1112.95L1106.26 15.0482Z" fill="white"/>
</svg>
