<svg width="1714" height="211" viewBox="0 0 1714 211" fill="none" xmlns="http://www.w3.org/2000/svg">
<g style="mix-blend-mode:multiply" opacity="0.3">
<path d="M90.25 183.474C73.4167 183.474 58.0833 179.557 44.25 171.724C30.4167 163.724 19.5833 152.807 11.75 138.974C3.91667 124.974 7.07805e-07 109.474 7.07805e-07 92.4736C7.07805e-07 66.4736 8.58333 44.7236 25.75 27.2236C43.0833 9.72357 64.5833 0.973563 90.25 0.973563C111.583 0.973563 130 7.39023 145.5 20.2236C161 33.0569 170.833 49.8902 175 70.7236H137C134.667 63.8902 131.25 57.9736 126.75 52.9736C122.25 47.8069 116.833 43.8902 110.5 41.2236C104.333 38.3902 97.5833 36.9736 90.25 36.9736C75.4167 36.9736 63 42.3069 53 52.9736C43.1667 63.4736 38.25 76.6402 38.25 92.4736C38.25 108.14 43.1667 121.224 53 131.724C63 142.224 75.4167 147.474 90.25 147.474C101.75 147.474 111.667 144.224 120 137.724C128.333 131.224 134.083 122.39 137.25 111.224H175.5C171.5 132.89 161.667 150.39 146 163.724C130.5 176.89 111.917 183.474 90.25 183.474ZM285.871 183.474C259.204 183.474 236.954 174.807 219.121 157.474C201.454 139.974 192.621 118.224 192.621 92.2236C192.621 66.2236 201.454 44.5569 219.121 27.2236C236.954 9.72357 259.204 0.973563 285.871 0.973563C303.371 0.973563 319.204 4.97356 333.371 12.9736C347.704 20.8069 358.871 31.7236 366.871 45.7236C374.871 59.5569 378.871 75.0569 378.871 92.2236C378.871 118.39 370.038 140.14 352.371 157.474C334.704 174.807 312.538 183.474 285.871 183.474ZM285.871 147.724C296.204 147.724 305.538 145.39 313.871 140.724C322.204 135.89 328.704 129.224 333.371 120.724C338.204 112.224 340.621 102.724 340.621 92.2236C340.621 76.3902 335.371 63.2236 324.871 52.7236C314.538 42.0569 301.538 36.7236 285.871 36.7236C270.371 36.7236 257.288 42.0569 246.621 52.7236C236.121 63.2236 230.871 76.3902 230.871 92.2236C230.871 108.057 236.121 121.307 246.621 131.974C257.288 142.474 270.371 147.724 285.871 147.724ZM523.816 4.72356V39.9736H475.066V179.724H437.066V39.9736H388.566V4.72356H523.816ZM616.313 4.72356C633.979 4.72356 648.729 10.4736 660.563 21.9736C672.396 33.3069 678.313 47.6402 678.313 64.9736C678.313 82.1402 672.396 96.4736 660.563 107.974C648.729 119.307 633.979 124.974 616.313 124.974H587.063V179.724H549.063V4.72356H616.313ZM614.813 89.9736C622.313 89.9736 628.313 87.6402 632.813 82.9736C637.479 78.3069 639.813 72.3069 639.813 64.9736C639.813 57.6402 637.479 51.6402 632.813 46.9736C628.313 42.1402 622.313 39.7236 614.813 39.7236H587.063V89.9736H614.813ZM800.121 4.72356H839.621L790.121 122.724C781.288 144.39 771.371 159.39 760.371 167.724C749.538 176.057 734.621 180.224 715.621 180.224H708.621V144.974H719.621C727.454 144.974 733.454 143.807 737.621 141.474C741.788 139.14 745.621 134.724 749.121 128.224L684.121 4.72356H726.621L768.121 84.7236L800.121 4.72356ZM989.188 144.474H1006.19V210.724H971.188V179.724H867.688V210.724H832.688V144.474H846.688C849.188 142.474 851.271 140.307 852.938 137.974C854.771 135.64 856.438 131.974 857.938 126.974C859.604 121.807 860.938 116.557 861.938 111.224C862.938 105.724 864.021 97.3069 865.188 85.9736C866.521 74.6402 867.688 63.3902 868.688 52.2236C869.688 40.8902 871.021 25.0569 872.688 4.72356H989.188V144.474ZM905.438 39.9736C903.438 72.3069 901.021 96.0569 898.188 111.224C895.354 126.224 891.188 137.307 885.688 144.474H951.438V39.9736H905.438ZM1140.61 4.72356H1178.36V179.724H1140.61V107.474H1074.86V179.724H1036.86V4.72356H1074.86V72.2236H1140.61V4.72356ZM1336.25 4.72356H1363.75V179.724H1325.75V74.4736L1244.75 179.724H1218.5V4.72356H1256.5V108.724L1336.25 4.72356ZM1549.8 179.724H1503.55L1441.8 94.2236V179.724H1403.8V4.72356H1441.8V85.4736L1499.05 4.72356H1543.3L1483.55 88.4736L1549.8 179.724ZM1685.61 4.72356H1713.11V179.724H1675.11V74.4736L1594.11 179.724H1567.86V4.72356H1605.86V108.724L1685.61 4.72356Z" fill="#F1F1F5"/>
</g>
</svg>
