<svg width="1251" height="170" viewBox="0 0 1251 170" fill="none" xmlns="http://www.w3.org/2000/svg">
<g opacity="0.4">
<path d="M136.048 166H93.128L35.824 86.656V166H0.560001V3.59999H35.824V78.536L88.952 3.59999H130.016L74.568 81.32L136.048 166ZM220.772 169.48C196.025 169.48 175.377 161.437 158.828 145.352C142.433 129.112 134.236 108.928 134.236 84.8C134.236 60.672 142.433 40.5653 158.828 24.48C175.377 8.23999 196.025 0.119992 220.772 0.119992C237.012 0.119992 251.705 3.83199 264.852 11.256C278.153 18.5253 288.516 28.656 295.94 41.648C303.364 54.4853 307.076 68.8693 307.076 84.8C307.076 109.083 298.878 129.267 282.484 145.352C266.089 161.437 245.518 169.48 220.772 169.48ZM220.772 136.304C230.361 136.304 239.022 134.139 246.756 129.808C254.489 125.323 260.521 119.136 264.852 111.248C269.337 103.36 271.58 94.544 271.58 84.8C271.58 70.1067 266.708 57.888 256.964 48.144C247.374 38.2453 235.31 33.296 220.772 33.296C206.388 33.296 194.246 38.2453 184.348 48.144C174.604 57.888 169.732 70.1067 169.732 84.8C169.732 99.4933 174.604 111.789 184.348 121.688C194.246 131.432 206.388 136.304 220.772 136.304ZM431.02 3.59999H466.052V166H431.02V98.952H370.004V166H334.74V3.59999H370.004V66.24H431.02V3.59999ZM615.358 3.59999V36.312H570.118V166H534.854V36.312H489.846V3.59999H615.358ZM731.034 166L719.666 135.144H654.938L643.802 166H606.682L670.25 3.59999H703.426L769.082 166H731.034ZM687.186 46.52L666.074 104.52H708.53L687.186 46.52ZM925.165 166H882.245L824.941 86.656V166H789.677V3.59999H824.941V78.536L878.069 3.59999H919.133L863.685 81.32L925.165 166ZM1053.98 3.59999V36.312H1008.74V166H973.479V36.312H928.471V3.59999H1053.98ZM1140.52 52.784C1151.81 52.784 1161.86 55.1813 1170.68 59.976C1179.65 64.7707 1186.61 71.4987 1191.56 80.16C1196.66 88.6667 1199.21 98.4107 1199.21 109.392C1199.21 125.941 1193.72 139.552 1182.74 150.224C1171.76 160.741 1157.68 166 1140.52 166H1077.41V3.59999H1112.68V52.784H1140.52ZM1215.68 3.59999H1250.95V166H1215.68V3.59999ZM1137.96 133.056C1145.39 133.056 1151.42 130.891 1156.06 126.56C1160.85 122.075 1163.25 116.352 1163.25 109.392C1163.25 104.752 1162.17 100.653 1160 97.096C1157.99 93.5387 1155.05 90.7547 1151.19 88.744C1147.32 86.7333 1142.91 85.728 1137.96 85.728H1112.68V133.056H1137.96Z" fill="#EDECF2"/>
<path d="M136.048 166V170H143.895L139.285 163.65L136.048 166ZM93.128 166L89.8853 168.342L91.0828 170H93.128V166ZM35.824 86.656L39.0667 84.314L31.824 74.2857V86.656H35.824ZM35.824 166V170H39.824V166H35.824ZM0.560001 166H-3.44V170H0.560001V166ZM0.560001 3.59999V-0.400009H-3.44V3.59999H0.560001ZM35.824 3.59999H39.824V-0.400009H35.824V3.59999ZM35.824 78.536H31.824V91.0939L39.0871 80.8495L35.824 78.536ZM88.952 3.59999V-0.400009H86.8846L85.6889 1.28652L88.952 3.59999ZM130.016 3.59999L133.272 5.9231L137.783 -0.400009H130.016V3.59999ZM74.568 81.32L71.3118 78.9969L69.6398 81.3404L71.3311 83.67L74.568 81.32ZM136.048 162H93.128V170H136.048V162ZM96.3707 163.658L39.0667 84.314L32.5813 88.998L89.8853 168.342L96.3707 163.658ZM31.824 86.656V166H39.824V86.656H31.824ZM35.824 162H0.560001V170H35.824V162ZM4.56 166V3.59999H-3.44V166H4.56ZM0.560001 7.59999H35.824V-0.400009H0.560001V7.59999ZM31.824 3.59999V78.536H39.824V3.59999H31.824ZM39.0871 80.8495L92.2151 5.91346L85.6889 1.28652L32.5609 76.2225L39.0871 80.8495ZM88.952 7.59999H130.016V-0.400009H88.952V7.59999ZM126.76 1.27687L71.3118 78.9969L77.8242 83.6431L133.272 5.9231L126.76 1.27687ZM71.3311 83.67L132.811 168.35L139.285 163.65L77.8049 78.9699L71.3311 83.67ZM158.827 145.352L156.013 148.194L156.026 148.207L156.04 148.22L158.827 145.352ZM158.827 24.48L161.629 27.3352L161.629 27.335L158.827 24.48ZM264.852 11.256L262.885 14.739L262.909 14.7527L262.933 14.766L264.852 11.256ZM295.94 41.648L292.467 43.6326L292.472 43.6415L292.477 43.6505L295.94 41.648ZM246.756 129.808L248.71 133.298L248.736 133.283L248.762 133.268L246.756 129.808ZM264.852 111.248L261.374 109.271L261.36 109.297L261.345 109.323L264.852 111.248ZM256.964 48.144L254.091 50.9272L254.113 50.95L254.135 50.9724L256.964 48.144ZM184.348 48.144L187.176 50.9724V50.9724L184.348 48.144ZM184.348 121.688L181.497 124.494L181.519 124.517L181.541 124.539L184.348 121.688ZM220.771 165.48C196.983 165.48 177.361 157.787 161.615 142.484L156.04 148.22C173.393 165.087 195.067 173.48 220.771 173.48V165.48ZM161.642 142.51C146.044 127.059 138.236 107.915 138.236 84.8H130.236C130.236 109.941 138.822 131.165 156.013 148.194L161.642 142.51ZM138.236 84.8C138.236 61.6855 146.043 42.627 161.629 27.3352L156.026 21.6248C138.823 38.5037 130.236 59.6585 130.236 84.8H138.236ZM161.629 27.335C177.377 11.8817 196.995 4.11999 220.771 4.11999V-3.88001C195.055 -3.88001 173.377 4.59833 156.026 21.625L161.629 27.335ZM220.771 4.11999C236.376 4.11999 250.383 7.67941 262.885 14.739L266.818 7.77297C253.026 -0.0154228 237.647 -3.88001 220.771 -3.88001V4.11999ZM262.933 14.766C275.594 21.6853 285.415 31.2918 292.467 43.6326L299.412 39.6634C291.616 26.0202 280.712 15.3653 266.77 7.74597L262.933 14.766ZM292.477 43.6505C299.523 55.8341 303.076 69.5185 303.076 84.8H311.076C311.076 68.2202 307.204 53.1366 299.402 39.6455L292.477 43.6505ZM303.076 84.8C303.076 108.077 295.263 127.21 279.682 142.497L285.285 148.207C302.494 131.323 311.076 110.088 311.076 84.8H303.076ZM279.682 142.497C264.097 157.788 244.56 165.48 220.771 165.48V173.48C246.476 173.48 268.081 165.087 285.285 148.207L279.682 142.497ZM220.771 140.304C230.988 140.304 240.331 137.99 248.71 133.298L244.801 126.318C237.713 130.287 229.734 132.304 220.771 132.304V140.304ZM248.762 133.268C257.13 128.415 263.679 121.695 268.358 113.173L261.345 109.323C257.363 116.577 251.847 122.231 244.749 126.348L248.762 133.268ZM268.329 113.225C273.182 104.69 275.579 95.1844 275.579 84.8H267.579C267.579 93.9036 265.492 102.03 261.374 109.271L268.329 113.225ZM275.579 84.8C275.579 69.1237 270.339 55.8631 259.792 45.3156L254.135 50.9724C263.076 59.9129 267.579 71.0896 267.579 84.8H275.579ZM259.836 45.3608C249.449 34.6379 236.327 29.296 220.771 29.296V37.296C234.294 37.296 245.3 41.8527 254.091 50.9272L259.836 45.3608ZM220.771 29.296C205.359 29.296 192.191 34.644 181.519 45.3156L187.176 50.9724C196.302 41.8467 207.416 37.296 220.771 37.296V29.296ZM181.519 45.3156C170.972 55.8631 165.732 69.1237 165.732 84.8H173.732C173.732 71.0896 178.235 59.9129 187.176 50.9724L181.519 45.3156ZM165.732 84.8C165.732 100.476 170.97 113.801 181.497 124.494L187.198 118.882C178.237 109.778 173.732 98.5107 173.732 84.8H165.732ZM181.541 124.539C192.217 135.048 205.379 140.304 220.771 140.304V132.304C207.396 132.304 196.275 127.816 187.154 118.837L181.541 124.539ZM431.02 3.59999V-0.400009H427.02V3.59999H431.02ZM466.052 3.59999H470.052V-0.400009H466.052V3.59999ZM466.052 166V170H470.052V166H466.052ZM431.02 166H427.02V170H431.02V166ZM431.02 98.952H435.02V94.952H431.02V98.952ZM370.004 98.952V94.952H366.004V98.952H370.004ZM370.004 166V170H374.004V166H370.004ZM334.74 166H330.74V170H334.74V166ZM334.74 3.59999V-0.400009H330.74V3.59999H334.74ZM370.004 3.59999H374.004V-0.400009H370.004V3.59999ZM370.004 66.24H366.004V70.24H370.004V66.24ZM431.02 66.24V70.24H435.02V66.24H431.02ZM431.02 7.59999H466.052V-0.400009H431.02V7.59999ZM462.052 3.59999V166H470.052V3.59999H462.052ZM466.052 162H431.02V170H466.052V162ZM435.02 166V98.952H427.02V166H435.02ZM431.02 94.952H370.004V102.952H431.02V94.952ZM366.004 98.952V166H374.004V98.952H366.004ZM370.004 162H334.74V170H370.004V162ZM338.74 166V3.59999H330.74V166H338.74ZM334.74 7.59999H370.004V-0.400009H334.74V7.59999ZM366.004 3.59999V66.24H374.004V3.59999H366.004ZM370.004 70.24H431.02V62.24H370.004V70.24ZM435.02 66.24V3.59999H427.02V66.24H435.02ZM615.358 3.59999H619.358V-0.400009H615.358V3.59999ZM615.358 36.312V40.312H619.358V36.312H615.358ZM570.118 36.312V32.312H566.118V36.312H570.118ZM570.118 166V170H574.118V166H570.118ZM534.854 166H530.854V170H534.854V166ZM534.854 36.312H538.854V32.312H534.854V36.312ZM489.846 36.312H485.846V40.312H489.846V36.312ZM489.846 3.59999V-0.400009H485.846V3.59999H489.846ZM611.358 3.59999V36.312H619.358V3.59999H611.358ZM615.358 32.312H570.118V40.312H615.358V32.312ZM566.118 36.312V166H574.118V36.312H566.118ZM570.118 162H534.854V170H570.118V162ZM538.854 166V36.312H530.854V166H538.854ZM534.854 32.312H489.846V40.312H534.854V32.312ZM493.846 36.312V3.59999H485.846V36.312H493.846ZM489.846 7.59999H615.358V-0.400009H489.846V7.59999ZM731.034 166L727.28 167.383L728.245 170H731.034V166ZM719.666 135.144L723.419 133.761L722.455 131.144H719.666V135.144ZM654.938 135.144V131.144H652.129L651.175 133.786L654.938 135.144ZM643.802 166V170H646.611L647.564 167.358L643.802 166ZM606.682 166L602.957 164.542L600.82 170H606.682V166ZM670.25 3.59999V-0.400009H667.52L666.525 2.14199L670.25 3.59999ZM703.426 3.59999L707.134 2.10073L706.123 -0.400009H703.426V3.59999ZM769.082 166V170H775.013L772.79 164.501L769.082 166ZM687.186 46.52L690.94 45.1386L687.165 34.882L683.427 45.1518L687.186 46.52ZM666.074 104.52L662.315 103.152L660.361 108.52H666.074V104.52ZM708.53 104.52V108.52H714.264L712.284 103.139L708.53 104.52ZM734.787 164.617L723.419 133.761L715.912 136.527L727.28 167.383L734.787 164.617ZM719.666 131.144H654.938V139.144H719.666V131.144ZM651.175 133.786L640.039 164.642L647.564 167.358L658.7 136.502L651.175 133.786ZM643.802 162H606.682V170H643.802V162ZM610.407 167.458L673.975 5.05799L666.525 2.14199L602.957 164.542L610.407 167.458ZM670.25 7.59999H703.426V-0.400009H670.25V7.59999ZM699.717 5.09924L765.373 167.499L772.79 164.501L707.134 2.10073L699.717 5.09924ZM769.082 162H731.034V170H769.082V162ZM683.427 45.1518L662.315 103.152L669.832 105.888L690.944 47.8882L683.427 45.1518ZM666.074 108.52H708.53V100.52H666.074V108.52ZM712.284 103.139L690.94 45.1386L683.432 47.9014L704.776 105.901L712.284 103.139ZM925.165 166V170H933.012L928.402 163.65L925.165 166ZM882.245 166L879.003 168.342L880.2 170H882.245V166ZM824.941 86.656L828.184 84.314L820.941 74.2857V86.656H824.941ZM824.941 166V170H828.941V166H824.941ZM789.677 166H785.677V170H789.677V166ZM789.677 3.59999V-0.400009H785.677V3.59999H789.677ZM824.941 3.59999H828.941V-0.400009H824.941V3.59999ZM824.941 78.536H820.941V91.0939L828.204 80.8495L824.941 78.536ZM878.069 3.59999V-0.400009H876.002L874.806 1.28652L878.069 3.59999ZM919.133 3.59999L922.389 5.9231L926.901 -0.400009H919.133V3.59999ZM863.685 81.32L860.429 78.9969L858.757 81.3404L860.448 83.67L863.685 81.32ZM925.165 162H882.245V170H925.165V162ZM885.488 163.658L828.184 84.314L821.698 88.998L879.003 168.342L885.488 163.658ZM820.941 86.656V166H828.941V86.656H820.941ZM824.941 162H789.677V170H824.941V162ZM793.677 166V3.59999H785.677V166H793.677ZM789.677 7.59999H824.941V-0.400009H789.677V7.59999ZM820.941 3.59999V78.536H828.941V3.59999H820.941ZM828.204 80.8495L881.332 5.91346L874.806 1.28652L821.678 76.2225L828.204 80.8495ZM878.069 7.59999H919.133V-0.400009H878.069V7.59999ZM915.877 1.27687L860.429 78.9969L866.941 83.6431L922.389 5.9231L915.877 1.27687ZM860.448 83.67L921.928 168.35L928.402 163.65L866.922 78.9699L860.448 83.67ZM1053.98 3.59999H1057.98V-0.400009H1053.98V3.59999ZM1053.98 36.312V40.312H1057.98V36.312H1053.98ZM1008.74 36.312V32.312H1004.74V36.312H1008.74ZM1008.74 166V170H1012.74V166H1008.74ZM973.479 166H969.479V170H973.479V166ZM973.479 36.312H977.479V32.312H973.479V36.312ZM928.471 36.312H924.471V40.312H928.471V36.312ZM928.471 3.59999V-0.400009H924.471V3.59999H928.471ZM1049.98 3.59999V36.312H1057.98V3.59999H1049.98ZM1053.98 32.312H1008.74V40.312H1053.98V32.312ZM1004.74 36.312V166H1012.74V36.312H1004.74ZM1008.74 162H973.479V170H1008.74V162ZM977.479 166V36.312H969.479V166H977.479ZM973.479 32.312H928.471V40.312H973.479V32.312ZM932.471 36.312V3.59999H924.471V36.312H932.471ZM928.471 7.59999H1053.98V-0.400009H928.471V7.59999ZM1170.68 59.976L1168.76 63.4899L1168.78 63.4969L1168.79 63.5037L1170.68 59.976ZM1191.56 80.16L1188.08 82.1446L1188.1 82.1815L1188.13 82.218L1191.56 80.16ZM1182.74 150.224L1185.51 153.113L1185.52 153.103L1185.53 153.093L1182.74 150.224ZM1077.41 166H1073.41V170H1077.41V166ZM1077.41 3.59999V-0.400009H1073.41V3.59999H1077.41ZM1112.68 3.59999H1116.68V-0.400009H1112.68V3.59999ZM1112.68 52.784H1108.68V56.784H1112.68V52.784ZM1215.68 3.59999V-0.400009H1211.68V3.59999H1215.68ZM1250.95 3.59999H1254.95V-0.400009H1250.95V3.59999ZM1250.95 166V170H1254.95V166H1250.95ZM1215.68 166H1211.68V170H1215.68V166ZM1156.06 126.56L1158.79 129.484L1158.79 129.481L1156.06 126.56ZM1160 97.096L1156.52 99.0642L1156.55 99.1205L1156.59 99.1758L1160 97.096ZM1151.19 88.744L1149.34 92.2929L1151.19 88.744ZM1112.68 85.728V81.728H1108.68V85.728H1112.68ZM1112.68 133.056H1108.68V137.056H1112.68V133.056ZM1140.52 56.784C1151.22 56.784 1160.61 59.0524 1168.76 63.4899L1172.59 56.4621C1163.11 51.3102 1152.39 48.784 1140.52 48.784V56.784ZM1168.79 63.5037C1177.11 67.951 1183.51 74.1501 1188.08 82.1446L1195.03 78.1754C1189.7 68.8472 1182.18 61.5904 1172.56 56.4483L1168.79 63.5037ZM1188.13 82.218C1192.82 90.038 1195.21 99.0559 1195.21 109.392H1203.21C1203.21 97.7655 1200.5 87.2954 1194.99 78.102L1188.13 82.218ZM1195.21 109.392C1195.21 124.957 1190.09 137.502 1179.95 147.355L1185.53 153.093C1197.35 141.602 1203.21 126.925 1203.21 109.392H1195.21ZM1179.97 147.335C1169.83 157.046 1156.8 162 1140.52 162V170C1158.57 170 1173.68 164.437 1185.51 153.113L1179.97 147.335ZM1140.52 162H1077.41V170H1140.52V162ZM1081.41 166V3.59999H1073.41V166H1081.41ZM1077.41 7.59999H1112.68V-0.400009H1077.41V7.59999ZM1108.68 3.59999V52.784H1116.68V3.59999H1108.68ZM1112.68 56.784H1140.52V48.784H1112.68V56.784ZM1215.68 7.59999H1250.95V-0.400009H1215.68V7.59999ZM1246.95 3.59999V166H1254.95V3.59999H1246.95ZM1250.95 162H1215.68V170H1250.95V162ZM1219.68 166V3.59999H1211.68V166H1219.68ZM1137.96 137.056C1146.22 137.056 1153.28 134.622 1158.79 129.484L1153.33 123.636C1149.56 127.159 1144.56 129.056 1137.96 129.056V137.056ZM1158.79 129.481C1164.45 124.19 1167.25 117.385 1167.25 109.392H1159.25C1159.25 115.319 1157.26 119.959 1153.33 123.639L1158.79 129.481ZM1167.25 109.392C1167.25 104.105 1166.01 99.2699 1163.42 95.0162L1156.59 99.1758C1158.33 102.037 1159.25 105.399 1159.25 109.392H1167.25ZM1163.49 95.1278C1161.07 90.8507 1157.54 87.5382 1153.03 85.1951L1149.34 92.2929C1152.57 93.9711 1154.92 96.2267 1156.52 99.0642L1163.49 95.1278ZM1153.03 85.1951C1148.52 82.85 1143.47 81.728 1137.96 81.728V89.728C1142.36 89.728 1146.12 90.6167 1149.34 92.2929L1153.03 85.1951ZM1137.96 81.728H1112.68V89.728H1137.96V81.728ZM1108.68 85.728V133.056H1116.68V85.728H1108.68ZM1112.68 137.056H1137.96V129.056H1112.68V137.056Z" fill="#EDECF2"/>
</g>
</svg>
