<svg width="1165" height="88" viewBox="0 0 1165 88" fill="none" xmlns="http://www.w3.org/2000/svg">
<path opacity="0.5" d="M94.552 75H78.536L71.36 27.472L49.624 74.896H45.776L24.04 27.472L16.864 75H0.744L12.184 2.2H27.992L47.648 46.816L67.408 2.2L83.216 2.2L94.552 75ZM137.047 24.248C142.109 24.248 146.615 25.3227 150.567 27.472C154.589 29.6213 157.709 32.6373 159.927 36.52C162.215 40.3333 163.359 44.7013 163.359 49.624C163.359 57.0427 160.898 63.144 155.975 67.928C151.053 72.6427 144.743 75 137.047 75L108.759 75L108.759 2.2L124.567 2.2L124.567 24.248H137.047ZM170.743 2.2L186.551 2.2L186.551 75H170.743L170.743 2.2ZM135.903 60.232C139.231 60.232 141.935 59.2613 144.015 57.32C146.165 55.3093 147.239 52.744 147.239 49.624C147.239 47.544 146.754 45.7067 145.783 44.112C144.882 42.5173 143.565 41.2693 141.831 40.368C140.098 39.4667 138.122 39.016 135.903 39.016H124.567V60.232L135.903 60.232ZM265.639 76.56C258.637 76.56 252.258 74.9307 246.503 71.672C240.749 68.344 236.242 63.8027 232.983 58.048C229.725 52.224 228.095 45.776 228.095 38.704C228.095 27.888 231.666 18.84 238.807 11.56C246.018 4.28 254.962 0.639997 265.639 0.639997C274.514 0.639997 282.175 3.30933 288.623 8.648C295.071 13.9867 299.162 20.9893 300.895 29.656H285.087C284.117 26.8133 282.695 24.352 280.823 22.272C278.951 20.1227 276.698 18.4933 274.063 17.384C271.498 16.2053 268.69 15.616 265.639 15.616C259.469 15.616 254.303 17.8347 250.143 22.272C246.053 26.64 244.007 32.1173 244.007 38.704C244.007 45.2213 246.053 50.664 250.143 55.032C254.303 59.4 259.469 61.584 265.639 61.584C270.423 61.584 274.549 60.232 278.015 57.528C281.482 54.824 283.874 51.1493 285.191 46.504H301.103C299.439 55.5173 295.349 62.7973 288.831 68.344C282.383 73.8213 274.653 76.56 265.639 76.56ZM349.098 76.56C338.004 76.56 328.748 72.9547 321.33 65.744C313.98 58.464 310.306 49.416 310.306 38.6C310.306 27.784 313.98 18.7707 321.33 11.56C328.748 4.28 338.004 0.639997 349.098 0.639997C356.378 0.639997 362.964 2.304 368.858 5.63199C374.82 8.89066 379.466 13.432 382.794 19.256C386.122 25.0107 387.786 31.4587 387.786 38.6C387.786 49.4853 384.111 58.5333 376.762 65.744C369.412 72.9547 360.191 76.56 349.098 76.56ZM349.098 61.688C353.396 61.688 357.279 60.7173 360.746 58.776C364.212 56.7653 366.916 53.992 368.858 50.456C370.868 46.92 371.874 42.968 371.874 38.6C371.874 32.0133 369.69 26.536 365.322 22.168C361.023 17.7307 355.615 15.512 349.098 15.512C342.65 15.512 337.207 17.7307 332.77 22.168C328.402 26.536 326.218 32.0133 326.218 38.6C326.218 45.1867 328.402 50.6987 332.77 55.136C337.207 59.504 342.65 61.688 349.098 61.688ZM440.348 37.144C443.329 39.016 445.617 41.408 447.212 44.32C448.876 47.232 449.708 50.3867 449.708 53.784C449.708 58.568 448.425 62.728 445.86 66.264C443.295 69.7307 440.036 72.3307 436.084 74.064C432.132 75.728 427.799 76.56 423.084 76.56C418.508 76.56 414.279 75.6933 410.396 73.96C406.513 72.2267 403.289 69.5227 400.724 65.848C398.228 62.1733 396.945 57.8747 396.876 52.952H412.268C412.337 56.072 413.412 58.5333 415.492 60.336C417.641 62.0693 420.172 62.936 423.084 62.936C426.204 62.936 428.839 62.0693 430.988 60.336C433.207 58.6027 434.316 56.28 434.316 53.368C434.316 50.5947 433.276 48.376 431.196 46.712C429.185 45.048 426.516 44.216 423.188 44.216H416.532V30.904L423.188 30.904C426.031 30.904 428.353 30.1413 430.156 28.616C431.959 27.0213 432.86 24.976 432.86 22.48C432.86 19.776 431.924 17.6613 430.052 16.136C428.18 14.5413 425.857 13.744 423.084 13.744C420.449 13.744 418.127 14.5413 416.116 16.136C414.105 17.7307 413.065 19.88 412.996 22.584H398.02C398.02 18.008 399.233 14.0213 401.66 10.624C404.156 7.15733 407.241 4.62666 410.916 3.032C414.66 1.43733 418.716 0.639997 423.084 0.639997C427.452 0.639997 431.473 1.43733 435.148 3.032C438.892 4.62666 441.943 7.12266 444.3 10.52C446.727 13.848 447.94 17.7653 447.94 22.272C447.94 28.5813 445.409 33.5387 440.348 37.144ZM523.353 60.336H530.425V87.896H515.865V75L472.809 75V87.896H458.249V60.336H464.073C465.113 59.504 465.98 58.6027 466.673 57.632C467.436 56.6613 468.129 55.136 468.753 53.056C469.446 50.9067 470.001 48.7227 470.417 46.504C470.833 44.216 471.284 40.7147 471.769 36C472.324 31.2853 472.809 26.6053 473.225 21.96C473.641 17.2453 474.196 10.6587 474.889 2.2L523.353 2.2V60.336ZM488.513 16.864C487.681 30.3147 486.676 40.1947 485.497 46.504C484.318 52.744 482.585 57.3547 480.297 60.336L507.649 60.336V16.864L488.513 16.864ZM593.623 75L588.527 61.168L559.511 61.168L554.519 75H537.879L566.375 2.2H581.247L610.679 75H593.623ZM573.967 21.44L564.503 47.44L583.535 47.44L573.967 21.44ZM637.799 60.336L666.815 60.336V75L621.991 75V2.2L665.671 2.2V16.76H637.799V31.112H662.967V45.36L637.799 45.36V60.336ZM771.397 75H755.381L748.205 27.472L726.469 74.896H722.621L700.885 27.472L693.709 75H677.589L689.029 2.2L704.837 2.2L724.493 46.816L744.253 2.2L760.061 2.2L771.397 75ZM856.351 36.624C859.541 38.288 862.002 40.6453 863.735 43.696C865.538 46.6773 866.439 50.1093 866.439 53.992C866.439 59.816 864.186 64.7733 859.679 68.864C855.242 72.9547 849.869 75 843.559 75L812.567 75V2.2L842.727 2.2C848.967 2.2 854.167 4.00266 858.327 7.608C862.487 11.144 864.567 15.5813 864.567 20.92C864.567 24.04 863.839 26.9867 862.383 29.76C860.927 32.5333 858.917 34.8213 856.351 36.624ZM849.279 23.416C849.279 22.2373 849.071 21.1973 848.655 20.296C848.309 19.3253 847.789 18.4933 847.095 17.8C846.402 17.1067 845.535 16.5867 844.495 16.24C843.525 15.824 842.415 15.616 841.167 15.616H828.063V31.112H841.167C843.663 31.112 845.639 30.4187 847.095 29.032C848.551 27.576 849.279 25.704 849.279 23.416ZM841.999 60.544C844.565 60.544 846.645 59.7813 848.239 58.256C849.834 56.7307 850.631 54.7547 850.631 52.328C850.631 49.9707 849.834 48.0293 848.239 46.504C846.645 44.9787 844.565 44.216 841.999 44.216L828.063 44.216V60.544L841.999 60.544ZM909.35 2.2C916.699 2.2 922.835 4.592 927.758 9.376C932.68 14.0907 935.142 20.0533 935.142 27.264C935.142 34.4053 932.68 40.368 927.758 45.152C922.835 49.8667 916.699 52.224 909.35 52.224H897.182V75H881.374V2.2L909.35 2.2ZM908.726 37.664C911.846 37.664 914.342 36.6933 916.214 34.752C918.155 32.8107 919.126 30.3147 919.126 27.264C919.126 24.2133 918.155 21.7173 916.214 19.776C914.342 17.7653 911.846 16.76 908.726 16.76L897.182 16.76V37.664L908.726 37.664ZM963.957 60.336H992.973V75H948.149V2.2L991.829 2.2V16.76L963.957 16.76V31.112H989.125V45.36H963.957V60.336ZM1097.55 75H1081.54L1074.36 27.472L1052.63 74.896H1048.78L1027.04 27.472L1019.87 75L1003.75 75L1015.19 2.2L1030.99 2.2L1050.65 46.816L1070.41 2.2H1086.22L1097.55 75ZM1134.23 2.2L1164.18 2.2V75H1148.37V49.728H1138.28L1124.45 75H1106.77L1122.58 47.336C1120.36 46.3653 1118.35 45.152 1116.55 43.696C1114.81 42.24 1113.36 40.6453 1112.18 38.912C1111 37.1093 1110.06 35.1333 1109.37 32.984C1108.75 30.8347 1108.43 28.616 1108.43 26.328C1108.43 19.464 1110.9 13.744 1115.82 9.168C1120.74 4.52266 1126.88 2.2 1134.23 2.2ZM1135.16 35.896H1148.37V16.864H1135.16C1132.04 16.864 1129.51 17.7307 1127.57 19.464C1125.63 21.1973 1124.66 23.4853 1124.66 26.328C1124.66 28.2 1125.11 29.864 1126.01 31.32C1126.91 32.776 1128.16 33.92 1129.75 34.752C1131.35 35.5147 1133.15 35.896 1135.16 35.896Z" fill="#EDECF2"/>
</svg>
