<svg width="27" height="21" viewBox="0 0 27 21" fill="none" xmlns="http://www.w3.org/2000/svg">
<path fill-rule="evenodd" clip-rule="evenodd" d="M1.06667 0.0870633C0.536644 0.270931 0.160678 0.689421 0.0459255 1.22319C0.00482573 1.41444 -0.00736176 3.56752 0.00408709 8.58961L0.0203371 15.6858L0.167537 15.9856C0.33431 16.3252 0.589931 16.573 0.940941 16.7354C1.15235 16.8332 1.29812 16.8486 2.16011 16.8636L3.13923 16.8808L3.19842 17.287C3.27487 17.8116 3.43046 18.221 3.71394 18.6438L3.94154 18.9833H2.18127C0.928912 18.9833 0.381108 19.0015 0.282658 19.0463C-0.0800119 19.2116 -0.0906693 19.7791 0.265406 19.9633C0.484359 20.0765 26.5165 20.0765 26.7355 19.9633C26.9865 19.8335 27.0718 19.5255 26.9317 19.2547C26.8131 19.0253 26.6489 18.9833 25.8702 18.9833H25.1605L25.3444 18.7273C25.689 18.2476 25.9448 17.512 25.9526 16.9784C25.955 16.8125 25.983 16.7776 26.2287 16.6355C26.3791 16.5484 26.5799 16.3747 26.6749 16.2495C26.9917 15.8319 27.0128 15.6647 26.9958 13.7L26.9805 11.9398L25.4769 8.94236C23.8727 5.74449 23.8203 5.6588 23.3159 5.4102C23.08 5.29392 23.0399 5.29191 20.6649 5.27693L18.2535 5.26173L18.2379 3.2193C18.2232 1.27152 18.2173 1.16574 18.1113 0.936758C17.9489 0.585748 17.7011 0.330127 17.3615 0.163354L17.0617 0.0161541L9.20053 0.00433602C1.76162 -0.00684903 1.32466 -0.00241718 1.06667 0.0870633ZM16.9222 1.12015C17.0022 1.16151 17.0959 1.25759 17.1306 1.33367C17.1785 1.43877 17.1936 3.19609 17.1936 8.64485V15.8177L13.2498 15.8147L9.30604 15.8117L9.12587 15.4322C8.87616 14.9061 8.29343 14.3242 7.74963 14.0579C6.81748 13.6015 5.83277 13.6015 4.90061 14.0579C4.35682 14.3242 3.77408 14.9061 3.52437 15.4322L3.3442 15.8117L2.41019 15.8147C1.79238 15.8167 1.42934 15.7964 1.33785 15.7546C1.14138 15.6652 1.04915 15.4502 1.04915 15.0817V14.7625H1.89083C2.80874 14.7625 2.96201 14.7276 3.08436 14.491C3.19325 14.2805 3.19325 12.0789 3.08436 11.8684C2.96201 11.6318 2.80874 11.5969 1.89083 11.5969H1.04915L1.051 6.51879C1.053 1.06955 1.04303 1.27141 1.31875 1.11862C1.51402 1.01036 16.7128 1.01189 16.9222 1.12015ZM5.53953 3.22901C5.08216 3.48252 5.27352 4.21055 5.79752 4.21055C6.06486 4.21055 6.32512 3.95282 6.32512 3.68807C6.32512 3.29195 5.88737 3.03617 5.53953 3.22901ZM7.64992 3.22901C7.29632 3.42496 7.30793 3.983 7.66902 4.1475C7.86745 4.23793 14.5961 4.23793 14.7945 4.1475C14.9457 4.0786 15.0832 3.85738 15.0832 3.68295C15.0832 3.50853 14.9457 3.28731 14.7945 3.2184C14.5832 3.12207 7.82471 3.13209 7.64992 3.22901ZM9.76031 5.3394C9.40671 5.53535 9.41832 6.09339 9.7794 6.25789C9.97641 6.34763 14.5975 6.34763 14.7945 6.25789C14.9457 6.18899 15.0832 5.96777 15.0832 5.79334C15.0832 5.61892 14.9457 5.3977 14.7945 5.32879C14.5849 5.23325 9.93415 5.24301 9.76031 5.3394ZM22.9659 6.43205C23.0436 6.49315 23.2014 6.73057 23.3165 6.95965L23.5259 7.37613H21.6285C19.5876 7.37613 19.515 7.38489 19.3792 7.64758C19.2783 7.84263 19.2672 12.1443 19.3671 12.3634C19.5003 12.6558 19.4558 12.6521 22.8363 12.6521H25.9517V14.0444C25.9517 15.3757 25.947 15.4421 25.8428 15.5612C25.7829 15.6298 25.7232 15.6608 25.71 15.6303C25.5819 15.3329 25.2274 14.8476 24.9404 14.5769C23.9696 13.6609 22.5832 13.4599 21.3616 14.0579C20.8178 14.3242 20.2351 14.9061 19.9854 15.4322L19.8052 15.8117L19.027 15.8147L18.2488 15.8177V11.0693V6.32094H20.5367C22.783 6.32094 22.8272 6.32294 22.9659 6.43205ZM24.8438 10.0141L25.6355 11.5969H22.9973H20.3592V10.0141V8.43133H22.2056H24.0521L24.8438 10.0141ZM2.10435 13.1797V13.7073H1.57675H1.04915V13.1797V12.6521H1.57675H2.10435V13.1797ZM7.19191 14.964C7.66796 15.1868 7.97597 15.4898 8.21207 15.9675C8.39826 16.3442 8.40913 16.3941 8.40913 16.8729C8.40913 17.3517 8.39826 17.4015 8.21207 17.7782C7.97476 18.2585 7.66928 18.5575 7.17877 18.7899C6.86005 18.9409 6.77838 18.9569 6.32512 18.9569C5.87186 18.9569 5.79019 18.9409 5.47147 18.7899C4.98096 18.5575 4.67548 18.2585 4.43817 17.7782C4.25219 17.402 4.24111 17.3513 4.24111 16.8756C4.24111 16.4193 4.25689 16.3384 4.4081 16.0192C4.62009 15.5717 4.92192 15.2441 5.31562 15.0343C5.73121 14.8128 5.9586 14.7627 6.44378 14.7858C6.76044 14.8009 6.92911 14.8411 7.19191 14.964ZM23.6529 14.964C24.129 15.1868 24.437 15.4898 24.6731 15.9675C24.8593 16.3442 24.8702 16.3941 24.8702 16.8729C24.8702 17.3517 24.8593 17.4015 24.6731 17.7782C24.4358 18.2585 24.1303 18.5575 23.6398 18.7899C23.3211 18.9409 23.2394 18.9569 22.7861 18.9569C22.3329 18.9569 22.2512 18.9409 21.9325 18.7899C21.442 18.5575 21.1365 18.2585 20.8992 17.7782C20.7132 17.402 20.7021 17.3513 20.7021 16.8756C20.7021 16.4193 20.7179 16.3384 20.8691 16.0192C21.0811 15.5717 21.383 15.2441 21.7766 15.0343C22.1922 14.8128 22.4196 14.7627 22.9048 14.7858C23.2215 14.8009 23.3901 14.8411 23.6529 14.964ZM5.96694 15.8742C5.71554 15.9511 5.39265 16.2965 5.32005 16.5662C5.19374 17.0352 5.38141 17.5282 5.7808 17.7765C6.08005 17.9625 6.5953 17.9549 6.88965 17.7601C7.21898 17.5422 7.35394 17.2843 7.35394 16.8729C7.35394 16.4667 7.21924 16.2037 6.90469 15.9956C6.6784 15.8458 6.24356 15.7895 5.96694 15.8742ZM22.428 15.8742C22.1766 15.9511 21.8537 16.2965 21.7811 16.5662C21.6548 17.0352 21.8424 17.5282 22.2418 17.7765C22.4012 17.8756 22.5165 17.9017 22.7948 17.9017C23.1005 17.9017 23.1756 17.881 23.3705 17.7434C23.6757 17.5278 23.8152 17.2458 23.8142 16.8464C23.8132 16.468 23.6705 16.1972 23.3657 15.9956C23.1394 15.8458 22.7046 15.7895 22.428 15.8742ZM19.6589 17.283C19.7359 17.8115 19.8909 18.2202 20.175 18.6438L20.4026 18.9833H14.5556H8.7087L8.93631 18.6438C9.22036 18.2202 9.37537 17.8115 9.4524 17.283L9.51218 16.8729H14.5556H19.5991L19.6589 17.283Z" fill="white"/>
</svg>
