<svg width="19" height="27" viewBox="0 0 19 27" fill="none" xmlns="http://www.w3.org/2000/svg">
<path fill-rule="evenodd" clip-rule="evenodd" d="M7.97185 0.0143291C4.81912 0.222259 3.25394 0.615707 2.52858 1.38263C2.11613 1.81877 2.0547 2.28501 2.37429 2.55396C2.59938 2.7434 2.87231 2.73316 3.07785 2.52763C3.1648 2.44072 3.23458 2.3171 3.23458 2.25006C3.23458 2.07397 3.515 1.88366 4.02596 1.71307C4.45517 1.56978 5.46828 1.33144 5.49599 1.36725C5.55024 1.43729 6.23342 3.21728 6.21366 3.23704C6.19991 3.25075 5.74752 3.27932 5.20829 3.30051C1.67643 3.43937 0.491504 3.95247 0.0901606 5.51669C0.00590867 5.84488 0 6.35584 0 13.2795V20.6911L0.108703 21.0476C0.465169 22.2172 1.17133 23.1131 2.10345 23.5784C2.65195 23.8522 2.71043 23.7447 1.60007 24.5044C0.63082 25.1675 0.560321 25.237 0.560321 25.5302C0.560321 25.903 0.91149 26.1517 1.25395 26.0215C1.32669 25.9939 2.06942 25.4995 2.90445 24.923L4.42267 23.8747H9.5H14.5773L16.0972 24.9241C16.9331 25.5013 17.6686 25.9969 17.7316 26.0257C17.8972 26.1012 18.175 26.0329 18.3169 25.8819C18.4879 25.6999 18.4878 25.3604 18.3167 25.1783C18.2491 25.1063 17.7858 24.7667 17.2871 24.4235C16.7884 24.0804 16.3968 23.7849 16.4168 23.767C16.4367 23.7491 16.5791 23.6948 16.7332 23.6464C17.6346 23.3631 18.4073 22.5946 18.757 21.6334C19.0049 20.9519 19 21.1211 19 13.2541C19 6.35472 18.994 5.84488 18.9098 5.51669C18.5085 3.95247 17.3236 3.43937 13.7917 3.30051C13.2525 3.27932 12.8001 3.25075 12.7863 3.23704C12.768 3.21871 13.4413 1.4566 13.4988 1.37245C13.524 1.33557 14.6263 1.59601 15.0013 1.72754C15.5151 1.90766 15.7654 2.07886 15.7654 2.25006C15.7654 2.3171 15.8352 2.44072 15.9221 2.52763C16.1331 2.73861 16.4096 2.74508 16.6323 2.54428C17.0649 2.15435 16.7439 1.40719 15.9521 0.961323C15.2709 0.577656 14.0211 0.279972 12.378 0.110042C11.6587 0.0356214 8.64225 -0.0298853 7.97185 0.0143291ZM10.5952 1.104C11.2115 1.12917 11.8674 1.16554 12.0527 1.18479L12.3895 1.21978L11.9834 2.23223L11.5773 3.24468H9.5H7.42268L7.01584 2.23045L6.60904 1.21622L6.97208 1.17929C7.26854 1.14908 8.2137 1.10237 9.29624 1.06442C9.3943 1.06101 9.97882 1.07879 10.5952 1.104ZM14.7212 4.44642C16.0044 4.53694 16.6284 4.65455 17.1236 4.89931C17.5461 5.10816 17.761 5.37564 17.8544 5.80917C17.8948 5.99688 17.9064 8.19314 17.8951 13.5088L17.8793 20.9457L17.7475 21.2842C17.4744 21.9856 16.9882 22.4349 16.2515 22.6667L15.8928 22.7795H9.39812H2.90348L2.64879 22.6442C2.0819 22.3429 1.68081 21.9322 1.38812 21.3533C1.07719 20.7383 1.09517 21.2351 1.09517 13.2529C1.09517 5.31752 1.08132 5.70648 1.37946 5.27631C1.67368 4.85174 2.51406 4.58288 3.92225 4.46287C5.72323 4.3094 12.6291 4.29885 14.7212 4.44642ZM3.3874 6.57671C2.85499 6.7251 2.48778 7.00001 2.29054 7.39784C2.19396 7.59268 2.19035 7.7214 2.19035 10.9873V14.3747L2.33766 14.6655C2.52557 15.0362 2.87348 15.3842 3.2329 15.5607L3.51474 15.6991H9.47453H15.4343L15.7206 15.5649C16.0483 15.4112 16.3889 15.1217 16.559 14.8522C16.8374 14.4112 16.8392 14.3833 16.8239 10.8547L16.8096 7.59991L16.6675 7.34359C16.4952 7.03287 16.2553 6.83365 15.845 6.66051L15.5362 6.53021L9.5764 6.52149C4.93144 6.51472 3.56604 6.52689 3.3874 6.57671ZM15.4965 7.68956C15.5867 7.73892 15.6846 7.82434 15.7141 7.87941C15.7504 7.94716 15.7632 8.97387 15.7538 11.0538L15.7399 14.128L15.6027 14.3079C15.3193 14.6793 15.7524 14.6549 9.46164 14.6549H3.80998L3.64158 14.5403C3.54897 14.4772 3.42524 14.361 3.36661 14.2818C3.26117 14.1395 3.26005 14.1044 3.26005 10.9858C3.26005 7.89301 3.26199 7.83209 3.36193 7.75685C3.41796 7.71473 3.55549 7.65859 3.66756 7.63215C3.79001 7.60327 6.15747 7.58723 9.60187 7.59201C14.9676 7.5994 15.3429 7.60562 15.4965 7.68956ZM4.01358 17.4069C3.61224 17.4643 3.11804 17.7191 2.81016 18.0274C1.96719 18.8715 1.96719 20.2184 2.81016 21.0624C3.5015 21.7547 4.59968 21.9008 5.43298 21.4114C5.77681 21.2095 6.11586 20.8286 6.30092 20.4364C6.45796 20.1035 6.46917 20.0442 6.46917 19.5449C6.46917 19.0457 6.45796 18.9864 6.30092 18.6535C5.88343 17.7686 4.96883 17.2701 4.01358 17.4069ZM14.4665 17.3901C13.6789 17.4793 13.0369 17.9418 12.6931 18.6676C12.5427 18.9849 12.5308 19.0494 12.5308 19.5449C12.5308 20.0405 12.5427 20.105 12.6931 20.4223C13.2284 21.5523 14.4726 22.0096 15.5896 21.4869C16.9256 20.8618 17.2394 19.0784 16.1971 18.0347C15.7382 17.5751 15.0605 17.3227 14.4665 17.3901ZM4.78866 18.5702C5.44958 18.8705 5.62532 19.7195 5.13815 20.2587C4.64343 20.8063 3.74891 20.7026 3.39163 20.0563C3.08538 19.5023 3.35332 18.7697 3.94925 18.5319C4.15234 18.4508 4.56759 18.4698 4.78866 18.5702ZM15.2677 18.6581C16.0884 19.2343 15.7607 20.522 14.7726 20.604C13.7901 20.6855 13.2045 19.5771 13.8448 18.8479C14.0837 18.5758 14.3493 18.4684 14.7328 18.4886C14.9866 18.502 15.0937 18.536 15.2677 18.6581Z" fill="white"/>
</svg>
