<svg width="18" height="17" viewBox="0 0 18 17" fill="none" xmlns="http://www.w3.org/2000/svg">
<path fill-rule="evenodd" clip-rule="evenodd" d="M3.65862 0.392066C1.5088 1.25694 -0.239592 3.50716 0.026926 6.83099C0.22694 9.32543 1.60217 11.3543 3.22682 12.8809C4.85231 14.4082 6.77608 15.4806 8.1975 16.07C8.68363 16.2716 9.22993 16.2833 9.72623 16.0943C11.2183 15.5262 13.135 14.4591 14.7441 12.9254C16.3516 11.3931 17.691 9.35559 17.9304 6.85226C18.3811 3.47707 16.5791 1.23215 14.3681 0.385463C12.522 -0.321483 10.2698 -0.0681419 8.96342 1.43874C7.65017 -0.079563 5.47567 -0.338931 3.65862 0.392066ZM4.12732 1.55713C5.8091 0.880553 7.62086 1.33355 8.41036 2.84832C8.5194 3.05753 8.7365 3.18796 8.97242 3.18599C9.20833 3.18402 9.42323 3.04997 9.52876 2.83897C10.263 1.37084 12.1519 0.881508 13.919 1.55822C15.6195 2.20943 17.0588 3.924 16.6842 6.69673C16.6831 6.70513 16.6821 6.71355 16.6813 6.72199C16.4824 8.83653 15.3475 10.6152 13.8776 12.0163C12.4065 13.4186 10.6389 14.403 9.27936 14.9207C9.08721 14.9939 8.87288 14.9906 8.67852 14.91C7.3639 14.3649 5.57825 13.3671 4.08674 11.9657C2.5944 10.5635 1.44506 8.80506 1.27872 6.73061C1.05616 3.955 2.48678 2.21712 4.12732 1.55713Z" fill="white"/>
</svg>
