<svg width="18" height="18" viewBox="0 0 18 18" fill="none" xmlns="http://www.w3.org/2000/svg">
<path d="M6.01363 5.9584C5.02993 6.79426 4.66944 8.31865 5.51884 9.54158C6.31369 10.686 7.31494 11.687 8.45907 12.4815C9.68205 13.3307 11.2064 12.9701 12.0422 11.9864L12.0515 11.9907C13.119 12.4852 14.2529 12.8242 15.4167 12.9969V15.4167L15.4157 15.4166L15.4131 15.4167C8.10305 15.427 2.57552 9.83519 2.58334 2.58662V2.58333H5.00275L5.00291 2.58441C5.17566 3.7481 5.51447 4.88099 6.00904 5.94849L6.01363 5.9584ZM15.4157 17.25H16.3333C16.8396 17.25 17.25 16.8396 17.25 16.3333V12.2062C17.25 11.752 16.9173 11.3662 16.4679 11.2995L15.6849 11.1833C14.6946 11.0363 13.7305 10.748 12.822 10.3272L12.1319 10.0075C11.732 9.82225 11.2569 9.94783 11.0007 10.3065L10.6883 10.7439C10.4145 11.1272 9.89171 11.2443 9.50476 10.9756C8.54016 10.3058 7.69473 9.46056 7.0246 8.49574C6.75583 8.10876 6.87292 7.58593 7.25635 7.31211L7.69354 6.99989C8.05225 6.74373 8.17785 6.26853 7.99255 5.86858L7.67252 5.1778C7.25168 4.26945 6.96337 3.30543 6.81637 2.3152L6.70012 1.53206C6.63341 1.08271 6.24766 0.75 5.79339 0.75H1.66668C1.16042 0.75 0.750009 1.16041 0.750009 1.66667V2.58464C0.7411 10.8405 7.08438 17.2618 15.4157 17.25Z" fill="white"/>
</svg>
