<svg width="12" height="14" viewBox="0 0 12 14" fill="none" xmlns="http://www.w3.org/2000/svg">
<path d="M6 13.75C5.0527 12.942 4.17464 12.0561 3.375 11.1017C2.175 9.66848 0.750001 7.53398 0.750001 5.49998C0.748937 3.37564 2.02819 1.46002 3.9908 0.647025C5.95342 -0.16597 8.21255 0.283907 9.714 1.78673C10.7013 2.76968 11.2544 4.10677 11.25 5.49998C11.25 7.53398 9.825 9.66848 8.625 11.1017C7.82536 12.0561 6.9473 12.942 6 13.75ZM6 3.24998C5.19615 3.24998 4.45337 3.67882 4.05144 4.37498C3.64952 5.07113 3.64952 5.92882 4.05144 6.62498C4.45337 7.32113 5.19615 7.74998 6 7.74998C7.24264 7.74998 8.25 6.74262 8.25 5.49998C8.25 4.25734 7.24264 3.24998 6 3.24998Z" fill="#4878D3"/>
</svg>
