<svg width="18" height="14" viewBox="0 0 18 14" fill="none" xmlns="http://www.w3.org/2000/svg">
<path d="M16.9453 0.160156H1.15281C0.991721 0.160156 0.837225 0.224151 0.723315 0.338061C0.609404 0.451971 0.54541 0.606467 0.54541 0.767561V12.9157C0.54541 13.0767 0.609404 13.2312 0.723315 13.3451C0.837225 13.4591 0.991721 13.5231 1.15281 13.5231H16.9453C17.1064 13.5231 17.2609 13.4591 17.3748 13.3451C17.4887 13.2312 17.5527 13.0767 17.5527 12.9157V0.767561C17.5527 0.606467 17.4887 0.451971 17.3748 0.338061C17.2609 0.224151 17.1064 0.160156 16.9453 0.160156ZM9.42187 7.92848C9.31527 8.01135 9.18409 8.05634 9.04907 8.05634C8.91405 8.05634 8.78288 8.01135 8.67628 7.92848L2.73017 3.30385L3.47576 2.34491L9.04907 6.6795L14.6224 2.34491L15.368 3.30385L9.42187 7.92848Z" fill="#4878D3"/>
</svg>
