<svg width="17" height="17" viewBox="0 0 17 17" fill="none" xmlns="http://www.w3.org/2000/svg">
<path d="M15.0468 16.8408C6.51519 16.8529 0.0401988 10.3003 0.049326 1.84333C0.049326 1.29105 0.497041 0.84082 1.04933 0.84082H3.68868C4.18426 0.84082 4.60525 1.20495 4.67802 1.69515C4.85243 2.87002 5.19449 4.01379 5.6938 5.09152L5.79656 5.31332C5.93945 5.62173 5.8426 5.98816 5.56599 6.18569C4.74862 6.76941 4.43624 7.94437 5.07301 8.86118C5.87209 10.0117 6.87937 11.0187 8.02959 11.8174C8.94634 12.454 10.1211 12.1417 10.7048 11.3245C10.9025 11.0477 11.2691 10.9508 11.5777 11.0938L11.7985 11.196C12.8763 11.6953 14.0202 12.0374 15.1951 12.2118C15.6854 12.2845 16.0493 12.7055 16.0493 13.2011V15.8408C16.0493 16.3931 15.6005 16.8408 15.0482 16.8408L15.0468 16.8408Z" fill="#4878D3"/>
</svg>
