<svg width="22" height="20" viewBox="0 0 22 20" fill="none" xmlns="http://www.w3.org/2000/svg">
<path fill-rule="evenodd" clip-rule="evenodd" d="M4.61995 0.720986C2.05209 1.75403 -0.0362701 4.4418 0.282072 8.41195C0.520979 11.3914 2.16362 13.8149 4.10418 15.6382C6.04575 17.4625 8.34359 18.7435 10.0414 19.4475C10.6221 19.6883 11.2746 19.7022 11.8674 19.4765C13.6495 18.7979 15.939 17.5233 17.861 15.6914C19.7811 13.8611 21.381 11.4275 21.6668 8.43736C22.2053 4.40586 20.0528 1.72442 17.4119 0.713098C15.2069 -0.131313 12.5167 0.17129 10.9563 1.97118C9.38766 0.157648 6.79032 -0.152154 4.61995 0.720986ZM5.17979 2.11259C7.18859 1.30446 9.35265 1.84554 10.2957 3.65485C10.4259 3.90474 10.6852 4.06054 10.967 4.05819C11.2488 4.05583 11.5055 3.89572 11.6315 3.64369C12.5086 1.89008 14.7647 1.3056 16.8755 2.1139C18.9066 2.89173 20.6258 4.9397 20.1783 8.25159C20.177 8.26162 20.1758 8.27168 20.1749 8.28176C19.9373 10.8075 18.5818 12.9321 16.826 14.6056C15.0688 16.2806 12.9575 17.4564 11.3336 18.0747C11.1041 18.1621 10.8481 18.1582 10.616 18.0619C9.04572 17.4108 6.91285 16.219 5.13132 14.5451C3.34879 12.8702 1.97596 10.7699 1.77727 8.29206C1.51144 4.97673 3.22025 2.90092 5.17979 2.11259Z" fill="#7F7F96"/>
</svg>
