<svg width="91" height="21" viewBox="0 0 91 21" fill="none" xmlns="http://www.w3.org/2000/svg">
<path d="M91 14.4349V12.3801C91 9.06446 88.1629 6.33887 84.6374 6.33887H83.2562C79.7336 6.33887 76.8936 9.06446 76.8936 12.3801V14.5142C76.8934 14.7374 76.9066 14.9604 76.9332 15.182C77.284 18.1879 79.9714 20.5554 83.2562 20.5554H84.6374C87.6272 20.5554 90.1561 18.5652 90.8474 15.9129H87.0136C86.7337 16.4858 86.2986 16.9686 85.7579 17.3064C85.2171 17.6443 84.5925 17.8236 83.9549 17.8239C82.4137 17.8239 81.0884 16.8435 80.6979 15.4858C80.6199 15.2158 80.5804 14.9361 80.5805 14.6551V14.4349H91ZM80.5791 12.2333C80.5791 10.472 82.1128 9.06447 83.9549 9.06447C85.7969 9.06447 87.3307 10.4647 87.3307 12.2333V12.8204H80.5791V12.2333Z" fill="white"/>
<path d="M6.43898 1.47363H10.9626L8.05056 9.64162L4.31956 20.1081L4.29315 20.18H0L3.05877 11.2928L6.43898 1.47363Z" fill="white"/>
<path d="M21.925 20.18H17.6318L13.4766 8.5232L10.9624 1.47363H15.486L17.7757 8.1269L21.925 20.18Z" fill="white"/>
<path d="M17.4793 20.1797H4.2168L4.31954 20.1078L10.8862 15.4668L17.4793 20.1797Z" fill="white"/>
<path d="M28.6721 0V20.18H24.8384V2.72413L28.6721 0Z" fill="white"/>
<path d="M70.5311 15.4667C70.5311 16.864 71.2973 17.6684 72.4465 17.6684C73.1834 17.6561 73.9116 17.5068 74.5938 17.228V19.8802C73.5685 20.2824 72.4749 20.4818 71.3736 20.4673C66.8515 20.4673 66.6211 17.0049 66.6211 15.753V8.98373H64.167V6.47976H66.6211V1.39844H70.4519V3.82902L66.6211 6.55315H70.4519L74.6687 6.47976V8.98373H70.5297L70.5311 15.4667Z" fill="white"/>
<path d="M45.9214 14.3617V12.3744C45.9214 8.98536 43.0857 6.25977 39.5587 6.25977H38.1791C35.6017 6.25977 33.3942 7.71577 32.3918 9.79115C32.0114 10.5731 31.8141 11.4314 31.8149 12.301V14.4351C31.8149 17.7507 34.6521 20.4763 38.1791 20.4763H39.5587C42.5485 20.4763 45.0789 18.4861 45.7688 15.8338H41.935C41.6555 16.409 41.2197 16.8939 40.6774 17.2329C40.1352 17.5719 39.5084 17.7514 38.8689 17.7507C37.0284 17.7507 35.4931 16.3505 35.4931 14.5819V14.3617H45.9214ZM38.8689 9.05875C40.7095 9.05875 42.2447 10.459 42.2447 12.2276V12.8147H35.4931V12.2276C35.4927 11.7251 35.6183 11.2306 35.8586 10.7892C36.1592 10.2575 36.5972 9.8163 37.1268 9.51187C37.6564 9.20744 38.2581 9.05094 38.8689 9.05875Z" fill="white"/>
<path d="M62.4803 11.4877V20.1782H58.648V11.8561C58.6477 11.6766 58.6325 11.4974 58.6025 11.3204C58.4557 10.453 57.898 9.13199 55.8138 9.13199C55.2501 9.1215 54.6955 9.27443 54.2169 9.57232C53.4243 10.0684 53.0251 10.8859 52.824 11.4173V20.1812H48.9873V6.55317H52.821V9.79395C52.891 9.53734 52.9783 9.28578 53.0823 9.04099C53.9086 7.09624 55.5775 6.33301 57.4973 6.33301C61.7919 6.33301 62.4039 10.017 62.4803 11.4877Z" fill="white"/>
<path d="M10.8862 15.4675L17.4793 20.179H0L3.05877 11.3021C4.68994 10.6581 6.35601 10.1064 8.0491 9.64941L4.31956 20.1085L10.8862 15.4675Z" fill="white"/>
<path d="M17.7756 8.125L21.9249 20.1781H17.6317L13.4766 8.52276C14.8641 8.32608 16.2971 8.19349 17.7756 8.125Z" fill="white"/>
<path d="M24.8384 8.36621C26.1403 8.51299 27.4157 8.70966 28.6721 8.95331V20.1771H24.8384V8.36621Z" fill="white"/>
<path d="M45.7688 15.8337C45.0789 18.4859 42.5485 20.4762 39.5587 20.4762H38.1791C34.6565 20.4762 31.8149 17.7506 31.8149 14.4349V12.3009C31.8141 11.4313 32.0114 10.573 32.3918 9.79102C33.566 10.0934 34.7167 10.4295 35.8615 10.7891C35.6213 11.2304 35.4956 11.725 35.496 12.2275V12.8146H41.6694C42.9991 13.3151 44.326 13.8346 45.6543 14.3601H35.496V14.5803C35.496 16.3416 37.0284 17.7491 38.8718 17.7491C39.5113 17.7498 40.1381 17.5703 40.6804 17.2313C41.2226 16.8923 41.6585 16.4074 41.938 15.8322L45.7688 15.8337Z" fill="white"/>
<path d="M48.9873 15.6797C50.2554 16.1787 51.5309 16.6748 52.821 17.1474V20.171H48.9873V15.6797Z" fill="white"/>
<path d="M58.6479 19.1641C59.8143 19.5261 60.9993 19.8642 62.2028 20.1783H58.6479V19.1641Z" fill="white"/>
<path d="M48.9873 6.55371H52.821V8.91384C51.437 8.23868 50.1615 7.53563 48.9873 6.81791V6.55371Z" fill="white"/>
<path d="M62.4805 11.4877V12.5416C61.1194 12.1599 59.8268 11.7529 58.6027 11.3204C58.4559 10.453 57.8982 9.13199 55.814 9.13199C55.2503 9.12149 54.6957 9.27443 54.2171 9.57231C53.8325 9.39765 53.4553 9.22299 53.0854 9.04392C53.9118 7.09916 55.5806 6.33594 57.5004 6.33594C61.7921 6.333 62.4041 10.017 62.4805 11.4877Z" fill="white"/>
<path d="M70.4519 6.55315L74.6687 6.47976V8.98373H70.5297V14.3263C69.1735 14.0983 67.8701 13.8468 66.6196 13.5719V8.98373H64.167V6.47976H66.6211V1.39844H70.4519V3.82902L66.6211 6.55315H70.4519Z" fill="white"/>
<path d="M91 14.4349V12.3801C91 9.06446 88.1629 6.33887 84.6374 6.33887H83.2562C79.7336 6.33887 76.8936 9.06446 76.8936 12.3801V14.5142C76.8934 14.7374 76.9066 14.9604 76.9332 15.182C78.1485 15.3024 79.4005 15.408 80.6906 15.4917C80.6126 15.2217 80.5731 14.942 80.5732 14.661V14.4408L91 14.4349ZM80.5791 12.2333C80.5791 10.472 82.1128 9.06447 83.9549 9.06447C85.7969 9.06447 87.3307 10.4647 87.3307 12.2333V12.8204H80.5791V12.2333Z" fill="white"/>
</svg>
