<svg width="262" height="25" viewBox="0 0 262 25" fill="none" xmlns="http://www.w3.org/2000/svg">
<path d="M30.7297 24H26.7517L23.9637 6.762L16.2457 23.626H15.2597L7.50766 6.762L4.71966 24H0.741656L4.61766 0.199998H8.45966L15.7357 16.384L23.0117 0.199998H26.8877L30.7297 24ZM52.0479 14.854C52.0479 15.194 52.0253 15.6133 51.9799 16.112H37.0879C37.3146 17.5853 37.9266 18.7527 38.9239 19.614C39.9439 20.4753 41.2019 20.906 42.6979 20.906C43.4233 20.906 44.1033 20.804 44.7379 20.6C45.3726 20.3733 45.9279 20.0673 46.4039 19.682C46.9026 19.274 47.3106 18.7867 47.6279 18.22H51.6059C50.8806 20.1693 49.7246 21.6993 48.1379 22.81C46.5513 23.898 44.7379 24.442 42.6979 24.442C40.0006 24.442 37.7453 23.524 35.9319 21.688C34.1413 19.852 33.2459 17.5627 33.2459 14.82C33.2459 12.0773 34.1413 9.788 35.9319 7.952C37.7453 6.116 40.0006 5.198 42.6979 5.198C44.5339 5.198 46.1659 5.64 47.5939 6.524C49.0219 7.38533 50.1213 8.55267 50.8919 10.026C51.6626 11.4767 52.0479 13.086 52.0479 14.854ZM42.6979 8.598C41.2926 8.598 40.0913 8.99467 39.0939 9.788C38.1193 10.5813 37.4733 11.6693 37.1559 13.052H48.2739C48.0473 12.1227 47.6733 11.3293 47.1519 10.672C46.6306 9.992 45.9846 9.482 45.2139 9.142C44.4659 8.77933 43.6273 8.598 42.6979 8.598ZM70.0751 5.64V9.04H63.6151V24H59.9431V9.04H53.4491V5.64H70.0751ZM88.2239 5.64H91.1479V24H88.0879L87.7139 21.756C85.9459 23.5467 83.7359 24.442 81.0839 24.442C78.3413 24.442 76.0519 23.524 74.2159 21.688C72.4026 19.852 71.4959 17.5627 71.4959 14.82C71.4959 12.0547 72.4026 9.76533 74.2159 7.952C76.0519 6.116 78.3413 5.198 81.0839 5.198C83.7813 5.198 86.0139 6.10467 87.7819 7.918L88.2239 5.64ZM77.0379 19.138C78.1939 20.2713 79.6333 20.838 81.3559 20.838C83.1013 20.838 84.5293 20.2713 85.6399 19.138C86.7733 17.982 87.3399 16.5427 87.3399 14.82C87.3399 13.0747 86.7733 11.6353 85.6399 10.502C84.5293 9.36867 83.1013 8.802 81.3559 8.802C80.2226 8.802 79.1913 9.06267 78.2619 9.584C77.3553 10.1053 76.6413 10.8307 76.1199 11.76C75.5986 12.6667 75.3379 13.6867 75.3379 14.82C75.3379 16.5427 75.9046 17.982 77.0379 19.138ZM99.7598 5.64H112.238V24H108.532V8.904H102.854L102.038 17.03C101.788 19.614 101.12 21.4387 100.032 22.504C98.9664 23.5693 97.3458 24.102 95.1698 24.102H94.5238V20.634H95.4078C97.1984 20.634 98.2071 19.512 98.4338 17.268L99.7598 5.64ZM120.844 5.64H133.322V24H129.616V8.904H123.938L123.122 17.03C122.872 19.614 122.204 21.4387 121.116 22.504C120.05 23.5693 118.43 24.102 116.254 24.102H115.608V20.634H116.492C118.282 20.634 119.291 19.512 119.518 17.268L120.844 5.64ZM155.223 0.199998H158.045V24H154.169V7.51L141.691 24H138.971V0.199998H142.881V16.52L155.223 0.199998ZM175.973 5.64H179.679V24H175.973V16.316H167.473V24H163.733V5.64H167.473V12.848H175.973V5.64ZM197.493 14.412C197.924 14.5933 198.309 14.8313 198.649 15.126C199.012 15.398 199.318 15.7267 199.567 16.112C199.817 16.4747 200.009 16.8827 200.145 17.336C200.281 17.7893 200.349 18.254 200.349 18.73C200.349 20.226 199.805 21.484 198.717 22.504C197.629 23.5013 196.269 24 194.637 24H185.049V5.64H194.501C196.043 5.64 197.301 6.082 198.275 6.966C199.273 7.82733 199.771 8.94933 199.771 10.332C199.771 11.1933 199.567 11.9867 199.159 12.712C198.751 13.4373 198.196 14.004 197.493 14.412ZM196.031 10.944C196.031 10.3093 195.816 9.79933 195.385 9.414C194.977 9.02867 194.433 8.836 193.753 8.836H188.755V13.052H193.753C194.433 13.052 194.977 12.8593 195.385 12.474C195.816 12.0887 196.031 11.5787 196.031 10.944ZM193.957 20.702C194.705 20.702 195.306 20.4867 195.759 20.056C196.235 19.6253 196.473 19.0813 196.473 18.424C196.473 17.744 196.235 17.1887 195.759 16.758C195.283 16.3273 194.671 16.112 193.923 16.112H188.755V20.702H193.957ZM222.048 14.854C222.048 15.194 222.025 15.6133 221.98 16.112H207.088C207.315 17.5853 207.927 18.7527 208.924 19.614C209.944 20.4753 211.202 20.906 212.698 20.906C213.423 20.906 214.103 20.804 214.738 20.6C215.373 20.3733 215.928 20.0673 216.404 19.682C216.903 19.274 217.311 18.7867 217.628 18.22H221.606C220.881 20.1693 219.725 21.6993 218.138 22.81C216.551 23.898 214.738 24.442 212.698 24.442C210.001 24.442 207.745 23.524 205.932 21.688C204.141 19.852 203.246 17.5627 203.246 14.82C203.246 12.0773 204.141 9.788 205.932 7.952C207.745 6.116 210.001 5.198 212.698 5.198C214.534 5.198 216.166 5.64 217.594 6.524C219.022 7.38533 220.121 8.55267 220.892 10.026C221.663 11.4767 222.048 13.086 222.048 14.854ZM212.698 8.598C211.293 8.598 210.091 8.99467 209.094 9.788C208.119 10.5813 207.473 11.6693 207.156 13.052H218.274C218.047 12.1227 217.673 11.3293 217.152 10.672C216.631 9.992 215.985 9.482 215.214 9.142C214.466 8.77933 213.627 8.598 212.698 8.598ZM234.317 24.442C231.597 24.442 229.308 23.524 227.449 21.688C225.613 19.8293 224.695 17.54 224.695 14.82C224.695 12.0773 225.613 9.788 227.449 7.952C229.308 6.116 231.608 5.198 234.351 5.198C236.595 5.198 238.544 5.83267 240.199 7.102C241.854 8.37133 242.93 10.06 243.429 12.168H239.689C239.213 11.1253 238.499 10.3093 237.547 9.72C236.595 9.108 235.518 8.802 234.317 8.802C233.252 8.802 232.277 9.06267 231.393 9.584C230.509 10.1053 229.806 10.8307 229.285 11.76C228.786 12.6667 228.537 13.6867 228.537 14.82C228.537 16.52 229.092 17.948 230.203 19.104C231.314 20.26 232.685 20.838 234.317 20.838C235.518 20.838 236.584 20.532 237.513 19.92C238.465 19.308 239.19 18.4353 239.689 17.302H243.497C242.976 19.4553 241.876 21.1893 240.199 22.504C238.544 23.796 236.584 24.442 234.317 24.442ZM261.558 5.64V9.04H255.098V24H251.426V9.04H244.932V5.64H261.558Z" fill="#30487E"/>
</svg>
