<svg width="262" height="25" viewBox="0 0 262 25" fill="none" xmlns="http://www.w3.org/2000/svg">
<path d="M30.7282 24H26.7502L23.9622 6.762L16.2442 23.626H15.2582L7.50619 6.762L4.71819 24H0.740191L4.61619 0.199998H8.45819L15.7342 16.384L23.0102 0.199998H26.8862L30.7282 24ZM52.0465 14.854C52.0465 15.194 52.0238 15.6133 51.9785 16.112H37.0865C37.3131 17.5853 37.9251 18.7527 38.9225 19.614C39.9425 20.4753 41.2005 20.906 42.6965 20.906C43.4218 20.906 44.1018 20.804 44.7365 20.6C45.3711 20.3733 45.9265 20.0673 46.4025 19.682C46.9011 19.274 47.3091 18.7867 47.6265 18.22H51.6045C50.8791 20.1693 49.7231 21.6993 48.1365 22.81C46.5498 23.898 44.7365 24.442 42.6965 24.442C39.9991 24.442 37.7438 23.524 35.9305 21.688C34.1398 19.852 33.2445 17.5627 33.2445 14.82C33.2445 12.0773 34.1398 9.788 35.9305 7.952C37.7438 6.116 39.9991 5.198 42.6965 5.198C44.5325 5.198 46.1645 5.64 47.5925 6.524C49.0205 7.38533 50.1198 8.55267 50.8905 10.026C51.6611 11.4767 52.0465 13.086 52.0465 14.854ZM42.6965 8.598C41.2911 8.598 40.0898 8.99467 39.0925 9.788C38.1178 10.5813 37.4718 11.6693 37.1545 13.052H48.2725C48.0458 12.1227 47.6718 11.3293 47.1505 10.672C46.6291 9.992 45.9831 9.482 45.2125 9.142C44.4645 8.77933 43.6258 8.598 42.6965 8.598ZM70.0736 5.64V9.04H63.6136V24H59.9416V9.04H53.4476V5.64H70.0736ZM88.2225 5.64H91.1465V24H88.0865L87.7125 21.756C85.9445 23.5467 83.7345 24.442 81.0825 24.442C78.3398 24.442 76.0505 23.524 74.2145 21.688C72.4011 19.852 71.4945 17.5627 71.4945 14.82C71.4945 12.0547 72.4011 9.76533 74.2145 7.952C76.0505 6.116 78.3398 5.198 81.0825 5.198C83.7798 5.198 86.0125 6.10467 87.7805 7.918L88.2225 5.64ZM77.0365 19.138C78.1925 20.2713 79.6318 20.838 81.3545 20.838C83.0998 20.838 84.5278 20.2713 85.6385 19.138C86.7718 17.982 87.3385 16.5427 87.3385 14.82C87.3385 13.0747 86.7718 11.6353 85.6385 10.502C84.5278 9.36867 83.0998 8.802 81.3545 8.802C80.2211 8.802 79.1898 9.06267 78.2605 9.584C77.3538 10.1053 76.6398 10.8307 76.1185 11.76C75.5971 12.6667 75.3365 13.6867 75.3365 14.82C75.3365 16.5427 75.9031 17.982 77.0365 19.138ZM99.7583 5.64H112.236V24H108.53V8.904H102.852L102.036 17.03C101.787 19.614 101.118 21.4387 100.03 22.504C98.965 23.5693 97.3443 24.102 95.1683 24.102H94.5223V20.634H95.4063C97.197 20.634 98.2056 19.512 98.4323 17.268L99.7583 5.64ZM120.842 5.64H133.32V24H129.614V8.904H123.936L123.12 17.03C122.871 19.614 122.202 21.4387 121.114 22.504C120.049 23.5693 118.428 24.102 116.252 24.102H115.606V20.634H116.49C118.281 20.634 119.29 19.512 119.516 17.268L120.842 5.64ZM155.222 0.199998H158.044V24H154.168V7.51L141.69 24H138.97V0.199998H142.88V16.52L155.222 0.199998ZM175.971 5.64H179.677V24H175.971V16.316H167.471V24H163.731V5.64H167.471V12.848H175.971V5.64ZM197.492 14.412C197.922 14.5933 198.308 14.8313 198.648 15.126C199.01 15.398 199.316 15.7267 199.566 16.112C199.815 16.4747 200.008 16.8827 200.144 17.336C200.28 17.7893 200.348 18.254 200.348 18.73C200.348 20.226 199.804 21.484 198.716 22.504C197.628 23.5013 196.268 24 194.636 24H185.048V5.64H194.5C196.041 5.64 197.299 6.082 198.274 6.966C199.271 7.82733 199.77 8.94933 199.77 10.332C199.77 11.1933 199.566 11.9867 199.158 12.712C198.75 13.4373 198.194 14.004 197.492 14.412ZM196.03 10.944C196.03 10.3093 195.814 9.79933 195.384 9.414C194.976 9.02867 194.432 8.836 193.752 8.836H188.754V13.052H193.752C194.432 13.052 194.976 12.8593 195.384 12.474C195.814 12.0887 196.03 11.5787 196.03 10.944ZM193.956 20.702C194.704 20.702 195.304 20.4867 195.758 20.056C196.234 19.6253 196.472 19.0813 196.472 18.424C196.472 17.744 196.234 17.1887 195.758 16.758C195.282 16.3273 194.67 16.112 193.922 16.112H188.754V20.702H193.956ZM222.046 14.854C222.046 15.194 222.024 15.6133 221.978 16.112H207.086C207.313 17.5853 207.925 18.7527 208.922 19.614C209.942 20.4753 211.2 20.906 212.696 20.906C213.422 20.906 214.102 20.804 214.736 20.6C215.371 20.3733 215.926 20.0673 216.402 19.682C216.901 19.274 217.309 18.7867 217.626 18.22H221.604C220.879 20.1693 219.723 21.6993 218.136 22.81C216.55 23.898 214.736 24.442 212.696 24.442C209.999 24.442 207.744 23.524 205.93 21.688C204.14 19.852 203.244 17.5627 203.244 14.82C203.244 12.0773 204.14 9.788 205.93 7.952C207.744 6.116 209.999 5.198 212.696 5.198C214.532 5.198 216.164 5.64 217.592 6.524C219.02 7.38533 220.12 8.55267 220.89 10.026C221.661 11.4767 222.046 13.086 222.046 14.854ZM212.696 8.598C211.291 8.598 210.09 8.99467 209.092 9.788C208.118 10.5813 207.472 11.6693 207.154 13.052H218.272C218.046 12.1227 217.672 11.3293 217.15 10.672C216.629 9.992 215.983 9.482 215.212 9.142C214.464 8.77933 213.626 8.598 212.696 8.598ZM234.316 24.442C231.596 24.442 229.306 23.524 227.448 21.688C225.612 19.8293 224.694 17.54 224.694 14.82C224.694 12.0773 225.612 9.788 227.448 7.952C229.306 6.116 231.607 5.198 234.35 5.198C236.594 5.198 238.543 5.83267 240.198 7.102C241.852 8.37133 242.929 10.06 243.428 12.168H239.688C239.212 11.1253 238.498 10.3093 237.546 9.72C236.594 9.108 235.517 8.802 234.316 8.802C233.25 8.802 232.276 9.06267 231.392 9.584C230.508 10.1053 229.805 10.8307 229.284 11.76C228.785 12.6667 228.536 13.6867 228.536 14.82C228.536 16.52 229.091 17.948 230.202 19.104C231.312 20.26 232.684 20.838 234.316 20.838C235.517 20.838 236.582 20.532 237.512 19.92C238.464 19.308 239.189 18.4353 239.688 17.302H243.496C242.974 19.4553 241.875 21.1893 240.198 22.504C238.543 23.796 236.582 24.442 234.316 24.442ZM261.556 5.64V9.04H255.096V24H251.424V9.04H244.93V5.64H261.556Z" fill="white"/>
</svg>
