<svg width="1342" height="107" viewBox="0 0 1342 107" fill="none" xmlns="http://www.w3.org/2000/svg">
<path opacity="0.4" d="M0.280001 23.8319H63.5V105.032H45.984V40.1879H17.912V105.032H0.280001V23.8319ZM136.009 105.032L130.325 89.6039H97.9611L92.3931 105.032H73.8331L105.617 23.8319H122.205L155.033 105.032H136.009ZM114.085 45.2919L103.529 74.2919H124.757L114.085 45.2919ZM196.535 23.8319C204.732 23.8319 211.576 26.4999 217.067 31.8359C222.557 37.0946 225.303 43.7453 225.303 51.7879C225.303 59.7533 222.557 66.4039 217.067 71.7399C211.576 76.9986 204.732 79.6279 196.535 79.6279H182.963V105.032H165.331V23.8319H196.535ZM195.839 63.3879C199.319 63.3879 202.103 62.3053 204.191 60.1399C206.356 57.9746 207.439 55.1906 207.439 51.7879C207.439 48.3853 206.356 45.6013 204.191 43.4359C202.103 41.1933 199.319 40.0719 195.839 40.0719H182.963V63.3879H195.839ZM293.519 23.8319V40.1879H270.899V105.032H253.267V40.1879H230.763V23.8319H293.519ZM353.373 23.8319H370.889V105.032H353.373V71.5079H322.865V105.032H305.233V23.8319H322.865V55.1519H353.373V23.8319ZM391.37 15.9439V0.283915H409.35V15.9439H391.37ZM418.514 15.9439V0.283915H436.494V15.9439H418.514ZM407.146 88.6759H439.51V105.032H389.514V23.8319H438.234V40.0719H407.146V56.0799H435.218V71.9719H407.146V88.6759ZM485.515 23.8319C493.713 23.8319 500.557 26.4999 506.047 31.8359C511.538 37.0946 514.283 43.7453 514.283 51.7879C514.283 59.7533 511.538 66.4039 506.047 71.7399C500.557 76.9986 493.713 79.6279 485.515 79.6279H471.943V105.032H454.311V23.8319H485.515ZM484.819 63.3879C488.299 63.3879 491.083 62.3053 493.171 60.1399C495.337 57.9746 496.419 55.1906 496.419 51.7879C496.419 48.3853 495.337 45.6013 493.171 43.4359C491.083 41.1933 488.299 40.0719 484.819 40.0719H471.943V63.3879H484.819ZM558.023 48.4239C563.669 48.4239 568.695 49.6226 573.103 52.0199C577.589 54.4173 581.069 57.7813 583.543 62.1119C586.095 66.3653 587.371 71.2373 587.371 76.7279C587.371 85.0026 584.626 91.8079 579.135 97.1439C573.645 102.403 566.607 105.032 558.023 105.032H526.471V23.8319H544.103V48.4239H558.023ZM595.607 23.8319H613.239V105.032H595.607V23.8319ZM556.747 88.5599C560.459 88.5599 563.475 87.4773 565.795 85.3119C568.193 83.0693 569.391 80.2079 569.391 76.7279C569.391 74.4079 568.85 72.3586 567.767 70.5799C566.762 68.8013 565.293 67.4093 563.359 66.4039C561.426 65.3986 559.222 64.8959 556.747 64.8959H544.103V88.5599H556.747ZM727.321 105.032H705.861L677.209 65.3599V105.032H659.577V23.8319H677.209V61.2999L703.773 23.8319H724.305L696.581 62.6919L727.321 105.032ZM769.683 106.772C757.309 106.772 746.985 102.751 738.711 94.7079C730.513 86.5879 726.415 76.4959 726.415 64.4319C726.415 52.3679 730.513 42.3146 738.711 34.2719C746.985 26.1519 757.309 22.0919 769.683 22.0919C777.803 22.0919 785.149 23.9479 791.723 27.6599C798.373 31.2946 803.555 36.3599 807.267 42.8559C810.979 49.2746 812.835 56.4666 812.835 64.4319C812.835 76.5733 808.736 86.6653 800.539 94.7079C792.341 102.751 782.056 106.772 769.683 106.772ZM769.683 90.1839C774.477 90.1839 778.808 89.1013 782.675 86.9359C786.541 84.6933 789.557 81.5999 791.723 77.6559C793.965 73.7119 795.087 69.3039 795.087 64.4319C795.087 57.0853 792.651 50.9759 787.779 46.1039C782.984 41.1546 776.952 38.6799 769.683 38.6799C762.491 38.6799 756.42 41.1546 751.471 46.1039C746.599 50.9759 744.163 57.0853 744.163 64.4319C744.163 71.7786 746.599 77.9266 751.471 82.8759C756.42 87.7479 762.491 90.1839 769.683 90.1839ZM925.402 105.032H907.538L899.534 52.0199L875.29 104.916H870.998L846.754 52.0199L838.75 105.032H820.77L833.53 23.8319H851.162L873.086 73.5959L895.126 23.8319H912.758L925.402 105.032ZM938.928 23.8319H1002.15V105.032H984.632V40.1879H956.56V105.032H938.928V23.8319ZM1074.66 105.032L1068.97 89.6039H1036.61L1031.04 105.032H1012.48L1044.27 23.8319H1060.85L1093.68 105.032H1074.66ZM1052.73 45.2919L1042.18 74.2919H1063.41L1052.73 45.2919ZM1152.12 23.8319H1169.64V105.032H1152.12V71.5079H1121.61V105.032H1103.98V23.8319H1121.61V55.1519H1152.12V23.8319ZM1242.9 23.8319H1255.66V105.032H1238.02V56.1959L1200.44 105.032H1188.26V23.8319H1205.89V72.0879L1242.9 23.8319ZM1328.88 23.8319H1341.64V105.032H1324V56.1959L1286.42 105.032H1274.24V23.8319H1291.87V72.0879L1328.88 23.8319Z" fill="#EDECF2"/>
</svg>
