<svg width="1893" height="149" viewBox="0 0 1893 149" fill="none" xmlns="http://www.w3.org/2000/svg">
<g opacity="0.5">
<path d="M103.528 127H70.783L27.064 66.466V127H0.160001V3.09999H27.064V60.271L67.597 3.09999H98.926L56.623 62.395L103.528 127ZM198.621 127L189.948 103.459H140.565L132.069 127H103.749L152.247 3.09999H177.558L227.649 127H198.621ZM165.168 35.845L149.061 80.095H181.452L165.168 35.845ZM316.926 3.09999V28.057H282.411V127H255.507V28.057H221.169V3.09999H316.926ZM405.179 127L396.506 103.459H347.123L338.627 127H310.307L358.805 3.09999H384.116L434.207 127H405.179ZM371.726 35.845L355.619 80.095H388.01L371.726 35.845ZM473.107 3.09999H555.412V127H528.685V28.057H496.471L490.63 81.688C488.978 97.028 484.553 108.474 477.355 116.026C470.275 123.578 460.245 127.354 447.265 127.354H440.362V101.158H447.442C457 101.158 462.487 95.081 463.903 82.927L473.107 3.09999ZM642.471 129.655C623.591 129.655 607.838 123.519 595.212 111.247C582.704 98.857 576.45 83.458 576.45 65.05C576.45 46.642 582.704 31.302 595.212 19.03C607.838 6.64 623.591 0.444994 642.471 0.444994C654.861 0.444994 666.071 3.27699 676.101 8.94099C686.249 14.487 694.155 22.216 699.819 32.128C705.483 41.922 708.315 52.896 708.315 65.05C708.315 83.576 702.061 98.975 689.553 111.247C677.045 123.519 661.351 129.655 642.471 129.655ZM642.471 104.344C649.787 104.344 656.395 102.692 662.295 99.388C668.195 95.966 672.797 91.246 676.101 85.228C679.523 79.21 681.234 72.484 681.234 65.05C681.234 53.84 677.517 44.518 670.083 37.084C662.767 29.532 653.563 25.756 642.471 25.756C631.497 25.756 622.234 29.532 614.682 37.084C607.248 44.518 603.531 53.84 603.531 65.05C603.531 76.26 607.248 85.641 614.682 93.193C622.234 100.627 631.497 104.344 642.471 104.344ZM799.867 3.09999V28.057H756.325V127H729.421V3.09999H799.867ZM817.921 3.09999H914.386V127H887.659V28.057H844.825V127H817.921V3.09999ZM990.333 3.09999C1002.84 3.09999 1013.28 7.17099 1021.66 15.313C1030.04 23.337 1034.23 33.485 1034.23 45.757C1034.23 57.911 1030.04 68.059 1021.66 76.201C1013.28 84.225 1002.84 88.237 990.333 88.237H969.624V127H942.72V3.09999H990.333ZM989.271 63.457C994.581 63.457 998.829 61.805 1002.01 58.501C1005.32 55.197 1006.97 50.949 1006.97 45.757C1006.97 40.565 1005.32 36.317 1002.01 33.013C998.829 29.591 994.581 27.88 989.271 27.88H969.624V63.457H989.271ZM1111.59 129.655C1092.71 129.655 1076.96 123.519 1064.33 111.247C1051.82 98.857 1045.57 83.458 1045.57 65.05C1045.57 46.642 1051.82 31.302 1064.33 19.03C1076.96 6.64 1092.71 0.444994 1111.59 0.444994C1123.98 0.444994 1135.19 3.27699 1145.22 8.94099C1155.37 14.487 1163.27 22.216 1168.94 32.128C1174.6 41.922 1177.43 52.896 1177.43 65.05C1177.43 83.576 1171.18 98.975 1158.67 111.247C1146.16 123.519 1130.47 129.655 1111.59 129.655ZM1111.59 104.344C1118.91 104.344 1125.51 102.692 1131.41 99.388C1137.31 95.966 1141.92 91.246 1145.22 85.228C1148.64 79.21 1150.35 72.484 1150.35 65.05C1150.35 53.84 1146.64 44.518 1139.2 37.084C1131.89 29.532 1122.68 25.756 1111.59 25.756C1100.62 25.756 1091.35 29.532 1083.8 37.084C1076.37 44.518 1072.65 53.84 1072.65 65.05C1072.65 76.26 1076.37 85.641 1083.8 93.193C1091.35 100.627 1100.62 104.344 1111.59 104.344ZM1295.81 102.043H1307.85V148.948H1283.07V127H1209.79V148.948H1185.01V102.043H1194.92C1196.69 100.627 1198.17 99.093 1199.35 97.441C1200.65 95.789 1201.83 93.193 1202.89 89.653C1204.07 85.995 1205.01 82.278 1205.72 78.502C1206.43 74.608 1207.19 68.649 1208.02 60.625C1208.96 52.601 1209.79 44.636 1210.5 36.73C1211.21 28.706 1212.15 17.496 1213.33 3.09999H1295.81V102.043ZM1236.52 28.057C1235.1 50.949 1233.39 67.764 1231.38 78.502C1229.38 89.122 1226.43 96.969 1222.53 102.043H1269.09V28.057H1236.52ZM1397.55 3.09999H1425.52L1390.47 86.644C1384.22 101.984 1377.2 112.604 1369.41 118.504C1361.74 124.404 1351.18 127.354 1337.72 127.354H1332.77V102.397H1340.56C1346.1 102.397 1350.35 101.571 1353.3 99.919C1356.25 98.267 1358.96 95.14 1361.44 90.538L1315.42 3.09999H1345.51L1374.89 59.74L1397.55 3.09999ZM1543.38 127H1510.64L1466.92 66.466V127H1440.01V3.09999H1466.92V60.271L1507.45 3.09999H1538.78L1496.48 62.395L1543.38 127ZM1641.66 3.09999V28.057H1607.15V127H1580.24V28.057H1545.9V3.09999H1641.66ZM1714.32 129.655C1695.44 129.655 1679.69 123.519 1667.06 111.247C1654.56 98.857 1648.3 83.458 1648.3 65.05C1648.3 46.642 1654.56 31.302 1667.06 19.03C1679.69 6.64 1695.44 0.444994 1714.32 0.444994C1726.71 0.444994 1737.92 3.27699 1747.95 8.94099C1758.1 14.487 1766.01 22.216 1771.67 32.128C1777.34 41.922 1780.17 52.896 1780.17 65.05C1780.17 83.576 1773.91 98.975 1761.41 111.247C1748.9 123.519 1733.2 129.655 1714.32 129.655ZM1714.32 104.344C1721.64 104.344 1728.25 102.692 1734.15 99.388C1740.05 95.966 1744.65 91.246 1747.95 85.228C1751.38 79.21 1753.09 72.484 1753.09 65.05C1753.09 53.84 1749.37 44.518 1741.94 37.084C1734.62 29.532 1725.42 25.756 1714.32 25.756C1703.35 25.756 1694.09 29.532 1686.53 37.084C1679.1 44.518 1675.38 53.84 1675.38 65.05C1675.38 76.26 1679.1 85.641 1686.53 93.193C1694.09 100.627 1703.35 104.344 1714.32 104.344ZM1875.79 61.687C1881.22 64.519 1885.41 68.531 1888.36 73.723C1891.43 78.797 1892.96 84.638 1892.96 91.246C1892.96 101.158 1889.12 109.595 1881.45 116.557C1873.9 123.519 1864.76 127 1854.02 127H1801.27V3.09999H1852.6C1863.22 3.09999 1872.07 6.16799 1879.15 12.304C1886.23 18.322 1889.77 25.874 1889.77 34.96C1889.77 40.27 1888.53 45.285 1886.06 50.005C1883.58 54.725 1880.16 58.619 1875.79 61.687ZM1863.75 39.208C1863.75 37.202 1863.4 35.432 1862.69 33.898C1862.1 32.246 1861.22 30.83 1860.04 29.65C1858.86 28.47 1857.38 27.585 1855.61 26.995C1853.96 26.287 1852.07 25.933 1849.95 25.933H1827.65V52.306H1849.95C1854.2 52.306 1857.56 51.126 1860.04 48.766C1862.52 46.288 1863.75 43.102 1863.75 39.208ZM1851.36 102.397C1855.73 102.397 1859.27 101.099 1861.98 98.503C1864.7 95.907 1866.06 92.544 1866.06 88.414C1866.06 84.402 1864.7 81.098 1861.98 78.502C1859.27 75.906 1855.73 74.608 1851.36 74.608H1827.65V102.397H1851.36Z" fill="#EDECF2"/>
<path d="M103.528 127V131H111.375L106.765 124.65L103.528 127ZM70.783 127L67.5403 129.342L68.7378 131H70.783V127ZM27.064 66.466L30.3067 64.124L23.064 54.0957V66.466H27.064ZM27.064 127V131H31.064V127H27.064ZM0.160001 127H-3.84V131H0.160001V127ZM0.160001 3.09999V-0.900009H-3.84V3.09999H0.160001ZM27.064 3.09999H31.064V-0.900009H27.064V3.09999ZM27.064 60.271H23.064V72.8289L30.3271 62.5845L27.064 60.271ZM67.597 3.09999V-0.900009H65.5296L64.3339 0.786522L67.597 3.09999ZM98.926 3.09999L102.182 5.4231L106.693 -0.900009H98.926V3.09999ZM56.623 62.395L53.3668 60.0719L51.6948 62.4154L53.3861 64.745L56.623 62.395ZM103.528 123H70.783V131H103.528V123ZM74.0257 124.658L30.3067 64.124L23.8213 68.808L67.5403 129.342L74.0257 124.658ZM23.064 66.466V127H31.064V66.466H23.064ZM27.064 123H0.160001V131H27.064V123ZM4.16 127V3.09999H-3.84V127H4.16ZM0.160001 7.09999H27.064V-0.900009H0.160001V7.09999ZM23.064 3.09999V60.271H31.064V3.09999H23.064ZM30.3271 62.5845L70.8601 5.41346L64.3339 0.786522L23.8009 57.9575L30.3271 62.5845ZM67.597 7.09999H98.926V-0.900009H67.597V7.09999ZM95.6698 0.776878L53.3668 60.0719L59.8792 64.7181L102.182 5.4231L95.6698 0.776878ZM53.3861 64.745L100.291 129.35L106.765 124.65L59.8599 60.045L53.3861 64.745ZM198.621 127L194.868 128.383L195.832 131H198.621V127ZM189.948 103.459L193.702 102.076L192.737 99.459H189.948V103.459ZM140.565 103.459V99.459H137.756L136.803 102.101L140.565 103.459ZM132.069 127V131H134.878L135.832 128.358L132.069 127ZM103.749 127L100.024 125.542L97.888 131H103.749V127ZM152.247 3.09999V-0.900009H149.517L148.522 1.64199L152.247 3.09999ZM177.558 3.09999L181.267 1.60074L180.256 -0.900009H177.558V3.09999ZM227.649 127V131H233.581L231.358 125.501L227.649 127ZM165.168 35.845L168.922 34.4636L165.148 24.207L161.41 34.4768L165.168 35.845ZM149.061 80.095L145.303 78.7268L143.348 84.095H149.061V80.095ZM181.452 80.095V84.095H187.187L185.206 78.7136L181.452 80.095ZM202.375 125.617L193.702 102.076L186.195 104.842L194.868 128.383L202.375 125.617ZM189.948 99.459H140.565V107.459H189.948V99.459ZM136.803 102.101L128.307 125.642L135.832 128.358L144.328 104.817L136.803 102.101ZM132.069 123H103.749V131H132.069V123ZM107.474 128.458L155.972 4.55799L148.522 1.64199L100.024 125.542L107.474 128.458ZM152.247 7.09999H177.558V-0.900009H152.247V7.09999ZM173.85 4.59925L223.941 128.499L231.358 125.501L181.267 1.60074L173.85 4.59925ZM227.649 123H198.621V131H227.649V123ZM161.41 34.4768L145.303 78.7268L152.82 81.4632L168.927 37.2132L161.41 34.4768ZM149.061 84.095H181.452V76.095H149.061V84.095ZM185.206 78.7136L168.922 34.4636L161.414 37.2264L177.698 81.4764L185.206 78.7136ZM316.926 3.09999H320.926V-0.900009H316.926V3.09999ZM316.926 28.057V32.057H320.926V28.057H316.926ZM282.411 28.057V24.057H278.411V28.057H282.411ZM282.411 127V131H286.411V127H282.411ZM255.507 127H251.507V131H255.507V127ZM255.507 28.057H259.507V24.057H255.507V28.057ZM221.169 28.057H217.169V32.057H221.169V28.057ZM221.169 3.09999V-0.900009H217.169V3.09999H221.169ZM312.926 3.09999V28.057H320.926V3.09999H312.926ZM316.926 24.057H282.411V32.057H316.926V24.057ZM278.411 28.057V127H286.411V28.057H278.411ZM282.411 123H255.507V131H282.411V123ZM259.507 127V28.057H251.507V127H259.507ZM255.507 24.057H221.169V32.057H255.507V24.057ZM225.169 28.057V3.09999H217.169V28.057H225.169ZM221.169 7.09999H316.926V-0.900009H221.169V7.09999ZM405.179 127L401.426 128.383L402.39 131H405.179V127ZM396.506 103.459L400.259 102.076L399.295 99.459H396.506V103.459ZM347.123 103.459V99.459H344.314L343.36 102.101L347.123 103.459ZM338.627 127V131H341.436L342.389 128.358L338.627 127ZM310.307 127L306.582 125.542L304.446 131H310.307V127ZM358.805 3.09999V-0.900009H356.075L355.08 1.64199L358.805 3.09999ZM384.116 3.09999L387.824 1.60074L386.813 -0.900009H384.116V3.09999ZM434.207 127V131H440.139L437.915 125.501L434.207 127ZM371.726 35.845L375.48 34.4636L371.705 24.207L367.967 34.4768L371.726 35.845ZM355.619 80.095L351.86 78.7268L349.906 84.095H355.619V80.095ZM388.01 80.095V84.095H393.744L391.764 78.7136L388.01 80.095ZM408.932 125.617L400.259 102.076L392.753 104.842L401.426 128.383L408.932 125.617ZM396.506 99.459H347.123V107.459H396.506V99.459ZM343.36 102.101L334.864 125.642L342.389 128.358L350.885 104.817L343.36 102.101ZM338.627 123H310.307V131H338.627V123ZM314.032 128.458L362.53 4.55799L355.08 1.64199L306.582 125.542L314.032 128.458ZM358.805 7.09999H384.116V-0.900009H358.805V7.09999ZM380.407 4.59925L430.498 128.499L437.915 125.501L387.824 1.60074L380.407 4.59925ZM434.207 123H405.179V131H434.207V123ZM367.967 34.4768L351.86 78.7268L359.378 81.4632L375.485 37.2132L367.967 34.4768ZM355.619 84.095H388.01V76.095H355.619V84.095ZM391.764 78.7136L375.48 34.4636L367.972 37.2264L384.256 81.4764L391.764 78.7136ZM473.107 3.09999V-0.900009H469.541L469.133 2.64183L473.107 3.09999ZM555.412 3.09999H559.412V-0.900009H555.412V3.09999ZM555.412 127V131H559.412V127H555.412ZM528.685 127H524.685V131H528.685V127ZM528.685 28.057H532.685V24.057H528.685V28.057ZM496.471 28.057V24.057H492.883L492.494 27.6239L496.471 28.057ZM490.63 81.688L486.653 81.2549L486.653 81.2597L490.63 81.688ZM477.355 116.026L474.459 113.266L474.448 113.278L474.437 113.29L477.355 116.026ZM440.362 127.354H436.362V131.354H440.362V127.354ZM440.362 101.158V97.158H436.362V101.158H440.362ZM463.903 82.927L467.876 83.3899L467.876 83.3852L463.903 82.927ZM473.107 7.09999H555.412V-0.900009H473.107V7.09999ZM551.412 3.09999V127H559.412V3.09999H551.412ZM555.412 123H528.685V131H555.412V123ZM532.685 127V28.057H524.685V127H532.685ZM528.685 24.057H496.471V32.057H528.685V24.057ZM492.494 27.6239L486.653 81.2549L494.606 82.1211L500.447 28.4901L492.494 27.6239ZM486.653 81.2597C485.052 96.1263 480.821 106.592 474.459 113.266L480.25 118.786C488.285 110.356 492.904 97.9297 494.607 82.1163L486.653 81.2597ZM474.437 113.29C468.296 119.841 459.438 123.354 447.265 123.354V131.354C461.051 131.354 472.254 127.315 480.273 118.762L474.437 113.29ZM447.265 123.354H440.362V131.354H447.265V123.354ZM444.362 127.354V101.158H436.362V127.354H444.362ZM440.362 105.158H447.442V97.158H440.362V105.158ZM447.442 105.158C453.145 105.158 458.064 103.302 461.694 99.2809C465.209 95.3888 467.117 89.9062 467.876 83.3899L459.93 82.4641C459.273 88.1018 457.729 91.7347 455.757 93.9196C453.901 95.9753 451.297 97.158 447.442 97.158V105.158ZM467.876 83.3852L477.08 3.55816L469.133 2.64183L459.929 82.4688L467.876 83.3852ZM595.212 111.247L592.397 114.089L592.41 114.102L592.424 114.115L595.212 111.247ZM595.212 19.03L598.013 21.8852L598.013 21.885L595.212 19.03ZM676.101 8.94099L674.134 12.424L674.158 12.4377L674.183 12.451L676.101 8.94099ZM699.819 32.128L696.346 34.1126L696.351 34.1215L696.356 34.1305L699.819 32.128ZM689.553 111.247L686.752 108.392L689.553 111.247ZM662.295 99.388L664.249 102.878L664.276 102.863L664.302 102.848L662.295 99.388ZM676.101 85.228L672.624 83.2508L672.609 83.2768L672.595 83.303L676.101 85.228ZM670.083 37.084L667.21 39.8672L667.232 39.89L667.254 39.9124L670.083 37.084ZM614.682 37.084L617.51 39.9124L614.682 37.084ZM614.682 93.193L611.831 95.9991L611.853 96.0215L611.876 96.0436L614.682 93.193ZM642.471 125.655C624.549 125.655 609.822 119.869 598 108.379L592.424 114.115C605.854 127.169 622.633 133.655 642.471 133.655V125.655ZM598.027 108.405C586.315 96.8038 580.45 82.4448 580.45 65.05H572.45C572.45 84.4712 579.093 100.91 592.397 114.089L598.027 108.405ZM580.45 65.05C580.45 47.6555 586.314 33.3636 598.013 21.8852L592.411 16.1748C579.094 29.2403 572.45 45.6285 572.45 65.05H580.45ZM598.013 21.885C609.838 10.2817 624.561 4.445 642.471 4.445V-3.55501C622.621 -3.55501 605.838 2.99833 592.41 16.175L598.013 21.885ZM642.471 4.445C654.225 4.445 664.749 7.1244 674.134 12.424L678.068 5.45797C667.392 -0.570419 655.496 -3.55501 642.471 -3.55501V4.445ZM674.183 12.451C683.69 17.647 691.054 24.8518 696.346 34.1126L703.292 30.1434C697.256 19.5802 688.808 11.327 678.019 5.43097L674.183 12.451ZM696.356 34.1305C701.642 43.2707 704.315 53.5451 704.315 65.05H712.315C712.315 52.2469 709.324 40.5733 703.282 30.1255L696.356 34.1305ZM704.315 65.05C704.315 82.5704 698.445 96.9186 686.752 108.392L692.354 114.102C705.677 101.031 712.315 84.5816 712.315 65.05H704.315ZM686.752 108.392C675.053 119.87 660.393 125.655 642.471 125.655V133.655C662.309 133.655 679.037 127.168 692.354 114.102L686.752 108.392ZM642.471 108.344C650.414 108.344 657.704 106.544 664.249 102.878L660.34 95.898C655.086 98.8405 649.16 100.344 642.471 100.344V108.344ZM664.302 102.848C670.836 99.058 675.955 93.8053 679.607 87.153L672.595 83.303C669.639 88.6867 665.553 92.874 660.288 95.9279L664.302 102.848ZM679.578 87.2052C683.368 80.5402 685.234 73.1244 685.234 65.05H677.234C677.234 71.8436 675.678 77.8798 672.624 83.2508L679.578 87.2052ZM685.234 65.05C685.234 52.857 681.149 42.4931 672.911 34.2556L667.254 39.9124C673.885 46.5429 677.234 54.8229 677.234 65.05H685.234ZM672.956 34.3008C664.841 25.9246 654.579 21.756 642.471 21.756V29.756C652.546 29.756 660.692 33.1394 667.21 39.8672L672.956 34.3008ZM642.471 21.756C630.469 21.756 620.178 25.9306 611.853 34.2556L617.51 39.9124C624.289 33.1334 632.525 29.756 642.471 29.756V21.756ZM611.853 34.2556C603.616 42.4931 599.531 52.857 599.531 65.05H607.531C607.531 54.8229 610.88 46.5429 617.51 39.9124L611.853 34.2556ZM599.531 65.05C599.531 77.2427 603.615 87.6522 611.831 95.9991L617.532 90.3869C610.881 83.6298 607.531 75.2773 607.531 65.05H599.531ZM611.876 96.0436C620.205 104.243 630.489 108.344 642.471 108.344V100.344C632.505 100.344 624.263 97.0111 617.488 90.3424L611.876 96.0436ZM799.867 3.09999H803.867V-0.900009H799.867V3.09999ZM799.867 28.057V32.057H803.867V28.057H799.867ZM756.325 28.057V24.057H752.325V28.057H756.325ZM756.325 127V131H760.325V127H756.325ZM729.421 127H725.421V131H729.421V127ZM729.421 3.09999V-0.900009H725.421V3.09999H729.421ZM795.867 3.09999V28.057H803.867V3.09999H795.867ZM799.867 24.057H756.325V32.057H799.867V24.057ZM752.325 28.057V127H760.325V28.057H752.325ZM756.325 123H729.421V131H756.325V123ZM733.421 127V3.09999H725.421V127H733.421ZM729.421 7.09999H799.867V-0.900009H729.421V7.09999ZM817.921 3.09999V-0.900009H813.921V3.09999H817.921ZM914.386 3.09999H918.386V-0.900009H914.386V3.09999ZM914.386 127V131H918.386V127H914.386ZM887.659 127H883.659V131H887.659V127ZM887.659 28.057H891.659V24.057H887.659V28.057ZM844.825 28.057V24.057H840.825V28.057H844.825ZM844.825 127V131H848.825V127H844.825ZM817.921 127H813.921V131H817.921V127ZM817.921 7.09999H914.386V-0.900009H817.921V7.09999ZM910.386 3.09999V127H918.386V3.09999H910.386ZM914.386 123H887.659V131H914.386V123ZM891.659 127V28.057H883.659V127H891.659ZM887.659 24.057H844.825V32.057H887.659V24.057ZM840.825 28.057V127H848.825V28.057H840.825ZM844.825 123H817.921V131H844.825V123ZM821.921 127V3.09999H813.921V127H821.921ZM1021.66 15.313L1018.87 18.1815L1018.88 18.1917L1018.89 18.2018L1021.66 15.313ZM1021.66 76.201L1024.43 79.0898L1024.44 79.0797L1024.45 79.0695L1021.66 76.201ZM969.624 88.237V84.237H965.624V88.237H969.624ZM969.624 127V131H973.624V127H969.624ZM942.72 127H938.72V131H942.72V127ZM942.72 3.09999V-0.900009H938.72V3.09999H942.72ZM1002.01 58.501L999.186 55.6726L999.16 55.6983L999.135 55.7244L1002.01 58.501ZM1002.01 33.013L999.087 35.7387L999.136 35.7909L999.186 35.8414L1002.01 33.013ZM969.624 27.88V23.88H965.624V27.88H969.624ZM969.624 63.457H965.624V67.457H969.624V63.457ZM990.333 7.09999C1001.88 7.09999 1011.3 10.8197 1018.87 18.1815L1024.45 12.4445C1015.27 3.52229 1003.8 -0.900009 990.333 -0.900009V7.09999ZM1018.89 18.2018C1026.44 25.4238 1030.23 34.5052 1030.23 45.757H1038.23C1038.23 32.4648 1033.64 21.2502 1024.43 12.4242L1018.89 18.2018ZM1030.23 45.757C1030.23 56.8792 1026.44 65.977 1018.87 73.3325L1024.45 79.0695C1033.64 70.141 1038.23 58.9428 1038.23 45.757H1030.23ZM1018.89 73.3122C1011.32 80.5641 1001.9 84.237 990.333 84.237V92.237C1003.78 92.237 1015.24 87.8859 1024.43 79.0898L1018.89 73.3122ZM990.333 84.237H969.624V92.237H990.333V84.237ZM965.624 88.237V127H973.624V88.237H965.624ZM969.624 123H942.72V131H969.624V123ZM946.72 127V3.09999H938.72V127H946.72ZM942.72 7.09999H990.333V-0.900009H942.72V7.09999ZM989.271 67.457C995.481 67.457 1000.83 65.4875 1004.89 61.2775L999.135 55.7244C996.823 58.1225 993.68 59.457 989.271 59.457V67.457ZM1004.84 61.3294C1008.98 57.1886 1010.97 51.8807 1010.97 45.757H1002.97C1002.97 50.0173 1001.65 53.2054 999.186 55.6726L1004.84 61.3294ZM1010.97 45.757C1010.97 39.6333 1008.98 34.3254 1004.84 30.1846L999.186 35.8414C1001.65 38.3086 1002.97 41.4967 1002.97 45.757H1010.97ZM1004.94 30.2873C1000.89 25.9386 995.525 23.88 989.271 23.88V31.88C993.636 31.88 996.764 33.2434 999.087 35.7387L1004.94 30.2873ZM989.271 23.88H969.624V31.88H989.271V23.88ZM965.624 27.88V63.457H973.624V27.88H965.624ZM969.624 67.457H989.271V59.457H969.624V67.457ZM1064.33 111.247L1061.52 114.089L1061.53 114.102L1061.54 114.115L1064.33 111.247ZM1064.33 19.03L1067.13 21.8852L1067.13 21.885L1064.33 19.03ZM1145.22 8.94099L1143.25 12.424L1143.28 12.4377L1143.3 12.451L1145.22 8.94099ZM1168.94 32.128L1165.47 34.1126L1165.47 34.1215L1165.48 34.1305L1168.94 32.128ZM1158.67 111.247L1155.87 108.392L1158.67 111.247ZM1131.41 99.388L1133.37 102.878L1133.39 102.863L1133.42 102.848L1131.41 99.388ZM1145.22 85.228L1141.74 83.2508L1141.73 83.2768L1141.71 83.303L1145.22 85.228ZM1139.2 37.084L1136.33 39.8672L1136.35 39.89L1136.37 39.9124L1139.2 37.084ZM1083.8 37.084L1086.63 39.9124L1083.8 37.084ZM1083.8 93.193L1080.95 95.9991L1080.97 96.0215L1080.99 96.0436L1083.8 93.193ZM1111.59 125.655C1093.67 125.655 1078.94 119.869 1067.12 108.379L1061.54 114.115C1074.97 127.169 1091.75 133.655 1111.59 133.655V125.655ZM1067.15 108.405C1055.43 96.8038 1049.57 82.4448 1049.57 65.05H1041.57C1041.57 84.4712 1048.21 100.91 1061.52 114.089L1067.15 108.405ZM1049.57 65.05C1049.57 47.6555 1055.43 33.3636 1067.13 21.8852L1061.53 16.1748C1048.21 29.2403 1041.57 45.6285 1041.57 65.05H1049.57ZM1067.13 21.885C1078.96 10.2817 1093.68 4.445 1111.59 4.445V-3.55501C1091.74 -3.55501 1074.96 2.99833 1061.53 16.175L1067.13 21.885ZM1111.59 4.445C1123.34 4.445 1133.87 7.1244 1143.25 12.424L1147.19 5.45797C1136.51 -0.570419 1124.62 -3.55501 1111.59 -3.55501V4.445ZM1143.3 12.451C1152.81 17.647 1160.17 24.8518 1165.47 34.1126L1172.41 30.1434C1166.37 19.5802 1157.93 11.327 1147.14 5.43097L1143.3 12.451ZM1165.48 34.1305C1170.76 43.2707 1173.43 53.5451 1173.43 65.05H1181.43C1181.43 52.2469 1178.44 40.5733 1172.4 30.1255L1165.48 34.1305ZM1173.43 65.05C1173.43 82.5704 1167.56 96.9186 1155.87 108.392L1161.47 114.102C1174.8 101.031 1181.43 84.5816 1181.43 65.05H1173.43ZM1155.87 108.392C1144.17 119.87 1129.51 125.655 1111.59 125.655V133.655C1131.43 133.655 1148.16 127.168 1161.47 114.102L1155.87 108.392ZM1111.59 108.344C1119.53 108.344 1126.82 106.544 1133.37 102.878L1129.46 95.898C1124.21 98.8405 1118.28 100.344 1111.59 100.344V108.344ZM1133.42 102.848C1139.96 99.058 1145.07 93.8053 1148.73 87.153L1141.71 83.303C1138.76 88.6867 1134.67 92.874 1129.41 95.9279L1133.42 102.848ZM1148.7 87.2052C1152.49 80.5402 1154.35 73.1244 1154.35 65.05H1146.35C1146.35 71.8436 1144.8 77.8798 1141.74 83.2508L1148.7 87.2052ZM1154.35 65.05C1154.35 52.857 1150.27 42.4931 1142.03 34.2556L1136.37 39.9124C1143 46.5429 1146.35 54.8229 1146.35 65.05H1154.35ZM1142.07 34.3008C1133.96 25.9246 1123.7 21.756 1111.59 21.756V29.756C1121.67 29.756 1129.81 33.1394 1136.33 39.8672L1142.07 34.3008ZM1111.59 21.756C1099.59 21.756 1089.3 25.9306 1080.97 34.2556L1086.63 39.9124C1093.41 33.1334 1101.64 29.756 1111.59 29.756V21.756ZM1080.97 34.2556C1072.74 42.4931 1068.65 52.857 1068.65 65.05H1076.65C1076.65 54.8229 1080 46.5429 1086.63 39.9124L1080.97 34.2556ZM1068.65 65.05C1068.65 77.2427 1072.73 87.6522 1080.95 95.9991L1086.65 90.3869C1080 83.6298 1076.65 75.2773 1076.65 65.05H1068.65ZM1080.99 96.0436C1089.32 104.243 1099.61 108.344 1111.59 108.344V100.344C1101.62 100.344 1093.38 97.0111 1086.61 90.3424L1080.99 96.0436ZM1295.81 102.043H1291.81V106.043H1295.81V102.043ZM1307.85 102.043H1311.85V98.043H1307.85V102.043ZM1307.85 148.948V152.948H1311.85V148.948H1307.85ZM1283.07 148.948H1279.07V152.948H1283.07V148.948ZM1283.07 127H1287.07V123H1283.07V127ZM1209.79 127V123H1205.79V127H1209.79ZM1209.79 148.948V152.948H1213.79V148.948H1209.79ZM1185.01 148.948H1181.01V152.948H1185.01V148.948ZM1185.01 102.043V98.043H1181.01V102.043H1185.01ZM1194.92 102.043V106.043H1196.33L1197.42 105.166L1194.92 102.043ZM1199.35 97.441L1196.2 94.9697L1196.15 95.0416L1196.09 95.116L1199.35 97.441ZM1202.89 89.653L1199.08 88.425L1199.07 88.4642L1199.06 88.5036L1202.89 89.653ZM1205.72 78.502L1209.65 79.2392L1209.65 79.2283L1209.65 79.2175L1205.72 78.502ZM1208.02 60.625L1204.05 60.1576L1204.04 60.1865L1204.04 60.2154L1208.02 60.625ZM1210.5 36.73L1214.48 37.0868L1214.48 37.0816L1210.5 36.73ZM1213.33 3.09999V-0.900009H1209.64L1209.34 2.77322L1213.33 3.09999ZM1295.81 3.09999H1299.81V-0.900009H1295.81V3.09999ZM1236.52 28.057V24.057H1232.76L1232.53 27.81L1236.52 28.057ZM1231.38 78.502L1235.31 79.2444L1235.32 79.2365L1231.38 78.502ZM1222.53 102.043L1219.36 99.6077L1214.42 106.043H1222.53V102.043ZM1269.09 102.043V106.043H1273.09V102.043H1269.09ZM1269.09 28.057H1273.09V24.057H1269.09V28.057ZM1295.81 106.043H1307.85V98.043H1295.81V106.043ZM1303.85 102.043V148.948H1311.85V102.043H1303.85ZM1307.85 144.948H1283.07V152.948H1307.85V144.948ZM1287.07 148.948V127H1279.07V148.948H1287.07ZM1283.07 123H1209.79V131H1283.07V123ZM1205.79 127V148.948H1213.79V127H1205.79ZM1209.79 144.948H1185.01V152.948H1209.79V144.948ZM1189.01 148.948V102.043H1181.01V148.948H1189.01ZM1185.01 106.043H1194.92V98.043H1185.01V106.043ZM1197.42 105.166C1199.45 103.547 1201.19 101.75 1202.6 99.7659L1196.09 95.116C1195.15 96.4358 1193.94 97.7072 1192.42 98.9195L1197.42 105.166ZM1202.49 99.9123C1204.25 97.6748 1205.61 94.5142 1206.72 90.8024L1199.06 88.5036C1198.05 91.8718 1197.04 93.9032 1196.2 94.9697L1202.49 99.9123ZM1206.69 90.881C1207.93 87.0623 1208.91 83.1813 1209.65 79.2392L1201.79 77.7648C1201.11 81.3747 1200.21 84.9277 1199.08 88.425L1206.69 90.881ZM1209.65 79.2175C1210.39 75.1646 1211.17 69.079 1212 61.0346L1204.04 60.2154C1203.22 68.219 1202.46 74.0513 1201.78 77.7865L1209.65 79.2175ZM1211.99 61.0924C1212.94 53.0322 1213.77 45.0303 1214.48 37.0868L1206.51 36.3732C1205.81 44.2417 1204.99 52.1698 1204.05 60.1576L1211.99 61.0924ZM1214.48 37.0816C1215.19 29.0453 1216.14 17.8257 1217.32 3.42677L1209.34 2.77322C1208.16 17.1663 1207.22 28.3667 1206.51 36.3784L1214.48 37.0816ZM1213.33 7.09999H1295.81V-0.900009H1213.33V7.09999ZM1291.81 3.09999V102.043H1299.81V3.09999H1291.81ZM1232.53 27.81C1231.11 50.6755 1229.41 67.2849 1227.45 77.7674L1235.32 79.2365C1237.37 68.2431 1239.09 51.2225 1240.51 28.3039L1232.53 27.81ZM1227.45 77.7596C1225.49 88.1345 1222.7 95.2622 1219.36 99.6077L1225.71 104.478C1230.16 98.6758 1233.26 90.1095 1235.31 79.2444L1227.45 77.7596ZM1222.53 106.043H1269.09V98.043H1222.53V106.043ZM1273.09 102.043V28.057H1265.09V102.043H1273.09ZM1269.09 24.057H1236.52V32.057H1269.09V24.057ZM1397.55 3.09999V-0.900009H1394.84L1393.84 1.61443L1397.55 3.09999ZM1425.52 3.09999L1429.2 4.64733L1431.53 -0.900009H1425.52V3.09999ZM1390.47 86.644L1386.78 85.0967L1386.77 85.1152L1386.77 85.1339L1390.47 86.644ZM1369.41 118.504L1366.99 115.316L1366.98 115.325L1366.97 115.334L1369.41 118.504ZM1332.77 127.354H1328.77V131.354H1332.77V127.354ZM1332.77 102.397V98.397H1328.77V102.397H1332.77ZM1361.44 90.538L1364.96 92.4344L1365.97 90.5594L1364.98 88.675L1361.44 90.538ZM1315.42 3.09999V-0.900009H1308.8L1311.88 4.96298L1315.42 3.09999ZM1345.51 3.09999L1349.06 1.25808L1347.94 -0.900009H1345.51V3.09999ZM1374.89 59.74L1371.34 61.5819L1375.36 69.3338L1378.61 61.2256L1374.89 59.74ZM1397.55 7.09999H1425.52V-0.900009H1397.55V7.09999ZM1421.83 1.55265L1386.78 85.0967L1394.16 88.1913L1429.2 4.64733L1421.83 1.55265ZM1386.77 85.1339C1380.62 100.217 1373.94 110.055 1366.99 115.316L1371.82 121.692C1380.45 115.153 1387.82 103.751 1394.17 88.1541L1386.77 85.1339ZM1366.97 115.334C1360.22 120.521 1350.63 123.354 1337.72 123.354V131.354C1351.72 131.354 1363.25 128.287 1371.85 121.674L1366.97 115.334ZM1337.72 123.354H1332.77V131.354H1337.72V123.354ZM1336.77 127.354V102.397H1328.77V127.354H1336.77ZM1332.77 106.397H1340.56V98.397H1332.77V106.397ZM1340.56 106.397C1346.4 106.397 1351.44 105.545 1355.25 103.409L1351.35 96.429C1349.26 97.5971 1345.81 98.397 1340.56 98.397V106.397ZM1355.25 103.409C1359.14 101.235 1362.31 97.3686 1364.96 92.4344L1357.92 88.6416C1355.62 92.9114 1353.36 95.2993 1351.35 96.429L1355.25 103.409ZM1364.98 88.675L1318.96 1.23701L1311.88 4.96298L1357.9 92.401L1364.98 88.675ZM1315.42 7.09999H1345.51V-0.900009H1315.42V7.09999ZM1341.96 4.94191L1371.34 61.5819L1378.44 57.8981L1349.06 1.25808L1341.96 4.94191ZM1378.61 61.2256L1401.26 4.58555L1393.84 1.61443L1371.18 58.2544L1378.61 61.2256ZM1543.38 127V131H1551.23L1546.62 124.65L1543.38 127ZM1510.64 127L1507.39 129.342L1508.59 131H1510.64V127ZM1466.92 66.466L1470.16 64.124L1462.92 54.0957V66.466H1466.92ZM1466.92 127V131H1470.92V127H1466.92ZM1440.01 127H1436.01V131H1440.01V127ZM1440.01 3.09999V-0.900009H1436.01V3.09999H1440.01ZM1466.92 3.09999H1470.92V-0.900009H1466.92V3.09999ZM1466.92 60.271H1462.92V72.8289L1470.18 62.5845L1466.92 60.271ZM1507.45 3.09999V-0.900009H1505.38L1504.19 0.786522L1507.45 3.09999ZM1538.78 3.09999L1542.04 5.4231L1546.55 -0.900009H1538.78V3.09999ZM1496.48 62.395L1493.22 60.0719L1491.55 62.4154L1493.24 64.745L1496.48 62.395ZM1543.38 123H1510.64V131H1543.38V123ZM1513.88 124.658L1470.16 64.124L1463.67 68.808L1507.39 129.342L1513.88 124.658ZM1462.92 66.466V127H1470.92V66.466H1462.92ZM1466.92 123H1440.01V131H1466.92V123ZM1444.01 127V3.09999H1436.01V127H1444.01ZM1440.01 7.09999H1466.92V-0.900009H1440.01V7.09999ZM1462.92 3.09999V60.271H1470.92V3.09999H1462.92ZM1470.18 62.5845L1510.71 5.41346L1504.19 0.786522L1463.65 57.9575L1470.18 62.5845ZM1507.45 7.09999H1538.78V-0.900009H1507.45V7.09999ZM1535.52 0.776878L1493.22 60.0719L1499.73 64.7181L1542.04 5.4231L1535.52 0.776878ZM1493.24 64.745L1540.14 129.35L1546.62 124.65L1499.71 60.045L1493.24 64.745ZM1641.66 3.09999H1645.66V-0.900009H1641.66V3.09999ZM1641.66 28.057V32.057H1645.66V28.057H1641.66ZM1607.15 28.057V24.057H1603.15V28.057H1607.15ZM1607.15 127V131H1611.15V127H1607.15ZM1580.24 127H1576.24V131H1580.24V127ZM1580.24 28.057H1584.24V24.057H1580.24V28.057ZM1545.9 28.057H1541.9V32.057H1545.9V28.057ZM1545.9 3.09999V-0.900009H1541.9V3.09999H1545.9ZM1637.66 3.09999V28.057H1645.66V3.09999H1637.66ZM1641.66 24.057H1607.15V32.057H1641.66V24.057ZM1603.15 28.057V127H1611.15V28.057H1603.15ZM1607.15 123H1580.24V131H1607.15V123ZM1584.24 127V28.057H1576.24V127H1584.24ZM1580.24 24.057H1545.9V32.057H1580.24V24.057ZM1549.9 28.057V3.09999H1541.9V28.057H1549.9ZM1545.9 7.09999H1641.66V-0.900009H1545.9V7.09999ZM1667.06 111.247L1664.25 114.089L1664.26 114.102L1664.28 114.115L1667.06 111.247ZM1667.06 19.03L1669.87 21.8852L1669.87 21.885L1667.06 19.03ZM1747.95 8.94099L1745.99 12.424L1746.01 12.4377L1746.04 12.451L1747.95 8.94099ZM1771.67 32.128L1768.2 34.1126L1768.2 34.1215L1768.21 34.1305L1771.67 32.128ZM1761.41 111.247L1758.6 108.392L1761.41 111.247ZM1734.15 99.388L1736.1 102.878L1736.13 102.863L1736.15 102.848L1734.15 99.388ZM1747.95 85.228L1744.48 83.2508L1744.46 83.2768L1744.45 83.303L1747.95 85.228ZM1741.94 37.084L1739.06 39.8672L1739.08 39.89L1739.11 39.9124L1741.94 37.084ZM1686.53 37.084L1689.36 39.9124L1686.53 37.084ZM1686.53 93.193L1683.68 95.9991L1683.71 96.0215L1683.73 96.0436L1686.53 93.193ZM1714.32 125.655C1696.4 125.655 1681.67 119.869 1669.85 108.379L1664.28 114.115C1677.71 127.169 1694.49 133.655 1714.32 133.655V125.655ZM1669.88 108.405C1658.17 96.8038 1652.3 82.4448 1652.3 65.05H1644.3C1644.3 84.4712 1650.95 100.91 1664.25 114.089L1669.88 108.405ZM1652.3 65.05C1652.3 47.6555 1658.17 33.3636 1669.87 21.8852L1664.26 16.1748C1650.95 29.2403 1644.3 45.6285 1644.3 65.05H1652.3ZM1669.87 21.885C1681.69 10.2817 1696.41 4.445 1714.32 4.445V-3.55501C1694.47 -3.55501 1677.69 2.99833 1664.26 16.175L1669.87 21.885ZM1714.32 4.445C1726.08 4.445 1736.6 7.1244 1745.99 12.424L1749.92 5.45797C1739.24 -0.570419 1727.35 -3.55501 1714.32 -3.55501V4.445ZM1746.04 12.451C1755.54 17.647 1762.91 24.8518 1768.2 34.1126L1775.14 30.1434C1769.11 19.5802 1760.66 11.327 1749.87 5.43097L1746.04 12.451ZM1768.21 34.1305C1773.49 43.2707 1776.17 53.5451 1776.17 65.05H1784.17C1784.17 52.2469 1781.18 40.5733 1775.13 30.1255L1768.21 34.1305ZM1776.17 65.05C1776.17 82.5704 1770.3 96.9186 1758.6 108.392L1764.21 114.102C1777.53 101.031 1784.17 84.5816 1784.17 65.05H1776.17ZM1758.6 108.392C1746.91 119.87 1732.25 125.655 1714.32 125.655V133.655C1734.16 133.655 1750.89 127.168 1764.21 114.102L1758.6 108.392ZM1714.32 108.344C1722.27 108.344 1729.56 106.544 1736.1 102.878L1732.19 95.898C1726.94 98.8405 1721.01 100.344 1714.32 100.344V108.344ZM1736.15 102.848C1742.69 99.058 1747.81 93.8053 1751.46 87.153L1744.45 83.303C1741.49 88.6867 1737.41 92.874 1732.14 95.9279L1736.15 102.848ZM1751.43 87.2052C1755.22 80.5402 1757.09 73.1244 1757.09 65.05H1749.09C1749.09 71.8436 1747.53 77.8798 1744.48 83.2508L1751.43 87.2052ZM1757.09 65.05C1757.09 52.857 1753 42.4931 1744.76 34.2556L1739.11 39.9124C1745.74 46.5429 1749.09 54.8229 1749.09 65.05H1757.09ZM1744.81 34.3008C1736.69 25.9246 1726.43 21.756 1714.32 21.756V29.756C1724.4 29.756 1732.54 33.1394 1739.06 39.8672L1744.81 34.3008ZM1714.32 21.756C1702.32 21.756 1692.03 25.9306 1683.71 34.2556L1689.36 39.9124C1696.14 33.1334 1704.38 29.756 1714.32 29.756V21.756ZM1683.71 34.2556C1675.47 42.4931 1671.38 52.857 1671.38 65.05H1679.38C1679.38 54.8229 1682.73 46.5429 1689.36 39.9124L1683.71 34.2556ZM1671.38 65.05C1671.38 77.2427 1675.47 87.6522 1683.68 95.9991L1689.39 90.3869C1682.73 83.6298 1679.38 75.2773 1679.38 65.05H1671.38ZM1683.73 96.0436C1692.06 104.243 1702.34 108.344 1714.32 108.344V100.344C1704.36 100.344 1696.12 97.0111 1689.34 90.3424L1683.73 96.0436ZM1875.79 61.687L1873.49 58.4142L1868.11 62.1931L1873.94 65.2333L1875.79 61.687ZM1888.36 73.723L1884.88 75.699L1884.91 75.7462L1884.93 75.7927L1888.36 73.723ZM1881.45 116.557L1878.77 113.595L1878.75 113.606L1878.74 113.616L1881.45 116.557ZM1801.27 127H1797.27V131H1801.27V127ZM1801.27 3.09999V-0.900009H1797.27V3.09999H1801.27ZM1879.15 12.304L1876.53 15.3268L1876.55 15.3393L1876.56 15.3518L1879.15 12.304ZM1886.06 50.005L1882.51 48.1457V48.1457L1886.06 50.005ZM1862.69 33.898L1858.93 35.2433L1858.99 35.4118L1859.06 35.5742L1862.69 33.898ZM1860.04 29.65L1862.87 26.8216V26.8216L1860.04 29.65ZM1855.61 26.995L1854.04 30.6716L1854.19 30.7371L1854.35 30.7897L1855.61 26.995ZM1827.65 25.933V21.933H1823.65V25.933H1827.65ZM1827.65 52.306H1823.65V56.306H1827.65V52.306ZM1860.04 48.766L1862.8 51.6625L1862.83 51.6289L1862.87 51.5944L1860.04 48.766ZM1861.98 78.502L1864.75 75.6114L1861.98 78.502ZM1827.65 74.608V70.608H1823.65V74.608H1827.65ZM1827.65 102.397H1823.65V106.397H1827.65V102.397ZM1873.94 65.2333C1878.7 67.7189 1882.32 71.1938 1884.88 75.699L1891.84 71.747C1888.49 65.8682 1883.73 61.3191 1877.64 58.1407L1873.94 65.2333ZM1884.93 75.7927C1887.58 80.1728 1888.96 85.2818 1888.96 91.246H1896.96C1896.96 83.9942 1895.27 77.4212 1891.78 71.6533L1884.93 75.7927ZM1888.96 91.246C1888.96 99.9737 1885.64 107.353 1878.77 113.595L1884.14 119.519C1892.61 111.837 1896.96 102.342 1896.96 91.246H1888.96ZM1878.74 113.616C1871.97 119.864 1863.8 123 1854.02 123V131C1865.71 131 1875.84 127.174 1884.17 119.498L1878.74 113.616ZM1854.02 123H1801.27V131H1854.02V123ZM1805.27 127V3.09999H1797.27V127H1805.27ZM1801.27 7.09999H1852.6V-0.900009H1801.27V7.09999ZM1852.6 7.09999C1862.4 7.09999 1870.28 9.90533 1876.53 15.3268L1881.77 9.28124C1873.87 2.43066 1864.05 -0.900009 1852.6 -0.900009V7.09999ZM1876.56 15.3518C1882.77 20.6296 1885.77 27.0778 1885.77 34.96H1893.77C1893.77 24.6702 1889.69 16.0144 1881.74 9.25624L1876.56 15.3518ZM1885.77 34.96C1885.77 39.6196 1884.69 43.9968 1882.51 48.1457L1889.6 51.8643C1892.38 46.5732 1893.77 40.9204 1893.77 34.96H1885.77ZM1882.51 48.1457C1880.33 52.3019 1877.34 55.7116 1873.49 58.4142L1878.09 64.9598C1882.98 61.5264 1886.82 57.1481 1889.6 51.8643L1882.51 48.1457ZM1867.75 39.208C1867.75 36.7303 1867.32 34.3705 1866.32 32.2218L1859.06 35.5742C1859.48 36.4935 1859.75 37.6737 1859.75 39.208H1867.75ZM1866.46 32.5527C1865.68 30.3722 1864.49 28.4418 1862.87 26.8216L1857.21 32.4784C1857.95 33.2182 1858.52 34.1198 1858.93 35.2433L1866.46 32.5527ZM1862.87 26.8216C1861.2 25.1529 1859.17 23.9632 1856.88 23.2003L1854.35 30.7897C1855.6 31.2068 1856.52 31.7871 1857.21 32.4784L1862.87 26.8216ZM1857.19 23.3184C1854.96 22.3619 1852.52 21.933 1849.95 21.933V29.933C1851.63 29.933 1852.96 30.2121 1854.04 30.6716L1857.19 23.3184ZM1849.95 21.933H1827.65V29.933H1849.95V21.933ZM1823.65 25.933V52.306H1831.65V25.933H1823.65ZM1827.65 56.306H1849.95V48.306H1827.65V56.306ZM1849.95 56.306C1854.96 56.306 1859.4 54.8922 1862.8 51.6625L1857.28 45.8694C1855.71 47.3598 1853.43 48.306 1849.95 48.306V56.306ZM1862.87 51.5944C1866.18 48.2796 1867.75 44.0337 1867.75 39.208H1859.75C1859.75 42.1703 1858.85 44.2964 1857.21 45.9376L1862.87 51.5944ZM1851.36 106.397C1856.58 106.397 1861.17 104.817 1864.75 101.394L1859.22 95.6124C1857.37 97.3812 1854.88 98.397 1851.36 98.397V106.397ZM1864.75 101.394C1868.34 97.9636 1870.06 93.5153 1870.06 88.414H1862.06C1862.06 91.5727 1861.06 93.8504 1859.22 95.6124L1864.75 101.394ZM1870.06 88.414C1870.06 83.3934 1868.31 79.0176 1864.75 75.6114L1859.22 81.3926C1861.09 83.1784 1862.06 85.4106 1862.06 88.414H1870.06ZM1864.75 75.6114C1861.17 72.1882 1856.58 70.608 1851.36 70.608V78.608C1854.88 78.608 1857.37 79.6238 1859.22 81.3926L1864.75 75.6114ZM1851.36 70.608H1827.65V78.608H1851.36V70.608ZM1823.65 74.608V102.397H1831.65V74.608H1823.65ZM1827.65 106.397H1851.36V98.397H1827.65V106.397Z" fill="#EDECF2"/>
</g>
</svg>
